<?xml version="1.0" encoding="utf-8"?>
<!-- Generator: Adobe Illustrator 25.4.1, SVG Export Plug-In . SVG Version: 6.00 Build 0)  -->
<svg version="1.1" id="Layer_1" xmlns="http://www.w3.org/2000/svg" xmlns:xlink="http://www.w3.org/1999/xlink" x="0px" y="0px"
	 viewBox="0 0 100 100" style="enable-background:new 0 0 100 100;" xml:space="preserve">
<style type="text/css">
	.st0{fill:#FFFFFF;}
</style>
<g>
	<path class="st0" d="M78.74,6.58c-0.25-0.25-0.26-0.51-0.16-0.83c0.52-1.71-0.02-2.42-1.34-3.3c-0.29-0.19-0.58-0.38-0.9-0.58
		c0.88-1.05,1.71-0.27,2.55-0.05c-0.02-0.57-0.33-0.8-0.67-0.9c-0.78-0.23-1.62-0.39-2.33,0.14c-0.54,0.41-1.04,0.46-1.68,0.36
		c-0.69-0.11-1.43-0.12-2.1,0.03c-1.39,0.32-2.55,1.04-3.26,2.35c-0.17,0.32-0.31,0.67-0.81,0.61c-1.84-0.23-3.67-0.45-5.51-0.64
		c-1.34-0.14-2.68-0.3-4.02-0.33c-5.47-0.14-10.92,0.05-16.38,0.4C41.21,3.9,40.3,3.89,39.4,3.99c-3.55,0.4-7.09,0.83-10.63,1.27
		c-1.79,0.22-3.46,0.86-5.11,1.55c-1.21,0.51-1.3,0.84-0.83,2.04c0.16,0.41,0.34,0.81,0.53,1.2c1.16,2.41,2.58,4.66,4.14,6.83
		c2.14,2.99,4.23,6.01,6.46,8.93c2.13,2.78,4.4,5.46,6.65,8.15c1.56,1.86,3.08,3.76,4.94,5.33c0.3,0.26,0.64,0.52,1,0.66
		c0.69,0.27,1.12,0.74,1.34,1.41c0.19,0.57,0.4,1.15,0.5,1.74c0.27,1.56,0.57,3.12,0.7,4.69c0.27,3.43,0.5,6.86,0.64,10.29
		c0.1,2.56,0.03,5.12,0.06,7.69c0.02,1.69,0.1,3.37,0.09,5.06c-0.02,2.6-0.07,5.19-0.14,7.79c-0.07,2.73-0.13,5.46-0.72,8.14
		c-0.44,1.99-0.43,1.97-2.45,2.11c-2.56,0.19-5.06,0.75-7.46,1.66c-0.84,0.32-1.61,0.85-2.36,1.36c-1.1,0.77-1.39,2.65,0.06,3.6
		c0.39,0.26,0.81,0.48,1.24,0.67c3.79,1.61,7.78,2.13,11.85,2.09c2.22-0.02,4.45-0.19,6.67-0.3c3.06-0.15,6-0.86,8.76-2.2
		c0.53-0.26,1.04-0.63,1.47-1.04c0.72-0.68,0.77-1.67,0.16-2.47c-0.26-0.34-0.58-0.68-0.96-0.88c-0.86-0.46-1.73-0.95-2.65-1.22
		c-2.59-0.76-5.23-1.28-7.93-1.45c-0.55-0.04-0.91-0.21-1.01-0.77c-0.31-1.72-0.76-3.44-0.9-5.17c-0.26-3.33-0.35-6.66-0.49-10
		c-0.04-1.04-0.01-2.09-0.02-3.14c-0.02-3.13-0.06-6.26-0.07-9.39c-0.01-1.48-0.04-2.97,0.02-4.45c0.11-2.83,0.27-5.66,0.41-8.48
		c0.11-2.27,0.49-4.49,1.5-6.56c0.16-0.33,0.28-0.68,0.72-0.76c0.82-0.15,1.35-0.73,1.84-1.34c1.55-1.95,3.11-3.9,4.63-5.88
		c2.57-3.34,5.08-6.73,7.68-10.05c2.82-3.59,5.39-7.34,7.64-11.31c0.63-1.11,1.05-2.33,1.54-3.51C79.12,7.44,79.13,6.97,78.74,6.58z
		 M75.51,2.22c0.22,0.71,0.43,1.42,0.66,2.14c-0.29-0.04-0.59-0.09-0.98-0.15c0.14,0.28,0.23,0.46,0.38,0.74
		c-0.58-0.16-0.91-0.43-0.87-0.93C74.75,3.34,74.69,2.57,75.51,2.22z M76.01,5.71L76,5.77l-0.06-0.04L76.01,5.71z M77.71,7.55
		c-1.18,0.73-2.31,1.05-3.52,1.34c0-0.84,0-1.59,0-2.47C75.38,6.74,76.51,6.96,77.71,7.55z M73.6,12.8
		c-0.04,0.04-0.08,0.09-0.12,0.13c-0.12-0.1-0.24-0.21-0.36-0.31c0.04-0.04,0.07-0.08,0.11-0.13C73.35,12.59,73.48,12.69,73.6,12.8z
		 M73.52,15.28c0.01,0,0.02-0.01,0.02-0.01C73.54,15.28,73.53,15.28,73.52,15.28L73.52,15.28z M74.03,11.46
		c0.16-0.12,0.32-0.23,0.48-0.35c0.06,0.09,0.13,0.18,0.19,0.27c-0.16,0.1-0.32,0.21-0.5,0.3C74.19,11.68,74.09,11.53,74.03,11.46z
		 M74.49,10.47c0.29-0.09,0.58-0.18,1-0.32c-0.14,0.41-0.22,0.65-0.35,1.04c-0.03-0.28-0.04-0.42-0.06-0.61
		C74.88,10.54,74.69,10.5,74.49,10.47z M67.27,11.45c2.29-0.6,4.53-1.2,6.79-1.78c0.18-0.05,0.39,0.02,0.61,0.04
		C74.15,10.35,68.93,11.56,67.27,11.45z M68.15,9.1c0.01,0,0.02,0.01,0.03,0.01c0-0.01,0-0.01,0-0.02c0.25-0.11,0.5-0.21,0.74-0.32
		c0.33,0.39,0.61,0.71,0.89,1.05c-0.69,0.34-1.66,0.35-2.16,0.04c-0.08,0.21-0.06,0.57-0.45,0.36c-0.27-0.15-0.18-0.43,0.01-0.57
		c0.3-0.22,0.65-0.38,0.97-0.57L68.15,9.1z M71.32,9.58l0.05-0.01l-0.01,0.05L71.32,9.58z M74.54,6.08
		c-0.29-0.07-0.57-0.14-0.86-0.21c0.03-0.11,0.06-0.21,0.09-0.32c0.28,0.09,0.56,0.19,0.84,0.28C74.58,5.91,74.56,5.99,74.54,6.08z
		 M72.12,4.55c0.07-0.76,0.26-0.96,0.86-0.96c0.81,0,1.17,0.38,1.26,1.45C73.47,4.86,72.79,4.71,72.12,4.55z M72.89,7.25
		c-0.32,0.09-0.65,0.02-0.73-0.34c-0.09-0.38-0.09-0.78-0.13-1.25c0.69,0.14,0.92,0.51,1.07,0.93C73.2,6.86,73.25,7.15,72.89,7.25z
		 M74.29,2.44c-0.2,0.85-0.2,0.85-0.89,0.47C73.69,2.76,73.97,2.61,74.29,2.44z M73.15,1.81c-0.49,0.52-0.89,0.98-1.33,1.4
		c-0.62,0.61-0.84,1.37-0.83,2.2c0.01,1.44,0.77,2.31,2.19,2.5c0.09,1.12-0.04,1.29-1.24,1.5C72.32,9,72.66,8.64,73.07,8.2
		c-0.73-0.16-1.32-0.29-1.88-0.42c0-0.19,0-0.41,0-0.74C70.9,7.2,70.7,7.3,70.49,7.4c-0.02-0.02-0.04-0.04-0.05-0.06
		c0.07-0.06,0.13-0.11,0.2-0.17l0,0h0.01c-0.01-0.01-0.01-0.01-0.02-0.02c0,0.01,0,0.01,0,0.02c-0.15-0.04-0.31-0.07-0.61-0.14
		c0,0.5,0,0.93,0,1.53c0.06,0.04,0.3,0.2,0.57,0.37c-0.08,0.17-0.15,0.31-0.21,0.44c-0.68,0.01-1.73-2.04-1.77-3.34
		C68.54,3.96,70.67,1.92,73.15,1.81z M68.67,8.38c-0.35-0.1-0.56-0.15-0.77-0.21c0.04-0.12,0.04-0.22,0.07-0.24
		C68.3,7.75,68.54,7.81,68.67,8.38z M67.27,7.43c-0.32-0.74,0.56-0.93,0.58-1.58C68.37,6.81,68.35,6.84,67.27,7.43z M67.81,5.39
		c-0.15-0.02-0.29-0.03-0.44-0.05c0.14-0.04,0.29-0.08,0.43-0.12C67.8,5.28,67.8,5.34,67.81,5.39z M65.79,5
		c-0.35-0.03-0.7-0.06-1.05-0.09c0.35-0.03,0.7-0.06,1.05-0.09C65.78,4.88,65.78,4.94,65.79,5z M24.69,7.24
		C27,6.4,29.34,5.66,31.81,5.41c1.61-0.16,3.21-0.45,4.82-0.57c2.82-0.21,5.65-0.39,8.48-0.47c3.81-0.1,7.62-0.14,11.43-0.12
		c1.75,0.01,3.49,0.24,5.24,0.35c0.57,0.04,1.15-0.01,1.72,0.04c0.36,0.03,0.7,0.15,1.05,0.25c-0.81-0.04-1.6-0.11-2.4-0.12
		c-1.17-0.02-2.35-0.01-3.52-0.01c0,0.08-0.01,0.17-0.01,0.25c0.32,0,0.65-0.01,0.97,0c1.98,0.11,3.96,0.23,5.94,0.32
		c0.59,0.03,1.17,0.01,1.76,0.01c-0.23,0.22-0.45,0.46-0.68,0.68c-0.44,0.42-0.95,0.77-1.31,1.25C64.87,7.83,64.35,8,63.71,7.89
		c-2.48-0.41-4.98-0.07-7.47-0.15c-0.19-0.01-0.38,0.06-0.56,0.16c0.81,0.11,1.53,0.43,2.43,0.21c0.75-0.19,1.65-0.22,2.46,0.15
		c0.24,0.11,0.61,0.15,0.82,0.03c1.01-0.54,1.77,0.23,2.69,0.38c-0.19,0.71-0.36,1.34-0.5,1.87c-1.71,0.15-3.33,0.31-4.95,0.42
		c-1.21,0.09-2.42,0.15-3.63,0.17c-2.49,0.04-4.99,0.06-7.49,0.07c-0.57,0-1.14-0.05-1.72-0.05c-3.48,0.01-6.95-0.07-10.4-0.49
		c-0.99-0.12-1.95-0.41-2.93-0.6c-0.25-0.05-0.52-0.01-0.78-0.03c-0.32-0.03-0.63-0.1-0.94-0.15c0-0.07,0-0.13,0-0.2
		c1.11-0.17,2.21-0.37,3.33-0.49c1.12-0.12,2.25-0.16,3.37-0.42c-0.3,0-0.59,0-0.89,0c-2.17-0.02-4.3,0.32-6.43,0.64
		c-0.69,0.1-1.32,0.08-1.98-0.16c-0.89-0.32-1.81-0.53-2.71-0.8c-0.19-0.06-0.36-0.16-0.73-0.33c0.62-0.37,1.11-0.66,1.68-1.01
		c-0.94-0.12-1.53,0.71-2.42,0.51C24.21,7.51,24.44,7.33,24.69,7.24z M66.02,10.43c-0.69,0.33-0.73,0.33-1.72,0.18
		c-0.39-0.47,0.29-0.71,0.24-1.01c-0.06-0.41-0.02-0.73,0.24-1.01c0.21-0.23,0.64-0.22,0.57-0.76c-0.03-0.2,0.46-0.47,0.72-0.72
		C66,7.73,65.9,8.29,65.9,8.85C65.89,9.38,65.97,9.91,66.02,10.43z M25.76,9.58c-0.09-0.06-0.19-0.13-0.43-0.32
		c0.29,0.06,0.39,0.09,0.49,0.11C25.8,9.44,25.78,9.51,25.76,9.58z M26.18,9.63c-0.12-0.01-0.24-0.03-0.35-0.04
		c0.11-0.04,0.23-0.07,0.34-0.11C26.18,9.53,26.18,9.58,26.18,9.63z M23.53,8.79c0.49,0.27,0.96,0.58,1.47,0.8
		c0.5,0.22,1.04,0.36,1.74,0.6c-0.78,0.3-1.37,0.52-1.96,0.74C24.02,10.32,23.77,9.91,23.53,8.79z M28.18,16.48
		c-0.02-0.06-0.05-0.12-0.06-0.18c0-0.02,0.05-0.04,0.07-0.06c0.02,0.06,0.04,0.11,0.06,0.17C28.23,16.44,28.21,16.46,28.18,16.48z
		 M28.79,17.46c0.02-0.11,0.04-0.23,0.06-0.34c-0.1-0.09-0.21-0.18-0.31-0.27c-0.02,0-0.04,0-0.06,0c0.02,0,0.05,0,0.07-0.01
		c0.1,0.09,0.2,0.18,0.3,0.27c0.02,0.12,0.04,0.24,0.06,0.36C28.87,17.46,28.83,17.46,28.79,17.46z M29.28,17.95
		c0.01-0.02,0.02-0.03,0.02-0.05c0,0.01,0.01,0.02,0.01,0.02C29.3,17.93,29.29,17.94,29.28,17.95z M30.05,18.99
		c-0.03-0.05-0.06-0.1-0.09-0.16c0.06,0.02,0.13,0.03,0.19,0.05C30.11,18.92,30.08,18.96,30.05,18.99z M30.64,19.84
		c-0.02-0.02-0.06-0.04-0.06-0.06c0.01-0.05,0.04-0.09,0.06-0.14c0.02,0.02,0.04,0.04,0.07,0.05
		C30.68,19.75,30.66,19.79,30.64,19.84z M30.82,17.02c0-0.05,0.01-0.1,0.01-0.16c0.01,0.03,0.03,0.05,0.04,0.08
		C30.85,16.97,30.84,17,30.82,17.02z M39.93,32.41c0.02,0.01,0.05,0.02,0.07,0.03c-0.02,0-0.03,0-0.05,0.01
		C39.95,32.43,39.94,32.42,39.93,32.41z M59.68,34.65c0.01,0.01,0.02,0.01,0.02,0.02c0,0.01,0,0.03-0.01,0.04
		C59.7,34.69,59.69,34.67,59.68,34.65z M59.78,34.11c0-0.01,0-0.03,0-0.04l0,0C59.78,34.08,59.78,34.1,59.78,34.11z M68.4,23.25
		c-0.21,0.28-0.29,0.7-0.81,0.6c-0.1-0.02-0.28,0.15-0.38,0.27c-1.08,1.32-2.15,2.65-3.22,3.98c-0.01,0.02,0.01,0.06,0.03,0.21
		c0.25-0.14,0.46-0.26,0.68-0.38c-0.2,0.35-0.38,0.72-0.62,1.04c-0.42,0.55-0.88,1.07-1.33,1.6c-0.71,1.24-1.51,2.42-2.61,3.36
		c0.3-0.52,0.56-1.06,0.92-1.53c0.5-0.66,1.09-1.25,1.63-1.88c0.08-0.27,0.16-0.54,0.24-0.81c-0.06-0.04-0.13-0.08-0.19-0.12
		c-0.76,0.96-1.52,1.92-2.28,2.87c-0.95,1.18-1.85,2.39-2.87,3.51c-0.53,0.58-1.24,1-1.89,1.51c0.84,0.17,2-0.67,3.28-2.33
		c0.01,0.03,0.04,0.07,0.03,0.09c-0.86,1.53-1.73,3.05-3.62,3.54c-0.91,0.24-1.82,0.46-2.77,0.7c0.06,0.11,0.11,0.22,0.18,0.36
		c-0.42,0.02-0.82,0.05-1.3,0.08c0.31,0.47,0.25,0.79-0.3,0.84c-0.58,0.06-1.17,0.09-1.82,0.14c0.21,0.51,0.54,0.51,0.87,0.57
		c0.86,0.15,1.72,0.32,2.56,0.53c0.54,0.13,0.67,0.39,0.57,0.99c-0.12,0.7-0.31,1.39-0.38,2.09c-0.15,1.61-0.3,3.22-0.36,4.84
		c-0.15,4.21-0.3,8.42-0.37,12.64c-0.04,2.26,0.07,4.51,0.11,6.77c0.03,1.69,0.01,3.37,0.07,5.06c0.1,2.73,0.19,5.46,0.39,8.18
		c0.11,1.44,0.45,2.86,0.67,4.29c0.05,0.3,0.05,0.61,0.08,0.92c-0.13-0.27-0.29-0.54-0.36-0.83c-0.17-0.72-0.33-1.41-0.74-2.06
		c-0.21-0.34-0.24-0.83-0.26-1.26c-0.05-1.31-0.05-2.62-0.08-3.93c-0.06-2.66-0.13-5.32-0.2-7.98c-0.01-0.31-0.09-0.63-0.14-0.94
		c-0.07,0.01-0.14,0.01-0.21,0.02c0,0.58-0.01,1.16,0,1.73c0.09,4.34,0.14,8.68,0.3,13.02c0.08,2.09,0.51,4.14,1.28,6.1
		c0.2,0.5,0.39,1.02,0.78,1.4c0.07-0.04,0.14-0.07,0.21-0.11c-0.15-0.39-0.3-0.79-0.44-1.18c-0.13-0.38-0.53-0.75-0.03-1.16
		c0.06-0.05-0.02-0.31-0.08-0.46c-0.17-0.51-0.36-1.01-0.54-1.52c0-0.14,0-0.28,0-0.42c0.01,0,0.03,0,0.04,0
		c-0.01,0.14-0.02,0.28-0.04,0.42c0.46,0.03,0.45,0.45,0.56,0.73c0.45,1.13,1.48,1.77,2.23,2.92c0.32-1.27-0.83-1.78-0.8-2.82
		c0.33-0.01,0.68-0.05,1.02-0.01c1.67,0.2,3.34,0.35,4.99,0.65c1.08,0.2,2.14,0.6,3.18,0.97c0.5,0.18,0.98,0.45,1.42,0.75
		c1.23,0.86,1.21,2.16-0.08,2.9c-0.72,0.41-1.51,0.78-2.32,0.97c-2.13,0.51-4.27,0.98-6.42,1.35c-2.86,0.5-5.74,0.58-8.65,0.27
		c-2.86-0.3-5.67-0.74-8.43-1.54c-0.58-0.17-1.16-0.37-1.71-0.61c-0.37-0.16-0.73-0.36-1.04-0.61c-0.87-0.69-0.89-1.48-0.05-2.2
		c0.91-0.78,1.97-1.32,3.11-1.65c2.2-0.63,4.43-1.18,6.73-1.25c0.4-0.01,0.79-0.07,1.25-0.11c0.09,1-0.62,1.64-0.97,2.56
		c0.27-0.07,0.5-0.07,0.58-0.17c0.29-0.41,0.58-0.83,0.79-1.29c0.89-1.92,1.31-3.98,1.46-6.07c0.21-2.82,0.35-5.65,0.38-8.48
		c0.06-4.82,0.03-9.64-0.01-14.47c-0.05-4.82-0.21-9.63-0.72-14.43c-0.13-1.24-0.25-2.48-0.48-3.7c-0.18-0.92-0.53-1.8-0.8-2.7
		c-0.07-0.22-0.14-0.43-0.23-0.71c0.53-0.07,1.01-0.12,1.48-0.18c0-0.05-0.01-0.11-0.01-0.16c-0.64-0.11-1.28-0.28-1.92-0.3
		c-0.65-0.02-1.21-0.25-1.65-0.66c-1.38-1.28-2.74-2.59-4.07-3.92c-0.7-0.7-1.32-1.46-1.97-2.2c0.4,0.16,0.8,0.32,1.2,0.48
		c0.04-0.04,0.08-0.07,0.11-0.11c-0.31-0.32-0.63-0.63-0.93-0.95c-0.37-0.39-0.72-0.8-1.09-1.19c-0.17-0.18-0.28-0.45-0.66-0.31
		c-0.11,0.04-0.52-0.4-0.51-0.42c0.38-0.55-0.24-0.83-0.32-1.24c-0.34-0.33-0.68-0.67-1.02-1c-0.27-0.27-0.46-0.57-0.95-0.61
		c-0.52-0.04-0.59-0.53-0.44-1c-0.64,0.31-0.77-0.23-0.9-0.6c-0.37-1.02-0.46-1.14-1.08-1.82c-0.33-0.36-0.55-0.83-0.82-1.25
		c-0.52-0.71-1.04-1.41-1.55-2.13c-0.02-0.03,0.09-0.16,0.21-0.36c0.31,0.46,0.57,0.88,0.86,1.28c0.21,0.29,0.45,0.54,0.68,0.81
		l1.13,1.57c0.72,0.27,0.5,1.35,1.44,1.47c-0.22,0.15-0.32,0.23-0.39,0.28c0.16,0.23,0.33,0.46,0.49,0.7c0.1,0,0.27-0.04,0.29,0.01
		c0.33,0.64,1.13,0.8,1.45,1.46c0.12,0.25,0.43,0.42,0.74,0.71c0.21-0.82-0.43-1.2-0.49-1.75c-0.52-0.06-0.72-0.51-0.99-0.85
		c-0.23-0.28-0.37-0.64-0.6-0.91c-0.39-0.47-0.66-0.94-0.13-1.63c-0.35,0.03-0.54,0.05-0.74,0.07c0.11-0.42,0.11-0.42,0.76-0.92
		c-0.2-0.29-0.41-0.58-0.67-0.96c-0.92,0.44-1.34-0.31-1.81-0.99c0.2-0.4,0.41-0.81,0.65-1.3c-0.35-0.23-0.65-0.43-1.05-0.7
		c0.05-0.14,0.16-0.42,0.27-0.72c0.46,0.15,0.83,0.27,1.3,0.42c0.02-0.69,0.44-0.92,0.99-1.02c0.79-0.43,1.6-0.77,2.52-0.53
		c0.01,0.01,0.01,0.02,0.02,0.03c0-0.01,0-0.01,0-0.02c0,0,0,0-0.01,0l0,0l-0.02-0.01c0.31,0.1,0.62,0.19,0.93,0.29
		c-0.02,0.09-0.04,0.17-0.07,0.26c0.03-0.08,0.07-0.17,0.1-0.25l0,0l0,0l-0.03-0.03c0.03,0,0.07,0,0.1,0.01
		c1.33,0.48,2.61,1.06,3.78,1.85c-0.01,0.01-0.01,0.02-0.02,0.03c0.02,0,0.04,0,0.06,0l0,0l0,0l-0.03-0.03
		c0.43,0.3,0.98,0.52,1.27,0.93c0.77,1.05,1.43,2.19,2.2,3.39c-0.53,0.26-0.93,0.49-1.35,0.66c-1.06,0.43-1.73,1.28-2.29,2.2
		c-1.18,1.92-0.92,3.82,0.18,5.71c0.69,1.19,1.79,1.99,2.69,2.98c0.14,0.15,0.52,0.06,0.74,0.18c1.11,0.56,2.33,0.2,3.48,0.4
		c0.26,0.05,0.57-0.31,0.88-0.4c2.3-0.7,4.26-2.01,6.1-3.51c1.95-1.6,2.62-4.83,1.54-7.13c-0.13-0.27-0.24-0.55-0.35-0.83
		c0.01,0,0.02,0,0.02,0c0-0.01-0.01-0.02-0.01-0.03c0,0-0.01,0.02-0.02,0.03l0,0l0.02-0.03c-0.81-0.62-1.63-1.24-2.45-1.85
		c-0.12-0.09-0.27-0.19-0.41-0.22c-0.99-0.2-1.98-0.37-2.97-0.57c-0.3-0.06-0.59-0.21-0.81-0.3c-0.33,0.13-0.64,0.27-0.96,0.38
		c-0.76,0.26-1.54,0.47-2.28,0.77c-0.2,0.08-0.3,0.4-0.44,0.62c-0.12,0.21-0.23,0.43-0.38,0.71c-0.52-0.53-0.65-1.08-0.87-1.61
		c-0.22-0.51-0.52-0.99-0.81-1.46c-0.31-0.48-0.68-0.91-0.98-1.4c-0.29-0.46-0.98-0.42-1.22-1.14c0.38,0.1,0.67,0.18,0.97,0.26
		c0.36,0.11,0.49-0.06,0.51-0.44c-0.2-0.06-0.4-0.12-0.66-0.19c0.19-0.15,0.34-0.27,0.45-0.35c0.36,0.09,0.71,0.28,1.03,0.23
		c0.24-0.03,0.26-0.57,0.75-0.44c0.38,0.1,0.8,0.05,1.21,0.05c0.4,0.01,0.81,0,1.21,0.02c0.37,0.02,0.74,0.09,1.11,0.12
		c0.4,0.03,0.81,0.04,1.21,0.05c0.4,0.01,0.81-0.03,1.21,0.02c0.24,0.03,0.46,0.18,0.6,0.24c0.55-0.03,1.05-0.08,1.55-0.08
		c0.62,0,0.68,0.71,1.13,0.95c0.51-0.5,0.51-0.5-0.18-0.88l-0.05-0.04l0.06,0.03c0.57-0.47,1.28-0.27,1.92-0.41
		c0.29-0.06,0.6-0.01,0.95,0.14c-0.4,0.08-0.8,0.2-1.21,0.23c-0.59,0.05-0.69,0.17-0.55,0.87c0.38,0.04,0.76,0.08,1.2,0.12
		c0.02-0.15,0.05-0.34,0.09-0.63c0.3,0.02,0.63,0,0.92,0.09c0.26,0.08,0.47,0.3,0.78,0.51c0,0.09,0,0.28,0,0.48l-0.01,0.02
		c0.14-0.24,0.29-0.49,0.45-0.77c0.31-0.07,0.63,0.63,0.98,0.09c0.2,0.26,0.33,0.5,0.53,0.68c0.23,0.21-0.48,0.52,0.12,0.69
		c0.23,0.07,0.4,0.37,0.67,0.62c0-0.49,0-0.92,0-1.35c0.57,0.65,1.13,1.31,2.16,1.38c0.02-0.22,0.03-0.41,0.05-0.6
		c0.33,0.17,0.66,0.34,1.1,0.57c0,0.23,0,0.58,0,0.82c-0.59,0.17-1.1,0.31-1.7,0.48c0.04,0.28,0.09,0.56,0.13,0.83h-0.02
		c0.42,0.59-0.25,0.71-0.45,1.04c-0.31-0.34-0.59-0.34-0.89,0.06c0.12,0.02,0.94,0.63,1.07,0.69c0.75,0.36-0.4,0.87,0.1,1.26
		c-0.18-0.03-0.35-0.05-0.53-0.08c0.04,0.24,0.09,0.49,0.14,0.79c-0.4,0.08-0.58,0.34-0.14,0.77c-0.25,0.09-0.51,0.19-0.87,0.33
		c0.12,0.32,0.26,0.69,0.4,1.05c-0.06,0.03-0.11,0.07-0.17,0.1c-0.24-0.19-0.48-0.38-0.73-0.57c-0.05,0.02-0.1,0.03-0.15,0.05
		c0.17,0.51,0.33,1.02,0.5,1.53c0.15,0.06,0.3,0.11,0.45,0.17C63.48,28,63.48,28,63.44,27.2c0.64,0.24,1,0.07,1.23-0.62
		c0.16-0.47,0.68-0.81,0.99-1.24c0.34-0.48,0.79-0.91,0.85-1.55c-0.01,0-0.02-0.01-0.03-0.01c0.01,0,0.01,0,0.02,0
		c0.15,0.03,0.31,0.07,0.5,0.12c-0.08-0.4-0.15-0.72-0.21-1.03c0.25,0.14,0.46,0.54,0.79,0.07c0.02-0.03,0.27,0.09,0.42,0.14
		c0-0.29,0-0.59,0-0.92c0.21-0.09,0.41-0.17,0.63-0.27c0.02,0.1,0.05,0.17,0.03,0.2C68.42,22.44,69.04,22.99,68.4,23.25z
		 M59.04,35.18c-0.01-0.01-0.03-0.02-0.04-0.03c0.01-0.01,0.02-0.02,0.02-0.03C59.02,35.14,59.03,35.16,59.04,35.18z M52.98,87.22
		c-0.11,0.01-0.19,0.05-0.23,0.02c-0.26-0.2-0.44-0.42-0.02-0.76C52.82,86.76,52.9,86.98,52.98,87.22z M31.5,15.72
		c0.01-0.02,0.01-0.04,0.02-0.06c0,0.01,0,0.02,0.01,0.04C31.52,15.7,31.51,15.71,31.5,15.72z M32.15,17.66c0,0.02,0,0.04,0,0.07
		c-0.12-0.01-0.24-0.02-0.35-0.03c0-0.01,0-0.02,0-0.03C31.91,17.66,32.03,17.66,32.15,17.66z M31.96,14.68
		c0.04-0.03,0.07-0.09,0.11-0.09c0.06,0,0.12,0.04,0.18,0.07c-0.04,0.04-0.08,0.1-0.11,0.1C32.08,14.75,32.02,14.71,31.96,14.68z
		 M34.41,16.06c0.18-0.18,0.35-0.36,0.6-0.61c-0.03,0.26-0.05,0.45-0.07,0.66C34.74,16.08,34.57,16.07,34.41,16.06
		c0.05,0.45-0.32,0.34-0.55,0.39c-0.39,0.08-0.79,0.11-1.18,0.18c-0.07,0.01-0.13,0.14-0.25,0.28c0-0.35,0-0.63,0-0.95
		C33.06,16.57,33.74,15.99,34.41,16.06z M33.02,15.88l0.04-0.06l0.03,0.07L33.02,15.88z M34.27,15c0.03,0,0.07-0.01,0.09-0.01
		c0.02,0.01,0.04,0.04,0.05,0.06c-0.03,0.02-0.05,0.03-0.08,0.05C34.31,15.08,34.29,15.04,34.27,15z M33.83,22.01
		c1.01-0.2,1.01-0.2,1.14,0.44C34.52,22.27,34.18,22.14,33.83,22.01z M35.63,15.64c0.29-0.04,0.58-0.08,0.87-0.11
		c0.01,0.07,0.02,0.14,0.03,0.21c-0.29,0.05-0.58,0.11-0.87,0.16C35.65,15.8,35.64,15.72,35.63,15.64z M42.29,16.78
		c0.01-0.02,0.01-0.05,0.02-0.07c-0.01,0.02-0.03,0.03-0.04,0.05l0,0l0,0l0,0C42.27,16.77,42.29,16.79,42.29,16.78
		c-0.27-0.15-0.55-0.31-0.82-0.46c0.02-0.06,0.04-0.12,0.05-0.18c0.53,0.06,1.06,0.12,1.68,0.2C42.95,16.91,42.73,17.14,42.29,16.78
		z M43.53,18.23c-0.68-0.11-1.15-0.36-2.02-1.03C42.28,17.28,42.89,17.69,43.53,18.23z M40.57,16.73c0.15,0.08,0.3,0.16,0.45,0.24
		C40.82,16.99,40.6,17.05,40.57,16.73z M44.34,18.91c0.01,0,0.03,0,0.04,0c-0.02,0.01-0.04,0.02-0.06,0.03
		C44.33,18.94,44.34,18.93,44.34,18.91z M45.1,20.27c0.01,0,0.03,0,0.04,0c-0.01,0.01-0.02,0.01-0.03,0.02
		C45.11,20.29,45.1,20.28,45.1,20.27z M45.82,25.53c1.08,0.35,1.95-0.05,2.53-1.14c-0.02,0.01-0.05,0.01-0.07,0.02
		c0.01-0.01,0.03-0.03,0.04-0.04c0.5-0.34,0.6-0.82,0.27-1.43c-0.04-0.08-0.12-0.14-0.19-0.21c0.16-0.23,0.3-0.43,0.5-0.72
		c0.1,0.58,0.19,1.09,0.29,1.67c0.19-0.13,0.38-0.27,0.57-0.4c-0.02,0.25-0.06,0.5-0.04,0.75c0.03,0.31,0.22,0.48,0.71,0.32
		c-0.12,0.47-0.21,0.85-0.32,1.28c0.45-0.16,0.69-0.49,0.89-0.92c0.32-0.69,0.48-1.36-0.05-2.17c-0.09,0.35-0.16,0.63-0.23,0.91
		c-0.04,0-0.07,0-0.11-0.01c0-0.61,0-1.21,0-1.9c0.26,0.02,0.49-0.02,0.62,0.38c0.18,0.57,0.67,1.04,0.57,1.71
		c0.27-0.05,0.54-0.1,0.8-0.15c-0.12,0.44-0.26,0.87-0.35,1.31c-0.03,0.14,0.08,0.32,0.13,0.47l-0.03,0.03
		c0.02,0.01,0.04,0.02,0.06,0.03c-0.01-0.02-0.01-0.03-0.02-0.05c0.34-0.17,0.68-0.33,1.02-0.5c-0.06,0.11-0.13,0.22-0.2,0.33
		c0.72-0.62,0.76-1.51,0.89-2.36c0.03-0.21,0-0.43,0-0.74c0.47,0.32,0.21,0.75,0.4,1.15c0.11-0.28,0.21-0.51,0.31-0.75
		c0.11,0.05,0.21,0.08,0.21,0.1c-0.06,0.93-0.24,1.83-0.75,2.68c-0.02-0.24-0.05-0.47-0.08-0.78c-0.1,0.13-0.17,0.19-0.2,0.26
		c-0.22,0.65-0.22,0.65,0.37,1.32c0.21-0.44,0.41-0.85,0.62-1.28c0.14,0.09,0.25,0.15,0.35,0.22c0.28-0.49,0.56-0.97,0.95-1.65
		c-0.09,0.52-0.17,0.84-0.19,1.16c-0.01,0.2,0.09,0.41,0.14,0.61c0,0,0,0.01-0.01,0.01c-0.14,0.45-0.28,0.9-0.43,1.34
		c-0.07,0.2-0.28,0.39,0.03,0.55c0.21,0.88-0.07,1.43-1.02,1.95c-0.36-0.41-0.44,0.05-0.61,0.22c-0.27,0.16-0.54,0.32-0.95,0.55
		c0.46,0.28,0.79,0.47,1.21,0.73c-0.37,0.44-0.72,0.84-0.97,1.13c-0.6,0.08-0.68-0.97-1.32-0.22c0.21,0.14,0.39,0.26,0.6,0.4
		c-0.04,0.08-0.07,0.17-0.13,0.24c-0.04,0.05-0.15,0.07-0.16,0.12c-0.2,0.78-0.9,0.83-1.49,1.02c-0.09,0.03-0.24,0.15-0.26,0.13
		c-0.63-0.66-1.22-0.03-1.83,0.04c-0.45,0.05-0.92,0.14-1.36,0.07c-0.36-0.06-0.72-0.08-1.07-0.44c-0.32-0.33-1.03-0.29-1.76-0.45
		c1.13,1.19,2.36,1.53,3.73,1.54c0.94,0.01,1.87-0.05,2.78-0.39c0.34-0.13,0.72-0.13,1.09-0.18c-1.65,0.98-3.36,1.38-5.3,0.93
		c-2.59-0.6-3.93-2.43-4.68-4.7c-0.36-1.08-0.43-2.42,0.63-3.4c0.1-0.09,0.09-0.3,0.15-0.45c0.25-0.63,0.65-1.13,1.41-1.52
		c-0.32,0.7-0.57,1.25-0.82,1.79c0.3,0.15,0.56,0.28,0.92,0.46c-0.11-0.38-0.19-0.67-0.3-1.04c0.83-0.34,0.49-1.87,1.95-1.81
		c0.03,0.49,0.05,0.96,0.08,1.47c-0.27,0.05-0.49,0.1-0.76,0.15C45.71,25.4,45.75,25.51,45.82,25.53z M46.9,24.27
		c0.17-0.12,0.27-0.19,0.37-0.26c-0.03,0.1-0.04,0.2-0.08,0.29C47.18,24.31,47.08,24.29,46.9,24.27z M49.79,23.24
		c0.08-0.24,0.17-0.48,0.31-0.89C50.28,23.22,50.28,23.24,49.79,23.24z M51.76,21.79c0.05-0.03,0.1-0.05,0.15-0.08
		c0.08,0.14,0.18,0.27,0.22,0.42c0.05,0.15,0.04,0.32,0.05,0.48c-0.05,0.01-0.09,0.02-0.14,0.03
		C51.95,22.35,51.86,22.07,51.76,21.79z M52.63,23.4c0-0.19,0-0.39,0-0.58c0.05,0.01,0.1,0.02,0.15,0.02
		C52.73,23.03,52.68,23.21,52.63,23.4z M53.6,21.87c0.07,0.22,0.2,0.41,0.18,0.58c-0.09,0.78-0.23,1.55-0.35,2.32
		c-0.17-0.13-0.35-0.26-0.52-0.4c0.01,0,0.02-0.01,0.03-0.01C53.14,23.56,53.36,22.77,53.6,21.87z M53.1,22.32l0.06,0.01l-0.04,0.06
		L53.1,22.32z M55.17,23.61c0-0.15,0.06-0.29,0.1-0.44c0.05,0.01,0.09,0.01,0.14,0.02c0,0.26,0,0.52,0,0.77
		c-0.05,0.01-0.1,0.02-0.15,0.03C55.23,23.87,55.17,23.74,55.17,23.61z M56.4,30.83c-0.02,0-0.05,0-0.07,0
		C56.36,30.83,56.38,30.83,56.4,30.83c-0.01-0.14-0.01-0.27-0.02-0.41h0.01C56.4,30.56,56.4,30.69,56.4,30.83z M54.23,29.14
		c0.12,0,0.25,0,0.37,0c-0.12,0.14-0.25,0.29-0.37,0.43c-0.05-0.03-0.1-0.06-0.15-0.09C54.13,29.37,54.18,29.25,54.23,29.14z
		 M54.93,29.96c-0.08-0.06-0.15-0.12-0.23-0.18c0.17-0.24,0.34-0.47,0.58-0.81C55.58,29.67,55.09,29.72,54.93,29.96z M55,31.82
		c-0.39,0.31-0.78,0.63-1.16,0.94C54.1,32.13,54.32,31.98,55,31.82z M56.08,26.68c0.01-0.04,0.02-0.08,0.03-0.12
		c0.03,0.02,0.06,0.05,0.09,0.07C56.16,26.65,56.12,26.66,56.08,26.68z M55.97,31.07c0.01,0.05,0.01,0.11,0.02,0.16
		c-0.07,0.08-0.14,0.16-0.21,0.24c0.07-0.08,0.14-0.17,0.21-0.25C55.98,31.18,55.97,31.12,55.97,31.07z M56.67,29.49
		c0.01-0.27,0.05-0.53,0.41-0.5C56.95,29.16,56.81,29.32,56.67,29.49z M56.77,30.38c0,0.01-0.01,0.02-0.02,0.02
		c-0.01-0.01-0.01-0.01-0.02-0.02C56.75,30.38,56.76,30.38,56.77,30.38z M56.68,26.35c-0.07-0.06-0.17-0.11-0.2-0.18
		c-0.02-0.05,0.05-0.14,0.09-0.21c0.07,0.07,0.14,0.13,0.19,0.21C56.78,26.19,56.72,26.26,56.68,26.35z M56.61,29.6
		c-0.03,0.07-0.06,0.13-0.08,0.2c-0.02-0.02-0.04-0.04-0.07-0.06C56.51,29.69,56.56,29.64,56.61,29.6z M56.26,25.05
		c0.01-0.09,0.02-0.18,0.03-0.28c0.04,0.02,0.08,0.04,0.12,0.05C56.37,24.9,56.32,24.97,56.26,25.05z M53.1,32.77
		c-0.02,0.47-0.32,0.55-0.64,0.6C52.67,33.17,52.89,32.97,53.1,32.77z M58.24,25.33c-0.01,0.04-0.03,0.07-0.04,0.11
		c-0.08-0.07-0.15-0.14-0.23-0.21c0-0.15,0-0.3,0-0.44c0.02,0,0.04,0,0.06,0c-0.02,0.15-0.03,0.3-0.05,0.45
		C58.06,25.27,58.15,25.3,58.24,25.33z M59.87,16.28c0.04-0.03,0.08-0.06,0.12-0.1c0.03,0.06,0.05,0.11,0.08,0.17
		C60.01,16.33,59.94,16.3,59.87,16.28z M60.34,16.53c0.01,0.01,0.02,0.01,0.03,0.02l-0.03,0.04V16.53z M60.8,16.19
		c0.03,0.01,0.07,0.01,0.09,0.02s0.02,0.05,0.03,0.07c-0.03,0.01-0.05,0.03-0.08,0.04C60.82,16.28,60.81,16.24,60.8,16.19z
		 M61.59,16.14c-0.01-0.02,0.02-0.05,0.04-0.08c0.05,0.03,0.09,0.06,0.14,0.09c-0.03,0.04-0.05,0.08-0.08,0.13
		C61.65,16.23,61.61,16.19,61.59,16.14z M62.04,17.91c0.02,0,0.05,0,0.06,0.01c0.01,0.01,0.01,0.02,0.01,0.04
		C62.09,17.94,62.06,17.92,62.04,17.91z M62.63,16.68c-0.02-0.02-0.05-0.04-0.04-0.05c0.02-0.05,0.05-0.09,0.08-0.13
		c0.02,0.02,0.05,0.05,0.05,0.05C62.69,16.59,62.66,16.63,62.63,16.68z M62.66,17.45c-0.03,0.04-0.05,0.08-0.09,0.1
		c-0.02,0.01-0.08-0.01-0.08-0.02c-0.01-0.04,0-0.08,0.01-0.12C62.56,17.42,62.61,17.43,62.66,17.45z M62.62,16.15
		c-0.06-0.01-0.11-0.04-0.17-0.06c0.04-0.03,0.07-0.09,0.11-0.08c0.04,0,0.08,0.05,0.12,0.08C62.66,16.11,62.64,16.15,62.62,16.15z
		 M64.35,18.8c-0.53,0.15-0.85-0.17-1.22-0.53c0.15-0.09,0.28-0.16,0.41-0.23C63.69,18.42,64.07,18.55,64.35,18.8z M63.56,16.68
		c0-0.01,0.05-0.03,0.07-0.05c0.02,0.05,0.05,0.11,0.05,0.16c0,0.02-0.04,0.04-0.07,0.06C63.6,16.79,63.58,16.74,63.56,16.68z
		 M64.67,17.33c0.27,0.33,0.48,0.59,0.69,0.85c0,0,0,0,0,0.01c-0.15,0-0.33,0.04-0.45-0.02c-0.3-0.17-0.57-0.39-0.96-0.66
		C64.24,17.43,64.49,17.37,64.67,17.33z M64.2,15.84c0.16-0.02,0.32-0.04,0.49-0.06c0,0.05,0.01,0.1,0.01,0.15
		c-0.16,0.01-0.32,0.03-0.49,0.04C64.21,15.92,64.21,15.88,64.2,15.84z M68.09,19.33L68.09,19.33
		C68.06,19.31,68.04,19.29,68.09,19.33z M68.12,17.19c-0.14-0.01-0.27-0.02-0.41-0.03c0-0.06,0.01-0.11,0.01-0.17
		c0.14,0.01,0.27,0.02,0.41,0.03C68.12,17.08,68.12,17.13,68.12,17.19z M67.63,16.1c-0.03-0.05-0.09-0.15-0.08-0.15
		c0.1-0.07,0.22-0.14,0.33-0.2c0.03,0.05,0.06,0.09,0.08,0.14C67.85,15.96,67.74,16.03,67.63,16.1z M67.79,15.28
		c-0.1,0.01-0.2,0.02-0.3,0.03c0-0.04,0-0.09,0-0.13c0.1,0.01,0.2,0.03,0.31,0.04C67.8,15.22,67.8,15.28,67.79,15.28z M67.44,21.83
		c-0.01-0.19-0.02-0.39-0.03-0.58C67.68,21.47,67.66,21.66,67.44,21.83z M67.43,19.16c0,0-0.11,0-0.17,0
		c0.02-0.13,0.03-0.27,0.05-0.4c0.04,0,0.09,0.01,0.13,0.01C67.44,18.9,67.44,19.03,67.43,19.16z M66.79,22.83
		c-0.2,0.06-0.4,0.11-0.6,0.17c-0.03-0.05-0.07-0.11-0.1-0.16c0.32-0.31,0.64-0.61,0.96-0.92c0.02,0,0.04,0,0.05-0.01
		c-0.02,0-0.03,0.01-0.05,0.01c-0.02,0.1-0.01,0.21-0.04,0.31C66.95,22.44,66.86,22.63,66.79,22.83z M66.51,15.87
		c0.1,0.22,0.19,0.45,0.29,0.67c-0.04,0.03-0.08,0.05-0.12,0.08c-0.08-0.11-0.21-0.21-0.24-0.33
		C66.43,16.16,66.49,16.01,66.51,15.87z M66.72,18.1l-0.06-0.01l0.04-0.05L66.72,18.1z M66.68,19.69c0.02,0.35,0.05,0.7,0.07,1.04
		C66.43,20.44,66.28,20.12,66.68,19.69z M66.75,20.74C66.75,20.75,66.75,20.75,66.75,20.74c-0.14,0.4-0.15,0.4-0.73,0.09
		C66.25,20.57,66.5,20.6,66.75,20.74z M66.37,21.69L66.37,21.69c0,0.01-0.01,0.02-0.02,0.03C66.35,21.71,66.36,21.7,66.37,21.69z
		 M66.51,15.85c-0.44-0.01-0.93,0.33-1.45-0.22c0.62-0.11,1.14-0.21,1.76-0.33C66.67,15.58,66.59,15.72,66.51,15.85z M65.77,22.42
		c0.03-0.04,0.07-0.08,0.1-0.11c0.01,0.03,0.02,0.06,0.03,0.1C65.86,22.41,65.81,22.41,65.77,22.42z M65.87,19.14l-0.02-0.07
		l0.06,0.01L65.87,19.14z M63.43,22.54c0.39-0.17,0.69,0.03,1,0.22C64.09,22.69,63.76,22.62,63.43,22.54z M64.28,24.83
		c-0.01,0.03-0.02,0.07-0.03,0.12c-0.01-0.05-0.03-0.08-0.02-0.1C64.22,24.84,64.26,24.83,64.28,24.83z M64.17,26.2
		c-0.05,0.02-0.11,0.04-0.16,0.05c-0.02-0.03-0.04-0.07-0.07-0.1c0.06-0.01,0.11-0.02,0.17-0.01C64.13,26.14,64.15,26.18,64.17,26.2
		z M64.05,21.15c0.58-0.14,0.96-0.23,1.46-0.35c0.05,0.35,0.09,0.64,0.13,0.93c-0.35-0.34-0.57-0.7-1.08-0.34
		C64.49,21.43,64.31,21.28,64.05,21.15z M64.45,22.78C64.45,22.77,64.45,22.77,64.45,22.78c-0.01-0.08-0.01-0.15-0.01-0.18
		C64.44,22.62,64.45,22.7,64.45,22.78z M65.33,23.24c0,0.06,0.01,0.12,0.01,0.17c-0.21,0-0.42,0-0.63,0c0-0.03-0.01-0.06-0.01-0.08
		C64.91,23.3,65.12,23.27,65.33,23.24z M65.07,24.14c0.02,0.1,0.05,0.2,0.07,0.29c-0.07-0.08-0.14-0.16-0.22-0.23
		C64.97,24.18,65.02,24.16,65.07,24.14z M65.17,24.49c0.12,0.09,0.24,0.17,0.46,0.33C65.2,24.87,65.09,24.75,65.17,24.49z
		 M65.32,17.14c-0.04,0.03-0.08,0.07-0.13,0.09c-0.01,0.01-0.07-0.05-0.07-0.06c0.01-0.05,0.05-0.09,0.07-0.14
		C65.24,17.06,65.28,17.1,65.32,17.14z M68.32,21.03c-0.05-0.05-0.1-0.1-0.14-0.14c0.02-0.19,0.05-0.37,0.07-0.59
		c0.19,0.08,0.34,0.14,0.56,0.23C68.62,20.72,68.47,20.87,68.32,21.03z M70.7,14.86c-0.2-0.34-0.2-0.34,0.43-0.49
		C70.94,14.59,70.82,14.72,70.7,14.86z M70.11,18.79l0.02-0.07l0.03,0.07H70.11z M70.44,19.45c-0.08,0.13-0.16,0.26-0.23,0.39
		c-0.05-0.01-0.1-0.02-0.15-0.02c0.03-0.17,0.07-0.35,0.1-0.52C70.25,19.34,70.35,19.39,70.44,19.45z M69.78,14.87
		c-0.01-0.05-0.05-0.13-0.03-0.14c0.1-0.06,0.21-0.11,0.32-0.16c0.02,0.05,0.05,0.11,0.07,0.16C70.01,14.77,69.89,14.82,69.78,14.87
		z M69.89,16.11c-0.08,0.8-0.09,0.95-0.71,1.06C69.08,16.41,69.26,16.04,69.89,16.11z M69.16,17.18c-0.14,0.02-0.32,0.05-0.54,0.07
		c0.04-0.19,0.07-0.36,0.11-0.54C68.82,16.81,68.92,16.92,69.16,17.18z M69.11,20.72c0.05-0.02,0.1-0.04,0.15-0.05
		c0.01,0,0.04,0.04,0.06,0.06c-0.05,0.02-0.1,0.04-0.16,0.05C69.15,20.79,69.13,20.74,69.11,20.72z M69.5,21.76
		c-0.02,0.02-0.1-0.05-0.16-0.08c-0.05,0.19-0.11,0.38-0.16,0.56c-0.01,0.01-0.02,0.03-0.03,0.04c0-0.01,0-0.02,0-0.03
		c0.05-0.19,0.11-0.38,0.17-0.57c0.1-0.21,0.17-0.47,0.32-0.63c0.28-0.3,0.61-0.56,0.92-0.84C70.5,20.92,70.02,21.35,69.5,21.76z
		 M71.1,18.83c0.01-0.01,0.02-0.01,0.03-0.02c0,0,0,0,0,0.01C71.12,18.82,71.11,18.83,71.1,18.83z M71.37,16.91l-0.06-0.04
		l0.07-0.02L71.37,16.91z M71.72,17.89l0.04-0.05l0.02,0.06L71.72,17.89z M72.11,14.21l0.05,0.04l-0.01,0.01L72.11,14.21z
		 M72.54,13.06c0.03-0.01,0.05-0.01,0.06-0.02C72.59,13.04,72.56,13.05,72.54,13.06L72.54,13.06z M72.36,13.91
		c-0.07,0.11-0.14,0.23-0.2,0.34C72.04,14.02,72.19,13.95,72.36,13.91z M72.42,17.09c-0.04-0.07-0.09-0.13-0.08-0.16
		c0.01-0.05,0.08-0.1,0.13-0.11c0.04-0.01,0.09,0.04,0.14,0.07C72.55,16.95,72.49,17.02,72.42,17.09z M72.54,13.05
		c-0.03-0.15-0.06-0.31-0.11-0.59c-0.27,0.29-0.45,0.49-0.65,0.7c-0.11-0.12-0.22-0.25-0.32-0.37c-0.2,0.11-0.39,0.21-0.78,0.43
		c0.19,0.16,0.38,0.32,0.58,0.5c0.04-0.05,0.01,0.03-0.03,0.04c-0.52,0.11-1.03,0.21-1.55,0.3c-0.06,0.01-0.14-0.04-0.19-0.02
		c-1.36,0.6-2.77,0.86-4.27,0.86c-1.22,0-2.46,0.2-3.67,0.4c-1.63,0.28-3.29,0.17-4.93,0.38c-0.4,0.05-0.83-0.19-1.24-0.22
		c-0.38-0.03-0.76,0.06-1.14,0.03c-0.47-0.04-0.91-0.08-1.39,0.06c-1.41,0.4-2.83,0.18-4.26,0.05c-1.21-0.11-2.41-0.3-3.62-0.39
		c-0.56-0.04-1.14,0.09-1.71,0.14c-0.2,0.02-0.41,0.02-0.61,0c-2.22-0.19-4.44-0.34-6.64-0.63c-0.5-0.07-1.01-0.09-1.51-0.16
		c-0.33-0.05-0.79-0.04-0.95-0.25c-0.41-0.52-1.08-0.3-1.53-0.65c-0.07-0.05-0.35,0.17-0.57,0.28c-0.09-0.19-0.19-0.38-0.31-0.64
		c-0.39,0.74-0.84,0.37-1.27,0.2c0.01-0.22,0.02-0.41,0.03-0.6c-0.34-0.25-0.49,0.5-0.88,0.11c-0.14-0.14-0.55,0.04-0.83-0.01
		c-0.32-0.06-0.61-0.23-1.15-0.44c0.44-0.12,0.65-0.18,0.87-0.24c-0.47-0.99-1.08,0.33-1.64-0.21c0.16-0.12,0.29-0.22,0.49-0.37
		c-0.14-0.15-0.28-0.29-0.45-0.48c-0.22,0.2-0.4,0.37-0.58,0.53c-0.3-0.19-0.29-0.43-0.04-0.57c0.79-0.43,1.56-0.95,2.55-0.5
		c0.47,0.22,1,0.31,1.5,0.46c0.02-0.07,0.05-0.14,0.07-0.21c-0.44-0.17-0.88-0.34-1.31-0.51c0.01-0.07,0.03-0.13,0.04-0.2
		c0.38,0.04,0.76,0.06,1.13,0.13c1.36,0.23,2.71,0.53,4.08,0.71c1.4,0.18,2.81,0.28,4.22,0.38c2.08,0.14,4.16,0.31,6.24,0.35
		c2.26,0.05,4.52-0.06,6.77-0.06c1.25,0,2.49,0.1,3.74,0.12c1.55,0.02,3.1,0.04,4.64-0.01c1.08-0.03,2.15-0.19,3.22-0.28
		c0.33-0.03,0.67-0.05,0.87-0.06c0.18,0.31,0.31,0.52,0.43,0.74c0.13,0.23,0.25,0.46,0.38,0.69c0.29,0.55,0.49,1.18,1.2,1.61
		c0-0.31,0.07-0.64-0.01-0.69c-0.93-0.5-0.82-1.47-1.13-2.27c0.72-0.52,1.43-0.3,2.38,0.01c-0.62,0.06-1.01,0.1-1.49,0.15
		c0.31,0.34,0.64,0.22,0.95,0.2c0.86-0.06,0.87-0.05,1.11,0.89l0,0l0,0l-0.02-0.03c0,0,0,0,0,0.01c0,0,0,0.01,0.01,0.01
		c0.05,0.17,0.1,0.34,0.13,0.42c0.46,0.2,0.86,0.37,1.32,0.56c0.2-0.29,0.25-0.46-0.15-0.67c-0.73-0.38-0.72-0.41-0.68-1.32
		c2.17-0.45,4.34-0.9,6.5-1.36c-0.34,0.18-0.68,0.37-1.07,0.59c0.11,0.19,0.27,0.47,0.43,0.74c0,0.01-0.01,0.01-0.01,0.02
		c0-0.01,0-0.02,0-0.03c-0.22-0.02-0.44-0.03-0.66-0.05l0.03-0.03c-0.05-0.07-0.11-0.15-0.16-0.22c0.04,0.08,0.09,0.16,0.13,0.24
		C72.56,12.05,72.68,12.61,72.54,13.05z M72.96,16.06C72.96,16.06,72.97,16.06,72.96,16.06c0.01,0.04,0.03,0.08,0.04,0.12
		C72.99,16.14,72.98,16.1,72.96,16.06z M74.16,13.3c-0.01-0.03-0.04-0.06-0.03-0.07c0.01-0.02,0.05-0.03,0.07-0.05
		c0.03,0.01,0.05,0.03,0.08,0.04C74.24,13.25,74.2,13.27,74.16,13.3z M73.89,12.62c0.07-0.1,0.13-0.2,0.2-0.29
		c0.35-0.19,0.78-0.32,1.03-0.6c0.32-0.36,0.58-0.15,0.89-0.1c-0.36,0.21-0.72,0.42-1.09,0.62C74.6,12.41,74.28,12.56,73.89,12.62z
		 M75.23,12.98c-0.02,0.01-0.05,0.02-0.05,0.01c-0.01-0.02-0.02-0.05-0.03-0.07c0.03-0.01,0.06-0.01,0.1-0.02
		C75.24,12.92,75.24,12.95,75.23,12.98z M76,11.62L76,11.62c-0.03-0.14-0.06-0.29-0.09-0.43c0.04,0,0.09,0,0.13-0.01
		C76.03,11.33,76.02,11.48,76,11.62z M76.34,9.8c0.39-0.18,0.64-0.29,1.04-0.47C77.17,9.95,77.03,10.28,76.34,9.8z M75.24,9.42
		c0.7-0.63,1.64-0.7,2.49-1.02C77.04,9.05,76.29,9.58,75.24,9.42z M77.33,6.39c0.1-0.39,0.29-0.36,0.52-0.21l0,0
		C77.69,6.25,77.53,6.32,77.33,6.39z M77.86,6.18C77.82,6,77.78,5.83,77.74,5.65c0.04-0.01,0.08-0.01,0.12-0.02
		C77.86,5.82,77.86,6,77.86,6.18z M76.79,3.96c-0.14-0.18-0.07-0.51-0.1-0.78c0.08-0.03,0.16-0.06,0.23-0.1
		c0.3,0.31,0.59,0.61,0.94,0.97C77.35,4.4,77,4.24,76.79,3.96z M78,7.22C77.96,7.11,77.92,7,77.87,6.9c0.1,0.05,0.19,0.1,0.29,0.15
		C78.11,7.1,78.05,7.16,78,7.22z"/>
	<path class="st0" d="M37.78,28.72L37.78,28.72c0.01,0.01,0.02,0.02,0.03,0.03L37.78,28.72z"/>
	<path class="st0" d="M51.78,23.65c0,0.02,0,0.04,0,0.05c0.01-0.01,0.02-0.02,0.02-0.04C51.8,23.66,51.79,23.66,51.78,23.65
		l0.02,0.02c0-0.01,0-0.01,0-0.02C51.79,23.64,51.79,23.64,51.78,23.65L51.78,23.65z"/>
	<path class="st0" d="M63.14,24.48c0.01,0,0.02,0,0.03,0c0-0.01,0-0.02-0.01-0.03C63.17,24.45,63.14,24.48,63.14,24.48z"/>
	<path class="st0" d="M52.96,24.35c-0.01,0-0.02,0.01-0.03,0.01c0,0.01-0.01,0.02-0.01,0.03C52.93,24.38,52.95,24.36,52.96,24.35z"
		/>
	<path class="st0" d="M35.37,17.01L35.37,17.01L35.37,17.01z"/>
	<path class="st0" d="M60.61,95.56c0.83-0.27,1.67-0.55,2.45-0.93c1.06-0.53,1.18-1.4,0.43-2.32c-0.4-0.49-0.91-0.8-1.52-0.93
		c-0.82-0.17-1.65-0.32-2.48-0.46c-0.19-0.03-0.4,0.04-0.6,0.07c0,0.06,0,0.12,0.01,0.17c0.55,0.14,1.11,0.29,1.69,0.44
		c-0.17,0.1-0.31,0.17-0.56,0.32c0.26,0.1,0.4,0.16,0.54,0.2c0.45,0.12,0.93,0.18,1.36,0.37c0.71,0.31,0.77,0.78,0.23,1.33
		c-0.21,0.21-0.44,0.39-0.66,0.59c0.41-0.01,0.71-0.15,0.97-0.35c0.61-0.47,0.66-0.94,0.19-1.55c-0.09-0.12-0.19-0.25-0.28-0.37
		c0.7-0.04,0.96,0.5,1.14,1.02c0.19,0.54-0.26,0.86-0.64,1.15c-0.13,0.1-0.29,0.17-0.44,0.24c-2.16,1-4.47,1.4-6.82,1.57
		c-0.61,0.04-1.23,0.1-1.84,0.16C56.08,96.43,58.38,96.28,60.61,95.56z M61.55,91.85c-0.02,0-0.04-0.03-0.07-0.05
		c0.03-0.01,0.06-0.03,0.08-0.03s0.04,0.03,0.06,0.05C61.6,91.84,61.57,91.86,61.55,91.85z M62.19,91.96
		c0.03,0.04,0.06,0.08,0.08,0.13c-0.05-0.03-0.11-0.06-0.16-0.09C62.14,91.99,62.19,91.96,62.19,91.96z"/>
	<path class="st0" d="M40.26,92.16c-0.13,0.1-0.22,0.26-0.3,0.4c-0.3,0.51-0.27,0.96,0.13,1.39c0.16,0.18,0.45,0.35,0.67,0.34
		c0.34-0.02,0.47-0.33,0.47-0.67c-0.02-0.98,0.53-1.68,1.26-2.18c0.6-0.41,1.31-0.66,2-0.93c0.45-0.18,0.94-0.26,1.41-0.39
		c-0.02-0.08-0.05-0.16-0.07-0.24C43.69,89.96,41.89,90.85,40.26,92.16z M40.72,93.79c-0.52-0.32-0.64-0.62-0.34-1.08
		c0.21-0.33,0.52-0.58,0.79-0.87C41.02,92.48,40.87,93.13,40.72,93.79z"/>
	<path class="st0" d="M48.86,92.79c-0.6,0.7-1.39,1.24-2.1,1.85c0.65,0.62,0.81,0.65,1.37,0.22c1.29-0.99,1.85-2.44,2.4-3.89
		c0.05-0.12-0.04-0.29-0.06-0.44c-0.06-0.02-0.13-0.04-0.19-0.06C49.82,91.25,49.44,92.11,48.86,92.79z M47.26,94.72
		c0.54-0.48,0.97-0.86,1.4-1.25C48.47,94.26,48.27,94.45,47.26,94.72z M48.7,93.5c-0.01-0.01-0.02-0.03-0.03-0.04
		c0.01-0.01,0.02-0.02,0.03-0.03C48.7,93.46,48.7,93.48,48.7,93.5z"/>
	<path class="st0" d="M43.27,34.67c0.63,2.17,3.8,4.03,5.61,3.5c-0.98-0.38-1.98-0.81-3-1.16C44.76,36.62,44.24,35.54,43.27,34.67z"
		/>
	<path class="st0" d="M64.52,93.48c-0.03,0.13-0.05,0.26-0.09,0.48c0.44-0.31,0.8-0.53,1.11-0.81c0.34-0.3,0.3-0.62-0.14-0.93
		c-0.09,0.26-0.15,0.46-0.28,0.85c-0.61-1.64-2.61-2.82-3.47-2.26c0.68,0.32,1.41,0.59,2.07,0.98
		C64.33,92.15,64.73,92.69,64.52,93.48z"/>
	<path class="st0" d="M37.78,28.72l0.03,0.03c0-0.01,0.01-0.03,0.01-0.04C37.81,28.72,37.8,28.72,37.78,28.72z"/>
	<path class="st0" d="M38.65,29.25c0.54,0.63,1.09,1.26,1.66,1.86c0.14,0.14,0.37,0.19,0.66,0.34c0.03-0.92-0.75-1.14-1.07-1.66
		c-0.31-0.51-0.95-0.77-1.09-1.44c-0.35,0.07-0.88-0.32-1,0.37C38.26,28.63,38.42,28.98,38.65,29.25z"/>
	<path class="st0" d="M51.76,63.65c0-2.04,0-3.9,0-5.76c-0.11,0-0.22-0.01-0.34-0.01c0,0.62-0.01,1.23-0.01,1.85
		c0,0.67,0,1.35,0.03,2.02C51.48,62.32,51.25,62.96,51.76,63.65z"/>
	<path class="st0" d="M61.57,27.99c-0.07-0.34-0.13-0.65-0.19-0.97c-0.06-0.01-0.13-0.01-0.19-0.02c-0.2,0.5-0.46,0.98-0.6,1.49
		s-0.16,1.06-0.22,1.56c0.3,0.2,0.57,0.39,0.86,0.59c-0.08-0.82-0.16-1.54-0.23-2.32C61.16,28.23,61.36,28.12,61.57,27.99z"/>
	<path class="st0" d="M52.63,44.9c-0.08-0.71,0.3-1.45-0.12-2.38c-0.11,0.39-0.17,0.59-0.24,0.82c-0.04-0.21-0.06-0.37-0.11-0.53
		c-0.01-0.04-0.11-0.05-0.23-0.11c-0.28,0.87-0.15,1.73-0.16,2.61C52.12,45.15,52.35,45.04,52.63,44.9z"/>
	<path class="st0" d="M50.08,38.21c1.25,0.26,3.17,0.09,3.89-0.49c-1.43,0.09-2.65,0.16-3.88,0.24
		C50.09,38.04,50.08,38.12,50.08,38.21z"/>
	<path class="st0" d="M51.41,88.27c-0.14,1.37-0.4,2.76,0.49,3.95C51.74,90.91,51.57,89.59,51.41,88.27z"/>
	<path class="st0" d="M51.92,48.01c-0.37,0.89-0.41,2.64-0.08,3.46C51.98,50.4,52.05,49.33,51.92,48.01z"/>
	<path class="st0" d="M33.7,19.91c0.07,0.31,0.15,0.63,0.2,0.84c0.6,0,0.98,0,1.58,0c-0.64-0.4-1.11-0.69-1.57-0.98
		C33.84,19.81,33.77,19.86,33.7,19.91z"/>
	<path class="st0" d="M38.16,92.94c-0.55,0.95-0.28,1.41,1.04,1.62C38.44,94.17,37.79,93.86,38.16,92.94z"/>
	<path class="st0" d="M61.43,26.26c0.4-0.23,0.8-0.45,1.2-0.67C61.62,25.45,61.44,25.58,61.43,26.26z"/>
	<path class="st0" d="M58.64,32.67c0.24,0.75,0.32,0.85,0.59,0.72c-0.04-0.2-0.09-0.4-0.14-0.64c0.22,0.06,0.38,0.1,0.6,0.16
		C59.3,32.32,59.3,32.32,58.64,32.67z"/>
	<path class="st0" d="M64.21,20.46c-0.52-0.8-0.77-0.84-1.38-0.34C63.24,20.22,63.64,20.32,64.21,20.46z"/>
	<path class="st0" d="M47.11,16.53c0.84,0.5,0.89,0.51,1.51,0.1C48.03,16.59,47.57,16.56,47.11,16.53z"/>
	<path class="st0" d="M63.14,24.48l0.03-0.02c-0.01-0.01-0.02-0.02-0.03-0.03C63.14,24.45,63.14,24.46,63.14,24.48z"/>
	<path class="st0" d="M62.26,23.59c0.37,0.35,0.63,0.59,0.89,0.84C63.14,23.64,63.12,23.64,62.26,23.59z"/>
	<path class="st0" d="M59.22,30.88c0.12,0.89,0.12,0.89,0.97,0.94c-0.39-0.38-0.69-0.67-0.98-0.96L59.22,30.88z"/>
	<path class="st0" d="M61.25,25.38c0.19-0.3,0.33-0.5,0.6-0.91c-0.53,0.06-0.95-0.14-0.88,0.46C60.99,25.06,61.12,25.17,61.25,25.38
		z"/>
	<path class="st0" d="M51.94,17.4c0.2-0.24,0.33-0.38,0.48-0.55c-0.24-0.06-0.47-0.12-0.87-0.22C51.72,16.98,51.82,17.17,51.94,17.4
		z"/>
	<path class="st0" d="M41.17,28.94c-0.33,0.08-0.65,0.16-0.98,0.24c0.03,0.09,0.07,0.18,0.1,0.27c0.32-0.09,0.63-0.17,0.95-0.26
		C41.22,29.11,41.19,29.03,41.17,28.94z"/>
	<path class="st0" d="M38.98,19.46c0.05,0.32,0.1,0.64,0.16,1.06C39.62,19.99,39.16,19.75,38.98,19.46z"/>
	<path class="st0" d="M61.48,28.58c-0.33,0.1-0.24,0.31,0.05,0.61c0.2-0.22,0.39-0.42,0.58-0.63C61.9,28.55,61.67,28.51,61.48,28.58
		z"/>
	<path class="st0" d="M62.11,28.56c0.02,0,0.03,0,0.05,0l0,0c0-0.01,0-0.01-0.01-0.02c-0.01,0-0.01,0-0.02-0.01
		C62.12,28.54,62.12,28.55,62.11,28.56z"/>
	<path class="st0" d="M36.94,25.47l0.03-0.03c0.29,0.06,0.55,0.52,0.97,0.04C37.55,25.3,37.28,24.79,36.94,25.47z"/>
	<path class="st0" d="M59.73,30.63c0.26,0.23,0.45,0.41,0.65,0.58c0.05-0.05,0.1-0.1,0.15-0.15C60.29,30.59,60.29,30.59,59.73,30.63
		z"/>
	<path class="st0" d="M58.55,94.39c0.22,0.02,0.45,0.03,0.67,0.05l0,0v-0.01c0,0-0.01,0-0.01,0.01
		C58.99,94.42,58.77,94.4,58.55,94.39L58.55,94.39L58.55,94.39c-0.4,0.17-0.8,0.35-1.33,0.58C57.82,94.9,58.42,95.21,58.55,94.39z"
		/>
	<path class="st0" d="M51.61,56.28c0.04,0,0.08,0,0.12,0c0-0.47,0-0.94,0-1.41c-0.04,0-0.08,0-0.12,0
		C51.61,55.34,51.61,55.81,51.61,56.28z"/>
	<path class="st0" d="M61.34,29.47c0.08,0.2,0.15,0.4,0.23,0.6c0.09-0.03,0.17-0.07,0.26-0.1c-0.09-0.2-0.18-0.39-0.27-0.59
		C61.49,29.41,61.42,29.44,61.34,29.47z"/>
	<path class="st0" d="M65.2,19.69c-0.35,0-0.61,0-1.1,0C64.61,20.07,64.88,20.11,65.2,19.69z"/>
	<path class="st0" d="M53.93,17.43c0.19-0.24,0.31-0.41,0.52-0.67c-0.4,0.06-0.66,0.1-1.17,0.19
		C53.59,17.17,53.72,17.26,53.93,17.43z"/>
	<path class="st0" d="M50.73,16.86l-0.01,0.01c0.13,0.14,0.26,0.27,0.42,0.44c0.07-0.24,0.14-0.46,0.21-0.69
		C51.03,16.54,50.76,16.43,50.73,16.86z"/>
	<path class="st0" d="M51.33,96.19c-0.2-0.06-0.39-0.11-0.59-0.17c-0.01,0.06-0.01,0.12-0.02,0.17c0.19,0.04,0.39,0.08,0.58,0.12
		C51.31,96.27,51.32,96.23,51.33,96.19z"/>
	<path class="st0" d="M45,17.63c0.11,0.24,0.23,0.48,0.34,0.73c0.08-0.05,0.16-0.1,0.25-0.15c-0.15-0.22-0.3-0.45-0.45-0.67
		C45.09,17.57,45.04,17.6,45,17.63z"/>
	<path class="st0" d="M35.69,18.59c-0.46,0.21-0.31,0.45-0.18,0.68l-0.02,0.01c0.12,0.03,0.24,0.05,0.46,0.1
		C35.85,19.07,35.77,18.85,35.69,18.59z"/>
	<path class="st0" d="M43.13,92.45c0.07,0.05,0.14,0.09,0.21,0.14c0.13-0.23,0.25-0.45,0.38-0.68c-0.05-0.03-0.1-0.07-0.16-0.1
		C43.42,92.03,43.27,92.24,43.13,92.45z"/>
	<path class="st0" d="M57.9,35.06c-0.13-0.16-0.25-0.29-0.48-0.56C57.36,35.2,57.36,35.2,57.9,35.06z"/>
	<path class="st0" d="M62.44,20.42c-0.66-0.01-0.59,0.24-0.24,0.81C62.31,20.86,62.37,20.67,62.44,20.42z"/>
	<path class="st0" d="M62.19,22.24c0.21-0.26,0.36-0.44,0.57-0.71C62.16,21.49,62.03,21.68,62.19,22.24z"/>
	<path class="st0" d="M56.67,19.2c0.27-0.17,0.46-0.29,0.64-0.4C56.89,18.61,56.71,18.74,56.67,19.2z"/>
	<path class="st0" d="M34.83,18.6c-0.34,0.02-0.55,0.03-0.75,0.04c-0.01,0.05-0.02,0.09-0.03,0.14c0.16,0.08,0.31,0.17,0.47,0.25
		C34.6,18.92,34.68,18.81,34.83,18.6z"/>
	<path class="st0" d="M53.28,94.68c0-0.05,0-0.09,0-0.14c-0.22-0.03-0.44-0.06-0.66-0.09c-0.01,0.06-0.03,0.12-0.04,0.18
		c0.1,0.03,0.21,0.09,0.31,0.09C53.01,94.74,53.15,94.7,53.28,94.68z"/>
	<path class="st0" d="M54.31,37.74c0.02,0.07,0.05,0.14,0.07,0.21c0.19-0.05,0.38-0.09,0.57-0.14c-0.03-0.09-0.07-0.18-0.1-0.27
		C54.67,37.6,54.49,37.67,54.31,37.74z"/>
	<path class="st0" d="M53.07,17.83c-0.08,0.06-0.12,0.18-0.18,0.27c0.09,0.02,0.18,0.08,0.26,0.06c0.07-0.02,0.11-0.12,0.19-0.22
		C53.22,17.89,53.1,17.81,53.07,17.83z"/>
	<path class="st0" d="M40.23,18.13c-0.14-0.04-0.28-0.08-0.42-0.11c-0.02,0.08-0.04,0.16-0.06,0.23c0.14,0.02,0.27,0.04,0.41,0.05
		C40.18,18.3,40.2,18.19,40.23,18.13z"/>
	<path class="st0" d="M38.42,26.62c-0.09-0.08-0.16-0.17-0.26-0.22c-0.08-0.04-0.19-0.01-0.28-0.01c-0.01,0.05-0.01,0.11-0.02,0.16
		c0.16,0.07,0.32,0.13,0.49,0.2C38.36,26.7,38.39,26.66,38.42,26.62z"/>
	<path class="st0" d="M60.23,90.3c-0.17-0.04-0.35-0.07-0.52-0.11c-0.01,0.07-0.03,0.13-0.04,0.2c0.18,0.03,0.35,0.05,0.53,0.08
		C60.21,90.41,60.22,90.35,60.23,90.3z"/>
	<path class="st0" d="M42.68,18.63c-0.19,0.01-0.38,0.03-0.64,0.05C42.44,18.96,42.46,18.96,42.68,18.63z"/>
	<path class="st0" d="M56.82,89.99c-0.01-0.08-0.02-0.16-0.02-0.24c-0.16,0.03-0.32,0.06-0.48,0.09c0.01,0.05,0.02,0.1,0.02,0.15
		C56.5,89.99,56.66,89.99,56.82,89.99z"/>
	<path class="st0" d="M38.58,24.52c-0.1-0.02-0.21,0.03-0.41,0.06c0.14,0.13,0.2,0.23,0.27,0.25c0.1,0.02,0.21-0.03,0.41-0.06
		C38.71,24.63,38.66,24.53,38.58,24.52z"/>
	<path class="st0" d="M40.82,19.4c-0.01-0.06-0.03-0.12-0.04-0.18c-0.15,0.04-0.3,0.08-0.45,0.12c0.02,0.06,0.05,0.16,0.07,0.16
		C40.54,19.48,40.68,19.44,40.82,19.4z"/>
	<path class="st0" d="M60.6,20.33c0.02,0.01,0.1-0.14,0.19-0.26c-0.13-0.07-0.24-0.14-0.35-0.16c-0.04-0.01-0.15,0.19-0.14,0.21
		C60.38,20.21,60.49,20.28,60.6,20.33z"/>
	<path class="st0" d="M55.62,20.64c0.06,0.01,0.11,0.03,0.17,0.04c0.07-0.18,0.14-0.36,0.2-0.54c-0.09-0.03-0.17-0.05-0.26-0.08
		C55.7,20.26,55.66,20.45,55.62,20.64z"/>
	<path class="st0" d="M36.07,20.41c-0.12,0-0.27-0.05-0.34,0.01c-0.09,0.07-0.1,0.23-0.23,0.55c0.34-0.19,0.48-0.27,0.62-0.35
		C36.11,20.55,36.09,20.48,36.07,20.41z"/>
	<path class="st0" d="M51.56,67.81c0,0.04,0.1,0.07,0.16,0.1c0.02-0.19,0.04-0.38,0.06-0.58c-0.07,0-0.13-0.01-0.2-0.01
		C51.57,67.48,51.55,67.64,51.56,67.81z"/>
	<path class="st0" d="M51.6,65.04c-0.03,0.11-0.1,0.23-0.09,0.34c0.02,0.13,0.11,0.25,0.16,0.38c0.06-0.02,0.12-0.04,0.18-0.06
		c-0.03-0.22-0.06-0.44-0.09-0.66C51.71,65.04,51.66,65.04,51.6,65.04z"/>
	<path class="st0" d="M36.07,21.91L36.07,21.91L36.07,21.91c-0.01,0.23-0.03,0.45-0.04,0.68c0.08-0.01,0.16-0.02,0.24-0.03
		C36.2,22.35,36.14,22.13,36.07,21.91L36.07,21.91L36.07,21.91L36.07,21.91z"/>
	<path class="st0" d="M36.07,21.91c0.23,0.12,0.46,0.25,0.69-0.21C36.47,21.79,36.27,21.85,36.07,21.91z"/>
	<path class="st0" d="M34.84,19.84c0.07,0.07,0.14,0.15,0.22,0.24c0.11-0.1,0.17-0.16,0.23-0.21c-0.09-0.07-0.16-0.16-0.26-0.19
		C34.99,19.67,34.9,19.79,34.84,19.84z"/>
	<path class="st0" d="M48.48,19.69c0.12,0.12,0.23,0.24,0.35,0.37c0.04-0.04,0.08-0.08,0.13-0.12c-0.12-0.12-0.23-0.25-0.35-0.37
		C48.56,19.6,48.52,19.65,48.48,19.69z"/>
	<path class="st0" d="M34.05,19.37c-0.02,0.02,0.05,0.15,0.06,0.15c0.11-0.02,0.23-0.03,0.31-0.1c0.05-0.05,0.05-0.15,0.07-0.24
		c-0.08,0.01-0.17,0-0.24,0.03C34.17,19.24,34.1,19.31,34.05,19.37z"/>
	<path class="st0" d="M34.49,19.18c0.01,0,0.02,0,0.03,0l-0.03-0.02C34.5,19.17,34.49,19.17,34.49,19.18z"/>
	<path class="st0" d="M56.1,36.21c0.08,0.08,0.18,0.15,0.27,0.22c0.05-0.06,0.1-0.12,0.15-0.18c-0.12-0.06-0.24-0.13-0.36-0.19
		C56.14,36.11,56.09,36.19,56.1,36.21z"/>
	<path class="st0" d="M42.35,33.9c0.06,0.14,0.12,0.28,0.18,0.42c0.05-0.02,0.09-0.03,0.14-0.05c-0.05-0.15-0.1-0.29-0.15-0.44
		C42.46,33.86,42.4,33.88,42.35,33.9z"/>
	<path class="st0" d="M35.15,18.14c-0.03-0.08-0.06-0.15-0.09-0.23c-0.16,0.07-0.31,0.14-0.47,0.21c0.02,0.06,0.05,0.12,0.07,0.18
		C34.83,18.25,34.99,18.19,35.15,18.14z"/>
	<path class="st0" d="M41.12,31.99c0.08,0.08,0.16,0.15,0.23,0.23c0.05-0.07,0.1-0.14,0.17-0.24c-0.08-0.06-0.15-0.16-0.21-0.15
		C41.25,31.84,41.19,31.94,41.12,31.99z"/>
	<path class="st0" d="M46.42,16.75c0.04,0.02,0.14-0.06,0.3-0.13c-0.18-0.09-0.27-0.16-0.38-0.2c-0.04-0.01-0.1,0.06-0.15,0.09
		C46.26,16.59,46.33,16.7,46.42,16.75z"/>
	<path class="st0" d="M58.15,17.35c0.05,0.13,0.09,0.27,0.14,0.4c0.05-0.01,0.1-0.02,0.15-0.03c-0.02-0.14-0.03-0.29-0.05-0.43
		C58.31,17.31,58.23,17.33,58.15,17.35z"/>
	<path class="st0" d="M58.26,34.01c-0.02,0.08,0.03,0.18,0.05,0.27c0.07-0.03,0.2-0.05,0.21-0.09c0.03-0.1-0.01-0.22-0.02-0.44
		C58.36,33.89,58.27,33.95,58.26,34.01z"/>
	<path class="st0" d="M56.17,34.9C56.17,34.83,56.16,34.77,56.17,34.9L56.17,34.9z"/>
	<path class="st0" d="M47.57,37.02c0.03-0.05,0.06-0.09,0.12-0.18c-0.09-0.06-0.19-0.13-0.28-0.19c-0.03,0.05-0.09,0.12-0.08,0.14
		C47.4,36.88,47.48,36.95,47.57,37.02z"/>
	<path class="st0" d="M41.35,24.53c-0.05-0.08-0.08-0.14-0.12-0.19c-0.06,0.06-0.14,0.11-0.17,0.19c-0.02,0.04,0.05,0.11,0.08,0.17
		C41.22,24.64,41.29,24.58,41.35,24.53z"/>
	<path class="st0" d="M39.7,24.42c-0.01,0.07,0.02,0.15,0.03,0.23c0.09-0.03,0.19-0.06,0.19-0.08c-0.01-0.07-0.05-0.15-0.08-0.22
		C39.79,24.38,39.7,24.39,39.7,24.42z"/>
	<path class="st0" d="M38.91,23.07c-0.02,0.01,0.03,0.15,0.04,0.15c0.08-0.01,0.16-0.04,0.24-0.06c-0.03-0.09-0.05-0.14-0.07-0.2
		C39.05,22.99,38.97,23.02,38.91,23.07z"/>
	<path class="st0" d="M37.37,22.42c-0.04-0.04-0.08-0.08-0.12-0.13c-0.06,0.02-0.11,0.05-0.17,0.07c0.03,0.06,0.06,0.11,0.09,0.17
		C37.24,22.49,37.3,22.46,37.37,22.42z"/>
	<path class="st0" d="M61.44,22.09c0.1,0.05,0.21,0.09,0.31,0.13c0.02-0.04,0.04-0.09,0.06-0.13c-0.12-0.05-0.24-0.11-0.35-0.16
		C61.45,21.98,61.42,22.08,61.44,22.09z"/>
	<path class="st0" d="M63.21,21.49L63.21,21.49l0.01,0.01l0,0l0,0c0.22,0,0.44,0,0.65,0.01c0,0,0.02,0,0.01,0
		C63.66,21.5,63.43,21.49,63.21,21.49L63.21,21.49z"/>
	<path class="st0" d="M63.04,21.13c0.06,0.12,0.11,0.23,0.17,0.35c0-0.13,0-0.26,0-0.39C63.16,21.11,63.1,21.12,63.04,21.13z"/>
	<path class="st0" d="M61.36,21.25c-0.04-0.09-0.09-0.19-0.13-0.28c-0.01,0.1-0.02,0.2-0.03,0.3
		C61.25,21.26,61.31,21.25,61.36,21.25z"/>
	<path class="st0" d="M61.23,20.97c0-0.01,0-0.02,0-0.03h-0.02l0,0H61.2c-0.03,0.01-0.05,0.02-0.07,0.03
		c0.03-0.01,0.05-0.02,0.08-0.03C61.22,20.95,61.23,20.96,61.23,20.97z"/>
	<path class="st0" d="M36.88,20.88c-0.08,0.03-0.14,0.12-0.25,0.22c0.1,0.06,0.18,0.14,0.23,0.12c0.08-0.03,0.13-0.12,0.19-0.19
		C37,20.98,36.92,20.87,36.88,20.88z"/>
	<path class="st0" d="M57.7,20.5c0.06,0.06,0.11,0.12,0.17,0.18c0.05-0.06,0.1-0.13,0.15-0.19c-0.06-0.03-0.11-0.05-0.17-0.08
		C57.79,20.45,57.75,20.48,57.7,20.5z"/>
	<path class="st0" d="M36.64,20.33c0.1-0.06,0.21-0.12,0.31-0.18c-0.02-0.04-0.04-0.08-0.05-0.12c-0.1,0.04-0.2,0.07-0.3,0.13
		C36.59,20.17,36.63,20.27,36.64,20.33z"/>
	<path class="st0" d="M51.93,46.7c-0.04-0.04-0.08-0.08-0.11-0.11c-0.05,0.02-0.14,0.04-0.15,0.07c-0.01,0.05,0.04,0.11,0.06,0.16
		C51.79,46.78,51.86,46.74,51.93,46.7z"/>
	<path class="st0" d="M62.91,19.34c-0.07-0.03-0.14-0.07-0.21-0.08c-0.03,0-0.09,0.12-0.08,0.13c0.05,0.06,0.12,0.09,0.19,0.14
		C62.84,19.48,62.86,19.43,62.91,19.34z"/>
	<path class="st0" d="M50.7,18.52c-0.06-0.02-0.12-0.05-0.17-0.07c-0.02,0.05-0.08,0.12-0.06,0.15c0.03,0.04,0.11,0.09,0.15,0.07
		C50.66,18.66,50.67,18.57,50.7,18.52z"/>
	<path class="st0" d="M58.01,18.38c-0.03-0.05-0.04-0.12-0.08-0.13c-0.05-0.01-0.11,0.02-0.17,0.04c0.04,0.06,0.08,0.13,0.11,0.19
		C57.92,18.44,57.96,18.41,58.01,18.38z"/>
	<path class="st0" d="M48.19,18.34c0.03,0.06,0.06,0.11,0.09,0.17c0.06-0.02,0.14-0.03,0.17-0.08c0.02-0.03-0.02-0.11-0.04-0.17
		C48.34,18.29,48.26,18.32,48.19,18.34z"/>
	<path class="st0" d="M56.98,18.02c-0.02-0.05-0.05-0.09-0.08-0.14c-0.04,0.04-0.07,0.08-0.11,0.12c0.05,0.03,0.09,0.07,0.14,0.09
		C56.93,18.09,56.98,18.03,56.98,18.02z"/>
	<path class="st0" d="M36.48,17.59c-0.03-0.05-0.04-0.12-0.08-0.13c-0.04-0.01-0.1,0.04-0.15,0.06c0.03,0.06,0.07,0.13,0.1,0.19
		C36.4,17.67,36.44,17.63,36.48,17.59z"/>
	<path class="st0" d="M49.64,17.37c0.06,0.06,0.14,0.11,0.21,0.16c0.03-0.05,0.06-0.11,0.1-0.2c-0.08-0.04-0.15-0.08-0.23-0.1
		C49.71,17.23,49.63,17.36,49.64,17.37z"/>
	<path class="st0" d="M38.25,17.09c-0.15-0.25-0.25-0.42-0.34-0.59C37.86,16.73,37.71,16.99,38.25,17.09z"/>
	<path class="st0" d="M35.37,17.01L35.37,17.01L35.37,17.01z"/>
	<path class="st0" d="M35.46,17.74L35.46,17.74c0.01,0,0.01,0,0.02,0C35.47,17.74,35.46,17.74,35.46,17.74
		c-0.03-0.25-0.06-0.49-0.09-0.74C35.15,17.28,35.03,17.55,35.46,17.74z"/>
	<path class="st0" d="M59.78,94.01L59.78,94.01L59.78,94.01c-0.03-0.02-0.04-0.02-0.05-0.03C59.75,93.99,59.77,94,59.78,94.01
		l-0.01,0.01c0.01,0,0.02,0,0.03,0.01L59.78,94.01z"/>
	<path class="st0" d="M59.22,94.43c0.18-0.14,0.37-0.27,0.55-0.41C59.41,93.9,59.2,94.01,59.22,94.43z"/>
	<path class="st0" d="M52.21,96.25C52.15,96.26,52.09,96.26,52.21,96.25C52.09,96.27,52.15,96.26,52.21,96.25z"/>
	<path class="st0" d="M51.77,52.88c0.01-0.05-0.03-0.12-0.04-0.18c-0.07,0.04-0.13,0.09-0.2,0.13c0.03,0.05,0.07,0.09,0.1,0.14
		C51.68,52.95,51.76,52.92,51.77,52.88z"/>
	<path class="st0" d="M52.37,37.07c0.05-0.03,0.07-0.1,0.11-0.16c-0.06-0.02-0.12-0.05-0.18-0.07c-0.03,0.06-0.05,0.11-0.08,0.17
		C52.27,37.03,52.34,37.09,52.37,37.07z"/>
	<path class="st0" d="M51.51,37.12c0.02-0.06,0.05-0.12,0.07-0.18c-0.05-0.03-0.1-0.05-0.16-0.08c-0.02,0.05-0.07,0.12-0.06,0.15
		C51.39,37.07,51.46,37.09,51.51,37.12z"/>
	<path class="st0" d="M56.25,32.22c0.01-0.05-0.03-0.11-0.05-0.17c-0.06,0.04-0.12,0.07-0.18,0.11c0.03,0.05,0.06,0.1,0.09,0.14
		C56.16,32.28,56.24,32.26,56.25,32.22z"/>
	<path class="st0" d="M59.07,31.66c-0.05,0-0.09-0.01-0.14-0.01c-0.01,0.14-0.02,0.29-0.03,0.43c0.05,0,0.1,0.01,0.14,0.01
		C59.05,31.95,59.06,31.8,59.07,31.66z"/>
	<path class="st0" d="M60.02,29.59c0-0.03,0.01-0.05,0.01-0.08c-0.03,0-0.07-0.01-0.1-0.01c0.01,0.03,0.01,0.06,0.03,0.08
		C59.97,29.59,60,29.59,60.02,29.59z"/>
	<path class="st0" d="M39.61,28.65c0.02,0.05,0.06,0.1,0.09,0.14c0.03-0.04,0.06-0.08,0.09-0.11c-0.04-0.03-0.08-0.06-0.12-0.09
		C39.66,28.59,39.61,28.64,39.61,28.65z"/>
	<path class="st0" d="M42.14,25.58c-0.05-0.04-0.1-0.11-0.16-0.11c-0.05,0-0.1,0.07-0.15,0.11c0.05,0.04,0.1,0.11,0.15,0.11
		C42.04,25.69,42.09,25.62,42.14,25.58z"/>
	<path class="st0" d="M42.47,24.37c0-0.05-0.07-0.1-0.1-0.14c-0.04,0.05-0.11,0.1-0.11,0.14c0,0.05,0.07,0.1,0.11,0.15
		C42.4,24.47,42.47,24.42,42.47,24.37z"/>
	<path class="st0" d="M38.25,24.05c-0.03-0.04-0.07-0.08-0.1-0.11c-0.02,0.05-0.05,0.1-0.07,0.15c0.04,0.01,0.09,0.04,0.13,0.04
		C38.22,24.12,38.26,24.06,38.25,24.05z"/>
	<path class="st0" d="M38.36,22.56c-0.05-0.02-0.11-0.04-0.16-0.05c-0.01,0-0.02,0.04-0.03,0.07c0.05,0.02,0.1,0.04,0.16,0.06
		C38.33,22.65,38.35,22.59,38.36,22.56z"/>
	<path class="st0" d="M37.85,21.4c-0.02-0.06-0.04-0.11-0.06-0.17c-0.06,0.03-0.15,0.04-0.16,0.08c-0.01,0.05,0.03,0.12,0.06,0.18
		C37.74,21.46,37.79,21.43,37.85,21.4z"/>
	<path class="st0" d="M58.22,89.89c-0.08,0.03-0.16,0.09-0.23,0.14c0.13,0.01,0.25,0.02,0.49,0.03
		C58.32,89.95,58.26,89.87,58.22,89.89z"/>
	<path class="st0" d="M38.63,18.96c0.05,0,0.11-0.03,0.16-0.06c-0.04-0.06-0.07-0.12-0.11-0.18c-0.04,0.04-0.09,0.08-0.14,0.13
		C38.57,18.88,38.6,18.95,38.63,18.96z"/>
	<path class="st0" d="M36.56,18.78c0.01,0.01,0.02,0.01,0.02,0.02l0.03-0.03C36.59,18.77,36.57,18.77,36.56,18.78z"/>
	<path class="st0" d="M36.27,18.83c0.1-0.02,0.19-0.03,0.29-0.05c-0.07-0.06-0.14-0.12-0.21-0.17
		C36.32,18.68,36.29,18.75,36.27,18.83z"/>
	<path class="st0" d="M52.13,18.27c-0.03,0.01-0.04,0.09-0.06,0.14c0.05,0.02,0.11,0.07,0.14,0.05c0.04-0.03,0.06-0.09,0.09-0.14
		C52.24,18.3,52.18,18.25,52.13,18.27z"/>
	<path class="st0" d="M37.34,17.83c0.02-0.06,0.06-0.12,0.05-0.17c-0.01-0.03-0.09-0.05-0.14-0.07c-0.02,0.05-0.07,0.12-0.05,0.15
		C37.21,17.78,37.29,17.8,37.34,17.83z"/>
	<path class="st0" d="M48.64,17.58c0.07,0.11,0.13,0.22,0.2,0.33c-0.03-0.12-0.06-0.24-0.08-0.37
		C48.72,17.56,48.68,17.57,48.64,17.58z"/>
	<path class="st0" d="M54.76,17.19c-0.03,0.05-0.05,0.1-0.08,0.15c0.05,0.02,0.12,0.07,0.15,0.06c0.05-0.02,0.07-0.09,0.1-0.14
		C54.88,17.23,54.82,17.21,54.76,17.19z"/>
	<path class="st0" d="M61.49,93.3c0.02,0.09,0.07,0.17,0.11,0.25c0.04-0.1,0.08-0.21,0.15-0.39C61.59,93.25,61.48,93.29,61.49,93.3z
		"/>
	<path class="st0" d="M50.27,16.81c0,0.02,0,0.04,0,0.06c0.15,0,0.3,0,0.45,0l0.01-0.01C50.58,16.84,50.42,16.83,50.27,16.81z"/>
	<path class="st0" d="M40.46,20.12c-0.02-0.02-0.04-0.05-0.06-0.05s-0.05,0.02-0.07,0.03c0.02,0.02,0.04,0.04,0.06,0.05
		C40.41,20.14,40.44,20.13,40.46,20.12z"/>
	<path class="st0" d="M64.67,94.61c0.01,0.02,0,0.06,0.02,0.07s0.05,0.01,0.08,0.02c-0.01-0.04-0.01-0.07-0.02-0.11
		C64.72,94.6,64.7,94.61,64.67,94.61z"/>
	<path class="st0" d="M60,93.24c-0.03,0.03-0.09,0.07-0.09,0.1c0,0.04,0.05,0.08,0.08,0.13c0.02-0.05,0.05-0.1,0.06-0.15
		C60.05,93.29,60.02,93.27,60,93.24z"/>
	<path class="st0" d="M49,37.27c-0.05,0.01-0.1,0.03-0.15,0.05c0.02,0.02,0.04,0.06,0.06,0.06c0.05-0.01,0.1-0.03,0.15-0.05
		C49.04,37.31,49.02,37.26,49,37.27z"/>
	<path class="st0" d="M53.43,36.76c-0.02-0.02-0.03-0.04-0.05-0.06c-0.03,0.03-0.06,0.05-0.09,0.08c0.02,0.01,0.04,0.02,0.07,0.03
		C53.39,36.78,53.41,36.77,53.43,36.76z"/>
	<path class="st0" d="M49.68,36.25c0.01,0.04,0.02,0.08,0.03,0.11c0.02-0.01,0.05-0.02,0.07-0.03c-0.01-0.02-0.01-0.05-0.02-0.06
		C49.74,36.26,49.71,36.26,49.68,36.25z"/>
	<polygon class="st0" points="51.29,36.16 51.26,36.22 51.31,36.22 	"/>
	<path class="st0" d="M56.95,35.84c-0.05,0.01-0.11,0.04-0.16,0.06c0.02,0.02,0.05,0.06,0.06,0.06c0.05-0.01,0.1-0.04,0.15-0.06
		C56.99,35.88,56.96,35.84,56.95,35.84z"/>
	<polygon class="st0" points="48.66,35.55 48.63,35.61 48.68,35.62 	"/>
	<path class="st0" d="M46.8,35.32c-0.05-0.02-0.1-0.04-0.15-0.06c-0.02,0.02-0.04,0.04-0.06,0.06c0.05,0.02,0.09,0.05,0.14,0.06
		C46.76,35.37,46.78,35.33,46.8,35.32z"/>
	<path class="st0" d="M60.39,31.67c0.02,0.01,0.04,0.02,0.07,0.03c0.02-0.01,0.05-0.03,0.07-0.04c-0.02-0.02-0.03-0.04-0.05-0.06
		C60.44,31.62,60.41,31.65,60.39,31.67z"/>
	<path class="st0" d="M60.9,30.98c0.01,0.04,0.01,0.07,0.02,0.11c0.02-0.01,0.05-0.02,0.07-0.03c0-0.02,0-0.05-0.02-0.06
		C60.96,30.98,60.93,30.98,60.9,30.98z"/>
	<path class="st0" d="M59.14,30.92c0.02-0.01,0.04-0.02,0.06-0.04c-0.04,0-0.08-0.01-0.11-0.01C59.1,30.88,59.12,30.92,59.14,30.92z
		"/>
	<path class="st0" d="M59.2,30.88c0.01,0,0.02,0,0.03,0l-0.01-0.02C59.21,30.87,59.2,30.87,59.2,30.88z"/>
	<path class="st0" d="M63.4,28.84c-0.01,0.06,0,0.11,0.01,0.17c0.04-0.02,0.09-0.03,0.13-0.05c-0.02-0.05-0.04-0.11-0.06-0.16
		C63.45,28.81,63.4,28.82,63.4,28.84z"/>
	<path class="st0" d="M38.33,27.99c0.01,0.02,0.02,0.07,0.02,0.07c0.03,0,0.06-0.02,0.08-0.03c-0.01-0.02-0.02-0.06-0.03-0.06
		C38.38,27.97,38.35,27.99,38.33,27.99z"/>
	<path class="st0" d="M41.3,27.76c-0.05,0.01-0.1,0.03-0.16,0.05c0.02,0.02,0.04,0.07,0.06,0.06c0.05-0.01,0.11-0.03,0.16-0.05
		C41.34,27.8,41.32,27.76,41.3,27.76z"/>
	<path class="st0" d="M38.39,27.21c-0.04,0.01-0.07,0.02-0.11,0.03c0.01,0.02,0.02,0.05,0.04,0.07c0.01,0.01,0.04-0.01,0.06-0.02
		C38.38,27.26,38.38,27.24,38.39,27.21z"/>
	<path class="st0" d="M39.66,27.11c0,0.05,0.05,0.1,0.08,0.14c0.03-0.05,0.06-0.09,0.1-0.14c-0.03-0.05-0.06-0.1-0.09-0.14
		C39.71,27.02,39.66,27.06,39.66,27.11z"/>
	<polygon class="st0" points="38.31,25.67 38.33,25.74 38.35,25.67 	"/>
	<path class="st0" d="M62.68,24.89c-0.01-0.02-0.01-0.05-0.02-0.07c-0.02,0.01-0.05,0.01-0.05,0.02c0,0.02,0.01,0.05,0.02,0.07
		C62.64,24.9,62.66,24.89,62.68,24.89z"/>
	<path class="st0" d="M36.39,24.75c0,0.02,0.03,0.07,0.04,0.07c0.05-0.01,0.09-0.03,0.14-0.04c-0.04-0.03-0.08-0.06-0.12-0.08
		C36.44,24.7,36.39,24.73,36.39,24.75z"/>
	<path class="st0" d="M62.17,24.45c0.02,0,0.05-0.04,0.07-0.06c-0.04-0.03-0.08-0.09-0.13-0.09c-0.03,0-0.07,0.06-0.12,0.09
		C62.06,24.41,62.11,24.44,62.17,24.45z"/>
	<polygon class="st0" points="59.03,24.12 59.01,24.19 59.1,24.17 	"/>
	<path class="st0" d="M60.4,23.77c-0.02,0.02-0.06,0.04-0.07,0.06c0,0.05,0.01,0.1,0.02,0.16c0.04-0.02,0.08-0.04,0.13-0.06
		C60.45,23.88,60.43,23.82,60.4,23.77z"/>
	<path class="st0" d="M37.25,23.95c0.04-0.01,0.08-0.02,0.12-0.03c-0.01-0.03-0.02-0.06-0.03-0.09c-0.02,0.01-0.05,0.01-0.06,0.02
		C37.25,23.88,37.25,23.91,37.25,23.95z"/>
	<path class="st0" d="M36.65,23.81c0.01-0.02,0.02-0.03,0.02-0.05c-0.02-0.01-0.04-0.01-0.07-0.02
		C36.63,23.76,36.64,23.78,36.65,23.81z"/>
	<path class="st0" d="M36.05,23.5c-0.03,0.01-0.06,0.02-0.09,0.03c0.04,0.02,0.08,0.03,0.12,0.05
		C36.06,23.55,36.06,23.53,36.05,23.5z"/>
	<path class="st0" d="M36.68,23.3c0,0.03-0.01,0.07,0.01,0.08c0.02,0.02,0.05,0.01,0.08,0.02c-0.01-0.04-0.01-0.08-0.02-0.13
		C36.73,23.29,36.7,23.3,36.68,23.3z"/>
	<path class="st0" d="M57.95,23.19c-0.04,0-0.08-0.01-0.13-0.01c0.01,0.04,0.02,0.07,0.03,0.11C57.88,23.26,57.91,23.23,57.95,23.19
		z"/>
	<path class="st0" d="M40.01,22.3c-0.05,0.02-0.09,0.04-0.13,0.07c0.05,0.02,0.09,0.04,0.14,0.05c0.01,0,0.04-0.04,0.05-0.06
		C40.05,22.33,40.02,22.29,40.01,22.3z"/>
	<path class="st0" d="M57.9,22.22c0.04-0.02,0.07-0.03,0.11-0.05c-0.03-0.01-0.05-0.02-0.08-0.03
		C57.92,22.16,57.91,22.19,57.9,22.22z"/>
	<path class="st0" d="M35.59,21.47c-0.03,0.02-0.06,0.05-0.09,0.08c0.03,0.01,0.05,0.02,0.08,0.03c0.02-0.02,0.05-0.03,0.07-0.05
		C35.63,21.5,35.59,21.46,35.59,21.47z"/>
	<polygon class="st0" points="58.29,21.36 58.37,21.33 58.29,21.3 	"/>
	<path class="st0" d="M46.99,21.31c-0.02,0.02-0.01,0.05-0.02,0.08c0.04-0.01,0.08-0.01,0.13-0.02c-0.01-0.03-0.02-0.05-0.03-0.08
		C47.05,21.3,47.01,21.3,46.99,21.31z"/>
	<path class="st0" d="M39.27,21.41c0.03,0,0.07,0,0.08-0.01c0.02-0.01,0.01-0.05,0.01-0.08c-0.03-0.01-0.05-0.02-0.08-0.03
		C39.28,21.32,39.28,21.37,39.27,21.41z"/>
	<path class="st0" d="M60.15,21.1c-0.03,0.01-0.05,0.01-0.08,0.02c0.03,0.01,0.07,0.02,0.1,0.04C60.17,21.14,60.16,21.12,60.15,21.1
		z"/>
	<polygon class="st0" points="46.78,20.74 46.8,20.69 46.73,20.7 	"/>
	<path class="st0" d="M38.64,20.7c-0.02-0.02-0.04-0.07-0.05-0.07c-0.05,0.02-0.09,0.05-0.14,0.07c0.05,0.02,0.09,0.05,0.14,0.07
		C38.6,20.77,38.62,20.72,38.64,20.7z"/>
	<path class="st0" d="M63.11,20.67c-0.02-0.05-0.04-0.11-0.06-0.16c-0.02,0.02-0.07,0.04-0.06,0.06c0.01,0.06,0.03,0.11,0.05,0.16
		C63.07,20.71,63.09,20.69,63.11,20.67z"/>
	<path class="st0" d="M62.27,19.89c-0.03-0.01-0.05-0.02-0.08-0.03c-0.02,0.02-0.06,0.03-0.07,0.06c-0.01,0.01,0.03,0.04,0.04,0.07
		C62.2,19.95,62.24,19.92,62.27,19.89z"/>
	<path class="st0" d="M41.64,19.86c-0.03-0.01-0.06,0-0.09,0.01c0.02,0.04,0.04,0.08,0.07,0.11c0.03-0.02,0.05-0.04,0.08-0.06
		C41.67,19.9,41.66,19.86,41.64,19.86z"/>
	<path class="st0" d="M54.04,19.67c-0.03-0.01-0.06,0-0.09,0.01c0.02,0.03,0.04,0.07,0.07,0.1c0,0,0.05-0.03,0.08-0.04
		C54.07,19.71,54.06,19.67,54.04,19.67z"/>
	<path class="st0" d="M60.85,19.07c-0.03,0-0.06-0.01-0.08,0.01s-0.02,0.05-0.02,0.08c0.04,0,0.08-0.01,0.13-0.01
		C60.86,19.12,60.85,19.1,60.85,19.07z"/>
	<polygon class="st0" points="55.51,19 55.56,19 55.54,18.94 	"/>
	<path class="st0" d="M52.32,19c-0.02-0.01-0.05,0.03-0.07,0.04c0.03,0.03,0.06,0.07,0.1,0.1c0.01-0.03,0.02-0.05,0.03-0.08
		C52.36,19.04,52.35,19.01,52.32,19z"/>
	<path class="st0" d="M47.5,18.89c0,0.02,0.03,0.07,0.05,0.07c0.05-0.01,0.1-0.03,0.14-0.05c-0.04-0.03-0.08-0.06-0.13-0.07
		C47.55,18.84,47.5,18.87,47.5,18.89z"/>
	<path class="st0" d="M46.16,18.87c-0.02,0-0.05,0.02-0.08,0.03c0.02,0.02,0.05,0.03,0.07,0.05c0.02-0.01,0.05-0.02,0.07-0.03
		C46.2,18.89,46.18,18.87,46.16,18.87z"/>
	<path class="st0" d="M41.22,18.97c-0.02-0.02-0.04-0.05-0.05-0.07c-0.02,0.05-0.05,0.09-0.07,0.14c0,0.02,0.03,0.04,0.05,0.07
		C41.18,19.06,41.2,19.02,41.22,18.97z"/>
	<path class="st0" d="M36.67,18.83L36.67,18.83L36.67,18.83C36.66,18.82,36.66,18.82,36.67,18.83z"/>
	<path class="st0" d="M36.67,18.83C36.7,18.84,36.71,18.84,36.67,18.83L36.67,18.83z"/>
	<path class="st0" d="M36.65,18.82L36.65,18.82C36.7,18.87,36.69,18.86,36.65,18.82z"/>
	<path class="st0" d="M36.61,18.77l-0.03,0.03c0.03,0.01,0.05,0.02,0.07,0.02C36.64,18.81,36.62,18.79,36.61,18.77z"/>
	<polygon class="st0" points="60.33,18.68 60.26,18.7 60.33,18.73 	"/>
	<path class="st0" d="M46.19,18.36c-0.01,0.05-0.01,0.1-0.01,0.15c0.04-0.01,0.09-0.02,0.13-0.03c-0.02-0.05-0.04-0.11-0.06-0.16
		C46.23,18.34,46.19,18.35,46.19,18.36z"/>
	<polygon class="st0" points="37.76,18.39 37.7,18.38 37.72,18.47 	"/>
	<polygon class="st0" points="60.05,18.2 59.99,18.19 60.01,18.27 	"/>
	<path class="st0" d="M59.36,18.05c0.02,0,0.03,0,0.05,0l0.01-0.02C59.4,18.04,59.38,18.05,59.36,18.05z"/>
	<path class="st0" d="M59.25,18.08c0.03-0.01,0.07-0.02,0.1-0.03c-0.04,0-0.07-0.01-0.11-0.01C59.25,18.06,59.25,18.07,59.25,18.08z
		"/>
	<path class="st0" d="M50.68,18.07c-0.06-0.02-0.11-0.05-0.16-0.06c-0.01,0-0.04,0.04-0.06,0.06c0.05,0.02,0.1,0.05,0.15,0.06
		C50.63,18.14,50.65,18.1,50.68,18.07z"/>
	<path class="st0" d="M33.67,18.01c-0.06,0-0.11,0.02-0.17,0.03c0.03,0.04,0.05,0.08,0.08,0.12c0.05-0.03,0.1-0.05,0.15-0.08
		C33.71,18.06,33.69,18.01,33.67,18.01z"/>
	<path class="st0" d="M54.9,17.98c0.01,0.05,0.04,0.1,0.07,0.14c0.03-0.02,0.05-0.04,0.08-0.05c-0.03-0.05-0.05-0.1-0.08-0.15
		C54.94,17.94,54.89,17.97,54.9,17.98z"/>
	<path class="st0" d="M54.28,18.05c0.01,0.01,0.04-0.01,0.06-0.01c0-0.03,0.01-0.06,0.01-0.08c-0.04,0.01-0.07,0.01-0.11,0.02
		C54.26,18,54.26,18.03,54.28,18.05z"/>
	<path class="st0" d="M48.85,17.94v-0.01c0,0,0-0.01-0.01-0.01C48.84,17.92,48.85,17.93,48.85,17.94L48.85,17.94L48.85,17.94
		L48.85,17.94L48.85,17.94c0.02-0.01,0.03-0.01,0.05-0.02c-0.02,0-0.03,0-0.05,0V17.94z"/>
	<path class="st0" d="M48.9,17.92c0.1,0,0.19-0.01,0.29-0.01c0-0.03-0.01-0.06-0.01-0.09C49.08,17.85,48.99,17.89,48.9,17.92z"/>
	<path class="st0" d="M46.77,17.85c-0.03,0.01-0.06,0.01-0.08,0.02c0.04,0.01,0.07,0.03,0.11,0.04
		C46.79,17.89,46.78,17.87,46.77,17.85z"/>
	<path class="st0" d="M38.39,17.89c0.01-0.02-0.01-0.05-0.01-0.08c-0.03,0.02-0.07,0.03-0.1,0.05c0.01,0.02,0.03,0.04,0.04,0.06
		C38.34,17.91,38.38,17.9,38.39,17.89z"/>
	<path class="st0" d="M35.84,17.61c-0.12,0.04-0.24,0.09-0.36,0.13c0.13-0.01,0.25-0.02,0.38-0.02
		C35.85,17.68,35.84,17.64,35.84,17.61z"/>
	<polygon class="st0" points="48.05,17.69 48.08,17.62 48.02,17.61 	"/>
	<path class="st0" d="M46.22,17.27C46.22,17.27,46.21,17.27,46.22,17.27c-0.02,0.03-0.04,0.07-0.06,0.11c0.02,0,0.04,0.01,0.06,0.01
		C46.22,17.35,46.22,17.31,46.22,17.27z"/>
	<path class="st0" d="M39.54,17.5c-0.02-0.02-0.04-0.04-0.06-0.05c-0.02,0-0.05,0.02-0.08,0.02c0.02,0.02,0.04,0.04,0.06,0.05
		C39.49,17.53,39.52,17.51,39.54,17.5z"/>
	<path class="st0" d="M52.67,17.36c0.02,0.03,0.04,0.07,0.06,0.1c0.01-0.02,0.02-0.05,0.03-0.07c-0.01-0.02-0.03-0.04-0.04-0.07
		C52.7,17.34,52.67,17.36,52.67,17.36z"/>
	<path class="st0" d="M46.22,17.27L46.22,17.27L46.22,17.27C46.21,17.27,46.22,17.27,46.22,17.27z"/>
	<path class="st0" d="M46.51,17.36c0.01-0.04,0.02-0.07,0.02-0.11c-0.1,0.01-0.21,0.01-0.31,0.02
		C46.32,17.3,46.42,17.33,46.51,17.36z"/>
	<path class="st0" d="M45.77,17.1c0.05,0.03,0.09,0.07,0.14,0.07c0.03,0,0.06-0.06,0.09-0.1c-0.06-0.01-0.12-0.03-0.17-0.04
		C45.81,17.03,45.79,17.07,45.77,17.1z"/>
	<path class="st0" d="M49.74,16.76c-0.01-0.05-0.03-0.1-0.05-0.15c-0.03,0.04-0.06,0.09-0.08,0.14c0,0.01,0.04,0.06,0.06,0.06
		C49.69,16.82,49.74,16.78,49.74,16.76z"/>
	<path class="st0" d="M49.15,16.88c-0.03-0.05-0.05-0.1-0.08-0.14C49.05,16.75,49,16.76,49,16.78c-0.01,0.05,0.01,0.09,0.01,0.14
		C49.06,16.91,49.1,16.89,49.15,16.88z"/>
	<path class="st0" d="M47.38,17.26c0,0.02,0.03,0.04,0.05,0.06c0.02-0.02,0.03-0.04,0.05-0.06c-0.01-0.01-0.03-0.03-0.05-0.05
		C47.41,17.23,47.38,17.24,47.38,17.26z"/>
	<polygon class="st0" points="51.44,17.91 51.51,17.91 51.48,17.84 	"/>
	<polygon class="st0" points="47.24,18.33 47.27,18.28 47.22,18.28 	"/>
	<polygon class="st0" points="55.79,18.26 55.72,18.28 55.78,18.32 	"/>
	<path class="st0" d="M34.55,19.14c0.04-0.01,0.08-0.03,0.12-0.04c-0.04-0.01-0.08-0.01-0.12-0.02c0.01,0.02,0.02,0.03,0.02,0.03
		S34.56,19.12,34.55,19.14z"/>
	<path class="st0" d="M34.53,19.18c0,0,0.01-0.02,0.02-0.04c-0.02,0.01-0.03,0.01-0.05,0.02L34.53,19.18z"/>
	<path class="st0" d="M34.55,19.07c-0.01-0.02-0.02-0.04-0.03-0.03l0,0c0,0-0.01,0-0.01-0.01c-0.01,0.01-0.01,0.02-0.02,0.03
		C34.51,19.07,34.53,19.07,34.55,19.07z"/>
	<path class="st0" d="M50.62,19.11c0,0.02,0.03,0.04,0.05,0.06c0.02-0.02,0.06-0.04,0.06-0.06c0-0.02-0.03-0.04-0.05-0.06
		C50.66,19.07,50.62,19.09,50.62,19.11z"/>
	<polygon class="st0" points="35.42,19.25 35.49,19.28 35.51,19.27 	"/>
	<path class="st0" d="M61.41,19.35c0.02,0,0.04-0.03,0.07-0.06c-0.02-0.02-0.04-0.05-0.07-0.05c-0.02,0-0.04,0.03-0.06,0.05
		C61.37,19.31,61.39,19.35,61.41,19.35z"/>
	<polygon class="st0" points="46.22,19.53 46.23,19.47 46.16,19.5 	"/>
	<path class="st0" d="M37.26,19.71c0.03,0.02,0.06,0.04,0.08,0.06c0.01-0.02,0.02-0.04,0.03-0.06c-0.02-0.02-0.04-0.06-0.06-0.06
		C37.3,19.66,37.28,19.69,37.26,19.71z"/>
	<polygon class="st0" points="59.18,19.89 59.17,19.95 59.24,19.93 	"/>
	<polygon class="st0" points="61.21,20.08 61.21,20.14 61.27,20.11 	"/>
	<polygon class="st0" points="41.55,20.93 41.61,20.94 41.59,20.88 	"/>
	<polygon class="st0" points="43.19,22.32 43.18,22.37 43.23,22.36 	"/>
	<polygon class="st0" points="62.01,22.99 62.05,22.94 61.99,22.93 	"/>
	<path class="st0" d="M36.05,23.96c0,0.02,0.03,0.04,0.05,0.06c0.02-0.02,0.04-0.03,0.06-0.05c-0.02-0.02-0.03-0.04-0.05-0.06
		C36.08,23.92,36.05,23.94,36.05,23.96z"/>
	<polygon class="st0" points="37.12,24.62 37.13,24.55 37.06,24.58 	"/>
	<polygon class="st0" points="40.11,25.21 40.17,25.2 40.12,25.16 	"/>
	<polygon class="st0" points="60.04,25.37 59.97,25.36 60,25.43 	"/>
	<path class="st0" d="M36.95,25.51c0-0.02,0.01-0.04,0.01-0.06c0,0-0.03,0.03-0.02,0.03C36.94,25.48,36.94,25.49,36.95,25.51z"/>
	<polygon class="st0" points="40.11,25.8 40.16,25.8 40.14,25.75 	"/>
	<polygon class="st0" points="38.68,26.21 38.75,26.22 38.72,26.15 	"/>
	<path class="st0" d="M37.44,26.44c-0.01,0.01-0.02,0.03-0.03,0.04l0,0l0,0l0,0l0,0c0,0.01,0,0.01,0,0.02c0.01,0,0.01,0,0.02,0
		C37.43,26.49,37.43,26.46,37.44,26.44z"/>
	<path class="st0" d="M40.96,27.04c0.02-0.02,0.05-0.04,0.05-0.06c0-0.02-0.03-0.04-0.05-0.06c-0.02,0.02-0.05,0.04-0.05,0.06
		S40.94,27.02,40.96,27.04z"/>
	<polygon class="st0" points="60.43,27 60.38,26.99 60.4,27.04 	"/>
	<polygon class="st0" points="38.91,27.24 38.97,27.25 38.95,27.18 	"/>
	<path class="st0" d="M60,27.46c0.02,0,0.04-0.03,0.06-0.05c-0.02-0.02-0.03-0.04-0.05-0.06c-0.02,0.02-0.04,0.03-0.06,0.05
		C59.96,27.43,59.98,27.46,60,27.46z"/>
	<polygon class="st0" points="38.9,28.04 38.95,28.03 38.91,27.99 	"/>
	<path class="st0" d="M39.54,28.14c-0.02,0-0.05,0.04-0.07,0.06c0.02,0.02,0.04,0.05,0.07,0.07c0.02-0.02,0.05-0.04,0.07-0.06
		C39.58,28.19,39.56,28.14,39.54,28.14z"/>
	<polygon class="st0" points="59.01,28.59 58.94,28.62 59,28.66 	"/>
	<polygon class="st0" points="62.23,29.27 62.24,29.22 62.19,29.24 	"/>
	<polygon class="st0" points="58.79,29.58 58.75,29.64 58.81,29.65 	"/>
	<polygon class="st0" points="40.97,30.5 41.01,30.44 40.94,30.43 	"/>
	<path class="st0" d="M59.93,32.26c0,0.02,0.04,0.05,0.06,0.07c0.02-0.02,0.05-0.04,0.07-0.06c-0.02-0.02-0.04-0.05-0.06-0.07
		C59.98,32.22,59.93,32.24,59.93,32.26z"/>
	<polygon class="st0" points="57.78,33.46 57.72,33.48 57.77,33.51 	"/>
	<path class="st0" d="M44.42,34.76c0.02,0,0.04-0.03,0.06-0.05c-0.02-0.02-0.04-0.04-0.05-0.06c-0.02,0.02-0.04,0.03-0.06,0.05
		C44.38,34.72,44.4,34.76,44.42,34.76z"/>
	<path class="st0" d="M52.1,35.18c0.02,0,0.05-0.04,0.07-0.06c-0.02-0.02-0.05-0.04-0.07-0.06c-0.02,0.02-0.04,0.04-0.06,0.06
		C52.06,35.14,52.08,35.18,52.1,35.18z"/>
	<polygon class="st0" points="54.11,35.13 54.17,35.12 54.12,35.08 	"/>
	<polygon class="st0" points="55.92,35.54 55.98,35.56 55.96,35.48 	"/>
	<polygon class="st0" points="45.45,35.69 45.39,35.7 45.44,35.74 	"/>
	<path class="st0" d="M53.93,36.07c-0.02,0-0.04,0.03-0.06,0.05c0.02,0.02,0.04,0.04,0.05,0.06c0.02-0.02,0.04-0.03,0.06-0.05
		C53.97,36.11,53.95,36.07,53.93,36.07z"/>
	<polygon class="st0" points="54.91,36.34 54.97,36.32 54.92,36.29 	"/>
	<polygon class="st0" points="48.45,36.89 48.45,36.95 48.51,36.93 	"/>
	<polygon class="st0" points="54.54,36.88 54.5,36.94 54.57,36.95 	"/>
	<path class="st0" d="M52.55,4.69c0-0.07,0-0.13-0.01-0.2c-1.33,0.07-2.66,0.14-3.99,0.21C49.82,4.77,51.19,4.91,52.55,4.69z"/>
	<path class="st0" d="M51.85,8.39c0.32-0.24,0.82,0.01,0.96-0.1c0.43-0.34,0.81-0.22,1.24-0.07c-0.55-0.36-1.3-0.4-2.36-0.15
		C51.75,8.17,51.8,8.28,51.85,8.39z"/>
	<path class="st0" d="M41.98,8.47c-0.4-0.05-0.81-0.02-1.41-0.02c0.56,0.4,0.57,0.41,1.68,0.42C42.17,8.72,42.09,8.49,41.98,8.47z"
		/>
	<path class="st0" d="M29.75,6.42c-0.02-0.08-0.04-0.15-0.06-0.23c-0.52,0.14-1.03,0.28-1.55,0.43c0.02,0.08,0.04,0.15,0.06,0.23
		C28.72,6.71,29.24,6.57,29.75,6.42z"/>
	<path class="st0" d="M42.81,5.04c-0.02-0.05-0.03-0.1-0.05-0.15c-0.12,0.04-0.25,0.09-0.37,0.13c0.01,0.04,0.03,0.09,0.04,0.13
		C42.56,5.11,42.68,5.08,42.81,5.04z"/>
	<path class="st0" d="M44.09,5.01c0-0.06,0.01-0.11,0.01-0.17c-0.22,0.02-0.44,0.03-0.66,0.05c0,0.03,0,0.06,0,0.09
		C43.66,4.99,43.87,5,44.09,5.01z"/>
	<path class="st0" d="M55.24,7.9c-0.49,0-0.74,0.01-0.43,0.53C54.92,8.28,55.02,8.16,55.24,7.9z"/>
	<path class="st0" d="M59.04,8.32c-0.01,0.02-0.02,0.04-0.03,0.06c0.03,0.01,0.05,0.02,0.08,0.02C59.08,8.38,59.06,8.35,59.04,8.32z
		"/>
	<path class="st0" d="M60.05,8.37c-0.04-0.03-0.08-0.06-0.13-0.08c-0.01,0-0.06,0.03-0.06,0.06c0,0.02,0.03,0.07,0.04,0.07
		C59.96,8.4,60,8.38,60.05,8.37z"/>
	<path class="st0" d="M46.08,8.8c0.01-0.03,0.01-0.06,0.02-0.08c-0.04,0-0.08,0.01-0.12,0.01c0,0.02,0.01,0.06,0.02,0.07
		C46.02,8.81,46.05,8.8,46.08,8.8z"/>
	<path class="st0" d="M42.32,8.91c-0.01-0.01-0.02-0.03-0.03-0.04l0,0l0,0l0,0l0,0c-0.01,0-0.02,0-0.03,0
		c0,0.01,0.01,0.01,0.01,0.02C42.29,8.9,42.3,8.91,42.32,8.91z"/>
	<path class="st0" d="M42.49,9c-0.06-0.03-0.11-0.06-0.17-0.08c0.03,0.05,0.06,0.09,0.09,0.14C42.44,9.03,42.46,9.02,42.49,9z"/>
	<path class="st0" d="M37.13,9.36c0.01,0.02,0.01,0.06,0.02,0.06c0.02,0,0.05-0.01,0.07-0.02c-0.01-0.02-0.01-0.04-0.02-0.05
		C37.18,9.35,37.16,9.36,37.13,9.36z"/>
	<polygon class="st0" points="34.25,9.73 34.31,9.73 34.28,9.66 	"/>
	<path class="st0" d="M44.61,9.85c0.02,0,0.04-0.03,0.06-0.04c-0.02-0.02-0.03-0.06-0.05-0.06s-0.04,0.03-0.06,0.04
		C44.58,9.81,44.59,9.85,44.61,9.85z"/>
	<polygon class="st0" points="56.54,9.35 56.53,9.41 56.6,9.38 	"/>
	<polygon class="st0" points="47.43,8.73 47.4,8.78 47.45,8.78 	"/>
	<polygon class="st0" points="48.04,8.56 48.03,8.61 48.08,8.59 	"/>
	<path class="st0" d="M62.04,8.41c0.02,0,0.04-0.03,0.06-0.04c-0.02-0.02-0.03-0.05-0.05-0.06c-0.02,0-0.04,0.03-0.06,0.04
		C62,8.38,62.02,8.41,62.04,8.41z"/>
	<path class="st0" d="M53.26,8.37c0,0.02,0.03,0.04,0.05,0.06c0.02-0.02,0.05-0.03,0.06-0.05c0-0.02-0.03-0.04-0.05-0.06
		C53.3,8.34,53.26,8.35,53.26,8.37z"/>
	<path class="st0" d="M49.65,12.42c4.2,0.05,8.4,0.05,12.59,0.04c0.11,0,0.21-0.12,0.32-0.18C58.24,12.57,53.94,11.85,49.65,12.42z"
		/>
	<path class="st0" d="M41.1,12.07c-1.21-0.12-1.21-0.13-1.57,0.08c1.65,0.35,2.59,0.39,3.27,0.02
		C42.23,12.14,41.66,12.13,41.1,12.07z"/>
	<path class="st0" d="M66.29,12.72c0.65,0.78,0.65,0.78,0.96,0.12c-0.13-0.17-0.26-0.35-0.5-0.68
		C66.55,12.4,66.42,12.56,66.29,12.72z"/>
	<path class="st0" d="M34.41,11.56c-0.43-0.08-0.86-0.17-1.3-0.25c-0.02,0.08-0.03,0.16-0.05,0.24c0.42,0.1,0.85,0.19,1.27,0.29
		C34.36,11.74,34.38,11.65,34.41,11.56z"/>
	<path class="st0" d="M43.66,12.41c0.42,0,0.83,0,1.25,0c0-0.02,0.01-0.05,0.01-0.07c-0.41-0.05-0.83-0.09-1.24-0.14
		C43.68,12.27,43.67,12.34,43.66,12.41z"/>
	<path class="st0" d="M31.11,11.22c0.35,0.04,0.7,0.08,1.04,0.11C31.83,11.1,31.52,10.81,31.11,11.22z"/>
	<path class="st0" d="M35.44,11.91c0.18,0,0.35,0,0.53,0c0-0.03,0-0.07,0-0.1c-0.18,0-0.35,0-0.53,0
		C35.44,11.84,35.44,11.88,35.44,11.91z"/>
	<path class="st0" d="M47.92,12.39c0,0.02,0.01,0.05,0.01,0.07c0.15,0,0.31,0,0.46,0c-0.01-0.04-0.03-0.09-0.04-0.13
		C48.21,12.34,48.06,12.36,47.92,12.39z"/>
	<path class="st0" d="M71.69,11.38c0,0.06,0,0.11,0,0.17c0.16,0.02,0.32,0.03,0.48,0.05c0-0.08,0-0.16-0.01-0.24
		C72,11.36,71.84,11.37,71.69,11.38z"/>
	<path class="st0" d="M27.68,11.44c0.04,0.04,0.08,0.08,0.11,0.12c0.13-0.1,0.25-0.2,0.38-0.29c-0.05-0.06-0.1-0.12-0.15-0.19
		C27.91,11.2,27.8,11.32,27.68,11.44z"/>
	<path class="st0" d="M28.36,11.71c0,0.07,0.05,0.13,0.09,0.24c0.1-0.09,0.16-0.14,0.22-0.19c-0.06-0.05-0.11-0.12-0.18-0.15
		C28.46,11.6,28.36,11.67,28.36,11.71z"/>
	<path class="st0" d="M71.12,11.6c0.06,0.14,0.12,0.29,0.17,0.43c0.05-0.01,0.09-0.02,0.14-0.04c-0.05-0.15-0.09-0.3-0.14-0.45
		C71.23,11.56,71.17,11.58,71.12,11.6z"/>
	<path class="st0" d="M68.4,12.44c0.05,0.1,0.11,0.19,0.16,0.29c-0.02-0.11-0.04-0.21-0.06-0.32C68.46,12.42,68.43,12.43,68.4,12.44
		z"/>
	<path class="st0" d="M34.52,14.27c0.02-0.04,0.05-0.08,0.07-0.11c-0.09-0.04-0.19-0.08-0.28-0.11
		C34.38,14.12,34.45,14.19,34.52,14.27z"/>
	<polygon class="st0" points="56.36,15.42 56.38,15.36 56.33,15.36 	"/>
	<path class="st0" d="M40.63,13.84c0.01,0.02,0,0.05,0.02,0.06s0.05,0.01,0.08,0.02c-0.01-0.04-0.02-0.07-0.02-0.11
		C40.68,13.82,40.65,13.83,40.63,13.84z"/>
	<path class="st0" d="M70.27,13.57c-0.04,0-0.08,0.06-0.12,0.1c0.07,0.03,0.13,0.06,0.19,0.07c0.01,0,0.06-0.07,0.05-0.07
		C70.36,13.63,70.31,13.58,70.27,13.57z"/>
	<path class="st0" d="M66.19,13.53c0,0.01,0.05,0.04,0.07,0.06c0.03-0.05,0.06-0.11,0.09-0.16c-0.03-0.02-0.06-0.03-0.09-0.05
		C66.24,13.43,66.2,13.48,66.19,13.53z"/>
	<path class="st0" d="M65.78,13.41c0,0.01,0.02,0.04,0.04,0.06c0.03-0.03,0.06-0.05,0.09-0.08c-0.02-0.01-0.04-0.02-0.07-0.03
		C65.82,13.38,65.79,13.39,65.78,13.41z"/>
	<path class="st0" d="M40.83,13.05c0.03,0.01,0.05,0.02,0.08,0.02c0.01,0,0.02-0.04,0.02-0.06c-0.03,0-0.05-0.01-0.08-0.01
		C40.84,13,40.84,13.03,40.83,13.05z"/>
	<path class="st0" d="M37.14,13.03c0.03,0.01,0.05,0.02,0.08,0.02c-0.02-0.03-0.03-0.06-0.05-0.08
		C37.16,12.99,37.15,13.01,37.14,13.03z"/>
	<path class="st0" d="M69.9,12.65c0,0.02,0.01,0.05,0.02,0.07c0.02-0.01,0.05-0.01,0.05-0.02c0-0.02-0.01-0.05-0.02-0.07
		C69.94,12.64,69.9,12.65,69.9,12.65z"/>
	<path class="st0" d="M65.04,12.76c0,0.01,0.04,0.02,0.05,0.03c0.01-0.03,0.02-0.05,0.02-0.08c0-0.01-0.03-0.02-0.05-0.03
		C65.05,12.7,65.04,12.73,65.04,12.76z"/>
	<polygon class="st0" points="32.13,12.45 32.22,12.43 32.14,12.39 	"/>
	<path class="st0" d="M29.06,12.53c0.07-0.06,0.14-0.13,0.21-0.19c-0.1,0.02-0.19,0.03-0.29,0.05C29,12.43,29.03,12.48,29.06,12.53z
		"/>
	<path class="st0" d="M29.3,12.3c-0.01,0.01-0.02,0.02-0.03,0.03c0.02,0,0.04-0.01,0.05-0.01L29.3,12.3
		c0.01,0.01,0.02,0.02,0.02,0.02c0-0.01,0.01-0.02,0.01-0.04C29.32,12.3,29.31,12.3,29.3,12.3L29.3,12.3z"/>
	<path class="st0" d="M71.9,12.09c0,0.01,0.04,0.06,0.06,0.06s0.07-0.03,0.07-0.05c-0.01-0.05-0.03-0.09-0.05-0.14
		C71.95,12.01,71.92,12.05,71.9,12.09z"/>
	<path class="st0" d="M68.78,12.03c0.03,0.01,0.05,0.02,0.08,0.02c0.01,0,0.02-0.04,0.02-0.05c-0.03-0.01-0.05-0.02-0.07-0.02
		C68.79,11.97,68.78,12.01,68.78,12.03z"/>
	<path class="st0" d="M70.25,11.84c0,0.06,0.04,0.11,0.06,0.17c0.04-0.03,0.11-0.06,0.12-0.09c0.01-0.05-0.04-0.11-0.06-0.16
		C70.33,11.79,70.25,11.81,70.25,11.84z"/>
	<path class="st0" d="M27.13,11.33c0.01-0.05,0.01-0.1,0.02-0.15c-0.07,0.05-0.14,0.09-0.21,0.14c0,0,0.03,0.06,0.05,0.07
		c0.03,0.01,0.07-0.01,0.1-0.01l0.03,0.03c0-0.02,0.01-0.04,0.01-0.06c0.01-0.01,0.02-0.02,0.03-0.03
		C27.14,11.33,27.13,11.33,27.13,11.33z"/>
	<polygon class="st0" points="30.82,11.85 30.86,11.81 30.81,11.8 	"/>
	<path class="st0" d="M31.63,11.97c-0.02,0-0.05,0.04-0.07,0.06c0.02,0.02,0.04,0.07,0.07,0.07c0.02,0,0.05-0.04,0.07-0.06
		C31.68,12.02,31.66,11.97,31.63,11.97z"/>
	<path class="st0" d="M29.34,12.24c-0.01,0.01-0.01,0.03-0.02,0.05c0.03-0.02,0.06-0.03,0.08-0.05
		C29.39,12.24,29.35,12.23,29.34,12.24z"/>
	<path class="st0" d="M28.41,12.36c-0.02,0.03-0.06,0.05-0.06,0.08c0,0.02,0.04,0.06,0.06,0.06c0.02,0,0.06-0.04,0.07-0.06
		C28.48,12.41,28.44,12.39,28.41,12.36z"/>
	<path class="st0" d="M68.59,12.79c-0.01-0.02-0.02-0.04-0.03-0.06c0,0.02,0.01,0.04,0.01,0.06h-0.01c0.01,0,0.01,0.01,0.02,0.01
		c0,0.01,0,0.02,0.01,0.03l0.04,0.01c0-0.01-0.01-0.02-0.01-0.02c0.01-0.01,0.02-0.01,0.03-0.02
		C68.62,12.79,68.61,12.79,68.59,12.79z"/>
	<polygon class="st0" points="61.42,13.07 61.45,13.02 61.4,13.02 	"/>
	<polygon class="st0" points="69.3,13.07 69.37,13.04 69.31,13 	"/>
	<polygon class="st0" points="35.46,13.25 35.52,13.26 35.49,13.19 	"/>
	<polygon class="st0" points="59.15,13.24 59.22,13.25 59.19,13.18 	"/>
	<polygon class="st0" points="69.92,13.28 69.96,13.22 69.89,13.21 	"/>
	<polygon class="st0" points="42.16,13.46 42.23,13.44 42.17,13.4 	"/>
	<polygon class="st0" points="33.44,13.65 33.49,13.66 33.47,13.6 	"/>
	<path class="st0" d="M34.32,14.02C34.3,14.01,34.28,14,34.26,14l0.02,0.04c0.01,0,0.02,0.01,0.03,0.01
		c-0.01-0.01-0.01-0.01-0.02-0.02C34.3,14.02,34.31,14.02,34.32,14.02z"/>
	<polygon class="st0" points="52.51,14.29 52.55,14.23 52.48,14.22 	"/>
	<path class="st0" d="M62.22,14.19c-0.02,0-0.04,0.03-0.06,0.05c0.02,0.02,0.04,0.05,0.06,0.06c0.02,0,0.04-0.03,0.06-0.05
		C62.25,14.23,62.24,14.19,62.22,14.19z"/>
	<polygon class="st0" points="65.84,14.25 65.91,14.25 65.88,14.18 	"/>
	<polygon class="st0" points="67.25,14.44 67.31,14.44 67.28,14.38 	"/>
	<polygon class="st0" points="66.45,14.67 66.5,14.67 66.49,14.62 	"/>
	<polygon class="st0" points="41.76,14.88 41.82,14.85 41.76,14.82 	"/>
	<path class="st0" d="M42.77,15.01c-0.02,0-0.04,0.03-0.06,0.05c0.02,0.02,0.03,0.05,0.05,0.05s0.04-0.03,0.06-0.05
		C42.81,15.04,42.79,15.01,42.77,15.01z"/>
	<polygon class="st0" points="57.94,15.28 58,15.26 57.95,15.23 	"/>
	<path class="st0" d="M51.4,26.89c0.19-0.42,0.37-0.84,0.56-1.26c-0.42,0.51-1.04,0.89-1.2,1.7C51.04,27.14,51.22,27.02,51.4,26.89z
		"/>
	<path class="st0" d="M51.49,31.93c-0.41,0.11-0.78,0.22-1.15,0.32C50.72,32.26,51.32,32.86,51.49,31.93z"/>
	<path class="st0" d="M50.17,32.29c0.05-0.01,0.11-0.03,0.16-0.04C50.28,32.24,50.22,32.25,50.17,32.29z"/>
	<path class="st0" d="M55.18,26.48c0,0.02,0.01,0.04,0.01,0.06c0.01-0.01,0.02-0.02,0.02-0.04C55.22,26.51,55.18,26.48,55.18,26.48z
		"/>
	<path class="st0" d="M55.45,27.9c-0.1-0.55-0.18-0.95-0.25-1.36c-0.2,0.31-0.41,0.63-0.63,0.98C54.88,27.66,55.09,27.75,55.45,27.9
		z"/>
	<path class="st0" d="M43.7,29.53c-0.01,0-0.01,0-0.02,0c0,0.01,0,0.02,0,0.03L43.7,29.53z"/>
	<path class="st0" d="M43.15,28.95c-0.05,0.44-0.05,0.44,0.53,0.57C43.69,29.17,43.45,29.05,43.15,28.95z"/>
	<path class="st0" d="M54.39,26.85c-0.22,0.27-0.57,0.47-0.43,0.92C54.16,27.49,54.45,27.26,54.39,26.85z"/>
	<path class="st0" d="M48.42,32.29c-0.01-0.07-0.02-0.13-0.02-0.2c-0.19,0.03-0.37,0.06-0.56,0.09c0.01,0.06,0.02,0.11,0.03,0.17
		C48.05,32.33,48.24,32.31,48.42,32.29z"/>
	<path class="st0" d="M53.15,25.25c0.01-0.02,0.02-0.03,0.03-0.05c0,0,0,0,0-0.01c0.01-0.02,0.03-0.04,0.04-0.07
		c-0.02,0.01-0.03,0.03-0.05,0.04C53.16,25.2,53.15,25.22,53.15,25.25z"/>
	<path class="st0" d="M52.93,26.03c0.07-0.26,0.14-0.52,0.22-0.78c-0.13,0.24-0.26,0.48-0.39,0.71
		C52.81,25.99,52.87,26.01,52.93,26.03z"/>
	<path class="st0" d="M50.8,25.66c-0.15,0.18-0.3,0.37-0.45,0.55C50.82,26.39,50.84,26.05,50.8,25.66z"/>
	<path class="st0" d="M43.74,31.34c0.22,0.15,0.44,0.3,0.66,0.44C44.34,31.45,44.21,31.2,43.74,31.34z"/>
	<path class="st0" d="M44.49,31.83c0.29,0.14,0.58,0.29,0.87,0.43C45.24,31.75,44.84,31.83,44.49,31.83z"/>
	<path class="st0" d="M44.44,31.8c-0.01-0.01-0.02-0.02-0.04-0.02c0,0.02,0.01,0.03,0.01,0.04c0.03,0,0.05,0,0.08,0
		C44.47,31.82,44.46,31.81,44.44,31.8L44.44,31.8z"/>
	<path class="st0" d="M55.28,25.89c-0.02,0.18-0.04,0.36-0.06,0.54c0.13-0.14,0.25-0.28,0.38-0.42
		C55.5,25.97,55.39,25.93,55.28,25.89z"/>
	<path class="st0" d="M55.26,25.88c0.01,0,0.01,0.01,0.02,0.01c0-0.01,0-0.02,0-0.03C55.28,25.86,55.26,25.88,55.26,25.88z"/>
	<path class="st0" d="M55.18,26.48l0.03,0.03c0-0.02,0.01-0.05,0.01-0.07C55.21,26.45,55.2,26.46,55.18,26.48z"/>
	<path class="st0" d="M50.6,31.59c-0.13,0.03-0.26,0.05-0.39,0.08c0.01,0.05,0.03,0.1,0.04,0.15c0.13-0.04,0.25-0.08,0.38-0.12
		C50.62,31.67,50.61,31.63,50.6,31.59z"/>
	<path class="st0" d="M44.88,30.61c-0.09-0.02-0.17-0.05-0.25-0.05c-0.03,0-0.05,0.09-0.08,0.14c0.08,0.03,0.15,0.07,0.23,0.08
		C44.8,30.79,44.83,30.69,44.88,30.61z"/>
	<polygon class="st0" points="45.17,28.52 45.09,28.51 45.12,28.58 	"/>
	<path class="st0" d="M47.1,31.97c0.16-0.02,0.32-0.03,0.48-0.05c0-0.04-0.01-0.09-0.01-0.13c-0.16,0.01-0.32,0.03-0.48,0.04
		C47.1,31.88,47.1,31.93,47.1,31.97z"/>
	<path class="st0" d="M43.48,27.46c0.1-0.09,0.21-0.19,0.31-0.28l-0.03,0.01c-0.14,0.02-0.28,0.03-0.42,0.05
		C43.38,27.32,43.43,27.39,43.48,27.46z"/>
	<path class="st0" d="M51.72,26.74c-0.1,0.05-0.2,0.1-0.3,0.15c0.04,0.09,0.07,0.18,0.11,0.27C51.6,27.02,51.66,26.88,51.72,26.74z"
		/>
	<path class="st0" d="M51.42,26.89c0-0.01,0-0.01-0.01-0.02l0,0l0,0l0,0l0,0c-0.01,0.01-0.01,0.01-0.02,0.02
		c0,0.01-0.01,0.01-0.01,0.02C51.4,26.91,51.41,26.9,51.42,26.89z"/>
	<path class="st0" d="M51.74,26.7c-0.01,0.01-0.01,0.03-0.02,0.04c0.01-0.01,0.03-0.01,0.04-0.02L51.74,26.7z"/>
	<path class="st0" d="M45.9,32.31c0-0.04,0-0.08,0-0.11c-0.17,0.02-0.35,0.05-0.52,0.07C45.56,32.28,45.73,32.29,45.9,32.31z"/>
	<polygon class="st0" points="45.37,32.26 45.36,32.26 45.36,32.27 45.37,32.27 45.37,32.26 45.38,32.26 45.38,32.26 	"/>
	<path class="st0" d="M51.85,30.57c-0.08,0-0.17,0.02-0.27,0.04c0.04,0.07,0.07,0.15,0.08,0.15c0.08-0.01,0.17-0.04,0.25-0.07
		C51.89,30.65,51.87,30.57,51.85,30.57z"/>
	<path class="st0" d="M46.21,30.77c-0.04-0.08-0.07-0.12-0.1-0.17c-0.06,0.05-0.14,0.08-0.19,0.15c-0.02,0.03,0.04,0.11,0.07,0.16
		C46.06,30.85,46.14,30.81,46.21,30.77z"/>
	<path class="st0" d="M46.9,29.28c0.07-0.04,0.12-0.12,0.22-0.22c-0.1-0.05-0.19-0.12-0.24-0.1c-0.06,0.03-0.12,0.12-0.13,0.2
		C46.74,29.19,46.87,29.29,46.9,29.28z"/>
	<path class="st0" d="M53.05,28.93c-0.04-0.02-0.09-0.05-0.13-0.07c-0.01,0.03-0.04,0.06-0.03,0.08c0.02,0.04,0.05,0.08,0.08,0.12
		C52.99,29.01,53.02,28.97,53.05,28.93z"/>
	<path class="st0" d="M46.46,27.73c-0.06-0.02-0.12-0.07-0.17-0.06c-0.04,0.01-0.06,0.1-0.09,0.15c0.06,0.02,0.12,0.06,0.18,0.05
		C46.41,27.86,46.43,27.78,46.46,27.73z"/>
	<path class="st0" d="M50.14,26.51c-0.02,0.02-0.04,0.04-0.07,0.06c0.03-0.01,0.06-0.02,0.09-0.03
		C50.16,26.54,50.14,26.51,50.14,26.51z"/>
	<path class="st0" d="M49.87,26.74c0.07-0.06,0.14-0.12,0.2-0.17c-0.08,0.03-0.16,0.06-0.24,0.08
		C49.85,26.68,49.86,26.71,49.87,26.74z"/>
	<path class="st0" d="M46.07,31.84c0.01,0.02,0.01,0.05,0.02,0.06c0.02,0.01,0.05,0.01,0.08,0.02c-0.01-0.03-0.02-0.07-0.02-0.1
		C46.13,31.82,46.1,31.83,46.07,31.84z"/>
	<path class="st0" d="M51.47,31.45v-0.02l0,0l0,0l-0.03-0.05l0.03,0.06c-0.08,0.02-0.16,0.04-0.25,0.06
		C51.29,31.48,51.38,31.47,51.47,31.45z"/>
	<path class="st0" d="M48.12,30.07c-0.02-0.05-0.04-0.1-0.06-0.15c-0.02,0.02-0.07,0.03-0.07,0.05c0.01,0.05,0.03,0.09,0.05,0.14
		C48.06,30.1,48.09,30.08,48.12,30.07z"/>
	<path class="st0" d="M46.7,29.97c0-0.01-0.04-0.04-0.06-0.06c-0.02,0.02-0.07,0.04-0.06,0.06c0.01,0.05,0.04,0.09,0.06,0.14
		C46.65,30.06,46.68,30.02,46.7,29.97z"/>
	<path class="st0" d="M49.75,29.38c-0.02-0.05-0.04-0.09-0.06-0.14c-0.02,0.02-0.06,0.04-0.06,0.06c0.01,0.05,0.04,0.1,0.06,0.15
		C49.71,29.42,49.73,29.4,49.75,29.38z"/>
	<path class="st0" d="M49.16,28.07c0.06-0.01,0.11-0.03,0.17-0.05c-0.02-0.03-0.04-0.08-0.05-0.08c-0.06,0.01-0.12,0.04-0.17,0.06
		C49.12,28.02,49.15,28.07,49.16,28.07z"/>
	<path class="st0" d="M51.85,27.48c0.02,0.04,0.05,0.08,0.08,0.11c0.01-0.03,0.02-0.05,0.03-0.08c-0.02-0.03-0.03-0.05-0.05-0.08
		C51.89,27.45,51.85,27.48,51.85,27.48z"/>
	<path class="st0" d="M43.79,27.18l-0.01-0.01c0,0.01-0.01,0.02-0.01,0.02C43.76,27.2,43.79,27.18,43.79,27.18z"/>
	<path class="st0" d="M43.66,27.1c0.04,0.02,0.07,0.05,0.11,0.07c0.01-0.03,0.02-0.06,0.04-0.1C43.76,27.08,43.71,27.09,43.66,27.1z
		"/>
	<path class="st0" d="M52.02,26.3c0.03,0.07,0.05,0.14,0.08,0.21c0.02-0.08,0.04-0.16,0.05-0.23C52.11,26.28,52.07,26.29,52.02,26.3
		z"/>
	<path class="st0" d="M52.12,26.54c0-0.01-0.01-0.02-0.01-0.03c0,0.01,0,0.02-0.01,0.04c-0.11,0.06-0.23,0.11-0.35,0.16l0.02,0.02
		C51.88,26.66,51.99,26.6,52.12,26.54C52.11,26.54,52.12,26.54,52.12,26.54z"/>
	<path class="st0" d="M54.93,25.79c-0.01,0.19-0.02,0.39-0.03,0.58c-0.02-0.01-0.05-0.02-0.07-0.03c0.03,0.01,0.05,0.03,0.08,0.04
		l0.01,0.01c0.01-0.2,0.02-0.39,0.03-0.59c0.1,0.02,0.21,0.05,0.31,0.07l0.03-0.02C55.17,25.84,55.05,25.82,54.93,25.79
		C54.93,25.8,54.93,25.79,54.93,25.79z"/>
	<polygon class="st0" points="49.09,25.66 49.04,25.66 49.06,25.72 	"/>
	<path class="st0" d="M52.56,25.41c-0.05-0.02-0.1-0.05-0.15-0.07c0.03,0.06,0.05,0.12,0.08,0.18
		C52.51,25.48,52.54,25.44,52.56,25.41z"/>
	<path class="st0" d="M51.76,23.96c0-0.09,0.01-0.17,0.01-0.26c-0.05,0.07-0.09,0.14-0.14,0.21C51.68,23.93,51.72,23.94,51.76,23.96
		z"/>
	<path class="st0" d="M50.34,26.23c0-0.01,0.01-0.01,0.01-0.02c-0.01,0-0.02,0-0.03-0.01c-0.06,0.1-0.12,0.21-0.19,0.31
		c0,0,0.02,0.02,0.02,0.03C50.22,26.44,50.28,26.34,50.34,26.23L50.34,26.23z"/>
	<path class="st0" d="M54.41,26.83c0.01-0.01,0.01-0.02,0.02-0.03l-0.04,0.01l0,0l0,0l0,0c0,0.01,0,0.02,0,0.03
		C54.39,26.84,54.4,26.83,54.41,26.83L54.41,26.83z"/>
	<path class="st0" d="M54.45,26.84c-0.01,0-0.02-0.01-0.03-0.02c-0.01,0.01-0.01,0.02-0.02,0.03
		C54.41,26.85,54.43,26.85,54.45,26.84z"/>
	<polygon class="st0" points="52.5,28.2 52.49,28.25 52.55,28.23 	"/>
	<polygon class="st0" points="45.41,29.02 45.41,29.07 45.46,29.06 	"/>
	<polygon class="st0" points="44.58,29.22 44.57,29.26 44.62,29.25 	"/>
	<path class="st0" d="M43.7,29.53l-0.02,0.02c0.05,0.01,0.1,0.02,0.15,0.03C43.79,29.56,43.74,29.55,43.7,29.53z"/>
	<polygon class="st0" points="42.96,30.25 43.03,30.26 43,30.19 	"/>
	<polygon class="st0" points="47.65,31.04 47.62,31.08 47.67,31.09 	"/>
	<path class="st0" d="M70.26,6.65c0.12,0.16,0.25,0.33,0.37,0.49C70.58,6.92,70.63,6.62,70.26,6.65z"/>
	<polygon class="st0" points="69.72,4.82 69.69,4.89 69.75,4.89 	"/>
	<path class="st0" d="M69.65,5.98c0.01,0.06,0.04,0.11,0.06,0.16c0.02-0.02,0.05-0.04,0.07-0.06c-0.02-0.05-0.04-0.11-0.06-0.16
		C69.69,5.94,69.65,5.97,69.65,5.98z"/>
	<path class="st0" d="M69.06,6.7c0,0.02,0.02,0.05,0.04,0.07c0.02-0.02,0.04-0.04,0.05-0.06c0-0.02-0.02-0.05-0.04-0.07
		C69.09,6.65,69.06,6.68,69.06,6.7z"/>
	<path class="st0" d="M70.01,6.58c0.06,0.01,0.13,0.03,0.19,0.04c-0.03-0.05-0.07-0.1-0.1-0.14C70.07,6.51,70.04,6.54,70.01,6.58z"
		/>
	<path class="st0" d="M70.2,6.62c0.01,0.01,0.01,0.02,0.02,0.03l0,0c0.01,0,0.02,0,0.04,0c-0.01-0.01-0.01-0.01-0.02-0.02
		C70.23,6.62,70.21,6.62,70.2,6.62z"/>
	<path class="st0" d="M70.72,3.55c0.02,0,0.04-0.03,0.06-0.04c-0.02-0.02-0.03-0.04-0.05-0.06c-0.02,0.02-0.04,0.03-0.06,0.05
		C70.68,3.52,70.7,3.55,70.72,3.55z"/>
	<polygon class="st0" points="71.16,2.89 71.1,2.88 71.13,2.95 	"/>
	<path class="st0" d="M68.98,9.57c0-0.09,0.01-0.18,0.01-0.26c-0.27-0.07-0.53-0.13-0.8-0.2c0,0.17,0,0.34,0,0.6
		C68.48,9.66,68.73,9.61,68.98,9.57z"/>
	<path class="st0" d="M67.49,9.85c0.05,0,0.1,0,0.16,0l0,0c0,0,0.01,0,0.01,0.01c0-0.01,0.01-0.02,0.01-0.03
		C67.61,9.83,67.55,9.84,67.49,9.85z"/>
	<path class="st0" d="M42.37,16.5c-0.02,0.07-0.04,0.15-0.06,0.22c0.04-0.05,0.09-0.11,0.13-0.16
		C42.44,16.55,42.39,16.52,42.37,16.5z"/>
</g>
</svg>
