<svg version="1.1" id="Layer_1" xmlns="http://www.w3.org/2000/svg" x="0px" y="0px" viewBox="0 0 284 221.8" style="enable-background:new 0 0 284 221.8;" xmlns:xlink="http://www.w3.org/1999/xlink" xml:space="preserve">
<g>
	<g>
		<path fill="#fff" d="M21.5,68.1c0.3-4.2,1.2-8.3,1.6-12.5c0.4-4.2,1.9-8.1,3.4-11.6C24.9,51.8,23.2,60,21.5,68.1z"></path>
		<path fill="#fff" d="M20.9,70.6c0,6-1.8,11.8-1.9,17.7C18.7,82.3,20.6,76.6,20.9,70.6z"></path>
		<path  fill="#fff" d="M17.6,123.3c0.6-1.1-0.2-2.1-0.3-3.2c-0.1-0.9-0.1-1.8-0.2-2.8c0.2,0.1,0.3,0.1,0.3,0.1c0.3,1.9,1,3.7,0.9,5.6
			c0,0.2,0.1,0.5-0.2,0.6C17.8,123.7,17.7,123.5,17.6,123.3C17.6,123.3,17.6,123.3,17.6,123.3z"></path>
		<path fill="#fff" d="M18.6,59.1c0.4-2.8,0.8-5.6,1.8-8.3C19.9,53.6,19.5,56.4,18.6,59.1z"></path>
		<path fill="#fff" d="M17.5,112.9c0.2,0.7,0.8,1.3,0.4,2.3C17.6,114.3,17.2,113.7,17.5,112.9z"></path>
		<path fill="#fff" d="M59.3,183.5c1.2-8.6-4.3-17.6-5.4-18.5v0c-1.1-1.1-2.5-1.5-3.8-2.3c-3.6-2.2-7.2-1.8-10.8-0.1c-2.7,1.2-4.8,3.3-6.9,5.3
			c-0.6,0.6-1.2,1.2-2,1.6c-0.1-0.4-0.1-0.7-0.2-1c-0.5-2.8-0.8-5.6-1.5-8.4c-0.7-3.4-1.5-6.7-2.5-10c-0.3-1-0.2-2.4-0.7-3
			c-1.2-1.5-1.3-3.3-1.8-5c-0.9-3.3-1.4-6.8-3.2-9.8c-0.3-0.5-0.2-1.1-0.1-1.7c0.1-0.3,0.5-0.5,0.5-0.7c0-0.6-0.5,0.2-0.7-0.1
			c-0.1-0.2-0.2-0.4-0.1-0.5c0.5-0.8,0.3-1.7-0.1-2.3c-0.7-1-0.7-2.1-1-3.3c-0.1,0.9-0.2,1.7-0.3,2.4c-0.2-1-0.6-1.7-1.7-2
			c-0.2-0.1-0.5-0.3-0.3-0.6c0.2-0.3,0.4-0.3,0.7-0.2c0.1-1.4-1.2-2.1-1.6-3.4c-0.4,0.5,0.2,0.9-0.3,1.5c-0.3-1.3-0.7-2.4-0.9-3.5
			c-0.1-0.6-1-1.3,0.1-1.8c-0.1-0.1-0.1-0.3-0.2-0.4c-0.7-0.4-0.6-1.1-0.7-1.7c-0.1-0.8,0-1.8-0.5-2.5c-0.6-0.9-0.6-1.8-0.6-2.8
			c0-1.9,0.1-3.9-1-5.6c-0.5-0.9,0.4-1.3,0.5-1.3c1.5,0.3,0.5-0.8,0.8-1.1c-0.4-0.2-0.4,0.9-0.9,0.2c-0.2-0.3,0.1-0.8-0.3-1.2
			c0,1.3-0.6,2.2-1.2,3.3c-0.2,0.3-0.2,0.8-0.2,1.1c-0.1,0.6-0.2,1.2-0.3,1.8c-0.4-14.7,2.3-29,5.1-43.3c0.1,2.5-0.5,5-0.7,7.5
			c0.5-2.4,0.9-4.9,1.4-7.3c0.7-3.2,1.5-6.4,2.2-9.6c0.5-2.7,1.3-5.3,2.2-7.8c1.1-2.9,1.9-5.8,2.8-8.7c0.2-0.7-0.2-1.3,0.1-1.9
			c0.6-1.5,1.2-3,1.7-4.4c0.2-0.6,0.7-0.9,0.9-1.5c0.6-2.5,1.6-4.9,2.4-7.3c0.2-0.6,0.5-0.7,1-0.6c1,0.2,1.9-0.1,2.8-0.6
			c0.9-0.5,1.4-1.4,1.8-2c0.8-1.4,2-2.7,2.7-4.3c-1,0.5-1.3-0.1-1.1-0.7c0.5-2.2-0.3-4.4,0.3-6.6c0.1-0.4-0.1-1.2-0.2-1.1
			c-0.7,0.1-0.5-0.2-0.5-0.6c0.1-1.6,0.1-3.2-0.4-4.7c-2.3,4.3-3.3,9.1-5.5,13.3c-2.1,4-3.5,8.4-5.3,12.6
			c-3.5,8.2-6.6,16.5-8.7,25.1c-1.4,5.6-2.2,11.4-3.2,17.1c-1.6,8.8-3,17.6-4.2,26.4c-0.9,6.4-1.5,12.9-1.8,19.4
			c-0.2,2.9-0.8,5.8-0.4,8.7c0.3,1.6,0.3,3.2,0.2,4.7c-0.1,3.6,0,7.2,0.2,10.7c0.3,9.3,1.2,18.6,1.9,27.8c0.5,5.6,1.7,11.1,2.6,16.7
			c0.6,3.8,0.8,7.7,1.8,11.5c0.9,3.8,1.8,7.6,2.6,11.4c0.4,1.9,1,3.7,2.6,5c3.2,2.4,8.2,1.4,10.6-1.8c1.9-2.4,3.1-5.2,5-7.5
			c0.5-0.6,0.6-0.5,0.8-0.1c1.1,1.7,2.8,2,4.6,2c2.8,0,5.6-0.1,8-1.9c2.4-1.7,4.6-3.6,6.5-5.8c2.8-3.1,5-6.7,5.8-10.9
			c0-0.2,0.1-0.5,0.1-0.7C59.3,183.8,59.3,183.6,59.3,183.5z M23,36.2c-0.3,1.5-0.7,3-1.4,4.3c-0.1-0.1-0.2-0.1-0.3-0.2
			C21.8,39,22.4,37.6,23,36.2z M43.1,189.1c-1.1,0.4-2.2,0.8-3.3,1.2c-1.5,0.5-3,0.2-4.5-0.3c-0.5-0.2-0.5-0.5-0.6-0.9
			c-0.7-3.8-2-7.5-2.8-11.3c-0.2-0.8-0.3-1.6-0.7-2.4c-0.6-1.4-0.2-2.5,0.7-3.7c2.2-2.7,4.6-5,7.6-6.8c3.2-2,6.4-1.5,9.5,0.3
			c0.8,0.5,1.5,1.1,2.2,1.8c1.9,1.9,1.9,4.4,2,6.9C53.8,180.8,49.8,186.7,43.1,189.1z"></path>
		<path fill="#fff" d="M17.6,123.3C17.6,123.3,17.6,123.3,17.6,123.3C17.6,123.3,17.6,123.3,17.6,123.3L17.6,123.3z"></path>
	</g>
	<path fill="#fff" d="M113.7,206.3c0-6.5-1-12.1-2-17.7c-3.4-19.5-6.5-39.1-5.8-59c0.8-21.3,2.8-42.5,7.9-63.3c0.3-1.1,0.7-2.1,0.7-3.2
		c0-2.8,0.9-4.8,4-5.3c3.3-0.5,6.1,0.4,7.9,3.1c2.6,3.8,3,8.3,2.3,12.7c-1.4,9.4-4.3,18.5-6.5,27.7c-0.8,3.5-3.5,5.5-5.3,8.2
		c-4.5,6.8-5.6,14.5-5.9,22.2c-0.9,23,1.3,45.7,5.3,68.3c0.6,3.5,1.9,6.8,3.8,9.7c2.2,3.4,2.1,6-1.1,8.5c-2.1,1.7-4.6,3-7.3,3.3
		c-1.8,0.2-3.4,0.3-3.2-2.7c0.2-4.5-0.5-9-0.7-13.5c0-0.9-0.6-2.2,0.6-2.7c0.9-0.4,1.9,0.4,2.6,1.1
		C111.8,204.6,112.5,205.2,113.7,206.3z"></path>
	<path fill="#fff" d="M126.1,158.6c-0.1-9.5,1.5-17.5,2.6-25.6c0.3-2.1,1.7-3.1,3.5-3.6c2.8-0.8,5.4-0.2,7.5,1.8c1.7,1.6,2.3,3.7,2.4,5.9
		c0.3,4.2-0.6,8.1-2,12c-1.8,4.9-3.5,9.8-5.6,14.5c-1.7,3.8-0.9,7.9-2,11.7c-0.2,0.8,0.1,1.9-1.2,2c-1,0.1-1.7-0.5-2.2-1.3
		c-1.2-1.9-1.7-4-2.1-6.2C126.2,165.7,126.2,161.5,126.1,158.6z"></path>
	<path fill="#fff" d="M210.3,153c0.9-6.5,0.9-14,3.7-21c1-2.5,2.3-2.3,4.1-1.2c1.4,0.9,2.3,2.1,3,3.6c2.3,5.2,2.4,10.6,1.8,16.2
		c-0.6,5.2-1.8,10.4,0.4,15.6c0.7,1.6-3.8,4.2-6.1,3.7c-2.9-0.7-4.4-2.6-5.2-5.2C210.8,161.2,210.2,157.5,210.3,153z"></path>
	<path fill="#fff" d="M146.1,118.7c-5.3-1.1-10.5-3.1-14.4-7.5c-1.4-1.6-1.4-3.6-0.3-5.5c1.1-2,2.9-2.1,4.9-1.6c4.3,1.2,8.1,3.4,11.7,5.9
		c0.6,0.4,1.1,0.9,1.5,1.4c1.2,1.5,2.1,3.2,1.3,5.2C149.9,118.7,148,118.3,146.1,118.7z"></path>
	<path fill="#fff" d="M222.2,108.8c-5.2-0.1-9-3-12.3-6.5c-1.4-1.5-1.3-3.8-0.3-5.6c1-1.7,3-2,4.5-1.4c4.2,1.5,8.6,2.8,11.7,6.2
		c1.2,1.3,2.7,2.4,1.6,4.6C226.3,108.3,224.4,108.9,222.2,108.8z"></path>
	<path fill="#fff" d="M112.2,145.1c0-3.5,0-6.9,0-10.4c0.1,0,0.3,0,0.4,0c0,3.4,0,6.9,0,10.3C112.5,145.1,112.3,145.1,112.2,145.1z"></path>
	<path fill="#fff" d="M77,132.8c-4.9-0.8-9.5-0.8-14.2,1.5c1.3-2.2,4.4-3.9,7.2-4.4c4-0.7,7.7,0.6,11.6,1.1c4.8,0.6,8.6,2.6,11.8,6.1
		c0.5,0.5,1.1,0.8,2.3,0.1c-5.6-4.6-11.1-8.5-18.9-8.8c2.3-0.8,8-0.3,10.7,0.8c2.2,0.9,4.4,1.9,6.7,2.7c2.7,0.9,5.1,3.2,6,6
		c2,6.2,1.9,12.4-2.2,17.9c-6.9,9.3-20.3,13.3-31.5,10c-4.3-1.3-7.2-4.1-10.1-7.1c-2.2-2.3-3-5.3-3.2-8.5c-0.2-5.1,1-10.1,3.2-14.7
		c3.5-7.2,9-12.3,16.9-14.4c3.2-0.9,6.2-0.4,9.1,1.2c1,0.6,0.5,2.2,1.8,2.6c-3.8-0.7-7.6-0.9-11.3-1.4c-3.7-0.5-6.9,2.1-9.1,5
		c-4.3,5.7-6.4,12.2-5.8,19.3c0.1,1.6,0.4,2.3,1.5,3.9C58.7,139.5,66.1,134.6,77,132.8z M73.3,159.9c3.1,0.1,5.9-1,8.6-2.3
		c4.1-1.9,6.9-5,7.6-9.6c0.2-1,0.6-2-0.3-3c-5.2-6.5-12-8.5-19.7-5.7c-6.2,2.3-10,10.2-7.8,16.4c0.2,0.6,0.7,1,1.2,1.4
		C65.9,159.7,69.6,159.7,73.3,159.9z"></path>
	<g>
		<path fill="#fff" d="M188,140.8c0.2,0.4,0,0.7-0.2,0.9c-1.6,1.5-2.6,3.4-3.9,5c-0.4,0.5-0.7,1-0.5,1.7c0.2,0.7,0,1.3-0.4,1.8
			c-2.1,2.2-3.5,4.9-5.4,7.2c-1.4,1.7-2.5,3.6-3.7,5.4c-1.2,1.8-2.3,3.6-3.6,5.4c-0.1,0.2-0.3,0.4-0.5,0.3c-0.4-0.2-0.3-0.5-0.1-0.8
			c0.7-1,1.3-2,2-3c0.3-0.4,0.7-0.7,0.4-1.5c-1.2,1.5-2.3,2.9-3,4.6c-0.1,0.3-0.1,0.7,0.1,1c0.1,0.3,0.5,0.8,0,1
			c-0.7,0.2-0.3-0.6-0.7-0.9c-0.8,0.8-1.2,1.9-1.8,2.8c-0.1,0.1-0.1,0.4-0.1,0.5c0.9,1.3,0,1.3-0.9,1.9c-1.7,1.1-2.7,2.9-3,5
			c0,0.4,0,0.8,0.4,1c0.5,0.2,0.5-0.4,0.7-0.7c0.4-0.7,0.8-1.4,0.8-2.3c0-0.5,0.4-0.7,0.8-0.9c0.7-0.3,1.6-0.3,0.2-1.4
			c1.5,0.3,1.5,0.3,2.2-0.8c0.6-0.9,0.8-2.1,2.1-2.9c-0.7,1.5-1.2,2.8-1.8,4c-0.4,0.8-0.7,1.6-0.7,2.5c0,0.3,0,0.5,0.3,0.7
			c0.3,0.1,0.4-0.2,0.6-0.3c0.2-0.2,0.4-0.4,0.5-0.7c1.3-1.9,2.6-3.8,3.9-5.7c0.8-1.2,1.9-2.2,2.3-3.6c0.3-1,0.9-1.9,1.6-2.6
			c0.8-0.8,1.2-1.7,1.8-2.6c1-1.4,1.7-2.9,2.7-4.2c0.3-0.4,0.7-0.9-0.1-1.1c-0.3-0.1-0.5-0.4-0.3-0.6c0.5-0.9,0.8-1.9,1.8-2.6
			c0.1,0.7-0.2,1.1-0.4,1.6c-0.1,0.3-0.2,0.6,0.1,0.8c0.4,0.2,0.4-0.2,0.6-0.4c1.3-1,1.6-2.6,2.6-3.8c1.1-1.4,2.2-2.9,3-4.4
			c0.8-1.6,2.2-2.9,2.7-4.8c0,0.8,0,1.5-0.3,2.2c-1.9,4.2-4.2,8.3-6.7,12.2c-0.6,1-0.4,1.7,0.3,2.6c2,2.5,4.5,4.4,6.8,6.5
			c1.6,1.4,2.1,3.6,3.5,5.1c0.1,0.1,0.1,0.3,0,0.4c-0.2,0.1-0.4,0-0.6,0c-0.5,0-1.2-0.7-1.4,0c-0.2,0.7,0.8,0.5,1.2,0.7
			c0.4,0.2,0.9,0.3,1.5,0.5c-0.8,0.1-1.5-0.3-2.2,0c0.1,0.6,0.7,0.7,0.8,1.1c0.1,0.4,0.4,0.7,0,1c-0.3,0.3-0.7,0.5-1.1,0.1
			c-0.8-0.7-1.6-1.1-2.6,0c-0.4,0.5-1.1-0.1-1.6-0.4c-2.4-1.7-4.6-3.6-6.8-5.5c-1.4-1.2-2.8-2.4-4.1-3.7c-0.4-0.4-0.7-0.6-1,0.1
			c-0.7,1.9-1.7,3.5-2.9,5.1c-1.7,2.4-2.3,5.3-3.9,7.7c-1.1,1.6-1.6,2.2-3.2,2.6c0.2-0.6,0.4-1.2,0.5-1.7c0.1-0.4,0.6-0.9-0.1-1.2
			c-0.5-0.2-1.2-0.1-1.5,0.6c-0.3,0.6,0,1.7-1,1.8c-0.7,0-1.3-0.3-2-0.6c-0.2-0.1-0.7-0.3-0.9,0.1c-0.1,0.3,0.1,0.7,0.4,0.9
			c0.2,0.1,0.4,0.2,0.5,0.3c0.7,0.5,0.6,1.1-0.2,1.4c-0.4,0.2-0.7,0.2-1.1,0.2c-2,0-3.7-0.6-5-2.1c-0.5-0.6-1.2-1-1.8-1.5
			c-0.7-0.6-1-1.3,0.2-1.7c0.3-0.1,0.7-0.3,0.8-0.8c-0.6-0.5-0.8,0.4-1.3,0.2c-0.2-0.5,0.1-1,0.4-1.4c2.9-4.8,5.7-9.7,8.6-14.4
			c1.3-2.1,2.9-4,4.3-6c0.4-0.5,0.6-1,0.1-1.6c-2.1-2.4-3.7-5.1-6-7.3c-1-1-2.2-2-3.4-2.8c-1.6-1-2.6-2.5-3.3-4.3
			c-0.5-1.4-0.1-2.2,1.4-2.6c4.1-1.1,7.8-0.1,11.3,2c2.1,1.2,3.9,2.9,5.5,4.7c0.8,0.8,1.2,0.7,1.9-0.1c6.7-7.6,13.3-15.2,19.9-22.8
			c3.1-3.6,6.2-7.3,9.9-10.3c0.3-0.3,0.7-0.8,1-0.4c0.4,0.5-0.2,0.8-0.5,1.1c-0.6,0.6-1.5,1-1.8,2c0,0.2-0.3,0.4-0.5,0.4
			c-0.7,0.1-1.4,0.1-0.4,1c0.3,0.3,0.1,0.6-0.4,0.6c-1.1,0.1-1.8,1-2.6,1.6c-0.7,0.5-0.2,1.4,0,2.3c-0.9-0.6-1.3-0.2-1.7,0.4
			c-0.3,0.6-0.9,0.9-1.3,1.3c-0.6,0.6-1.6,1-1,2.2c0.1,0.3-1.9,2.3-2.4,2.3c-0.7,0.1-1,0.4-1.3,1.1c1.1,0,1.9-0.4,2.8-1.2
			c0.7-0.7,1.1-1.6,2.1-2.1c-0.7,1.3-1.4,2.5-1.8,3.9c-0.1,0.4-0.5,0.6-1,0.4c-0.4-0.1-0.8,0-0.9,0.4c-0.2,0.4,0.2,0.5,0.5,0.7
			c0.5,0.2,0,0.4,0,0.6c-0.5,1.1-1.4,2-2.1,2.9c-1,1.2-1.9,2.4-2.9,3.6c-2,2.5-4.1,4.9-6.2,7.3c-0.3,0.3-0.6,0.7-0.6,1.3
			c1.5-1.1,2.5-2.5,3.6-3.7c0.2-0.2,0.2-0.9,0.8-0.4c0.4,0.3,0.3,0.7-0.2,1c-1.1,0.8-2,1.8-2.5,3.3C185.4,144,186,141.5,188,140.8z
			 M162.6,174.2c0.4-0.1,0.8-0.4,0.8-0.8c0-0.5,0.2-0.8,0.6-1.1c0.3-0.2,0.6-0.6,0.3-0.9c-0.3-0.3-0.8-0.2-1.1,0.2
			c-0.6,0.6-0.4,1.6-0.9,2.3C162.1,174,162.3,174.2,162.6,174.2z M185.8,134.3c-2.1,1.4-3,2.4-2.7,3.6
			C183.6,136.1,185.5,135.9,185.8,134.3z M160.8,177.6c0.5-0.5,0.7-1.2,1.4-1.4c0.3-0.1,0.3-0.6,0.1-0.9c-0.3-0.4-0.6-0.1-0.8,0.2
			C160.9,176,160.3,176.5,160.8,177.6z M189.2,130.1c0.1,0.1,0.2,0.1,0.3,0.2c0.5-0.6,0.9-1.3,1.4-1.9
			C189.9,128.7,189.5,129.4,189.2,130.1z M168.3,165.8c0.4-0.5,0.9-1,0.8-2C168.5,164.5,168.1,165,168.3,165.8z M192,128.5
			c-0.5,0.5-0.8,0.8-1,1c-0.2,0.2-0.2,0.5,0,0.7c0.1,0.1,0.3,0.2,0.4,0.2c0.4-0.1,0.2-0.4,0.2-0.6
			C191.7,129.5,191.8,129.2,192,128.5z M170.4,162.3c0.7-0.3,1-0.7,1-1.4c0-0.1-0.2-0.2-0.3-0.2c-0.6,0.2-0.5,0.8-0.7,1.2
			C170.3,162.1,170.4,162.2,170.4,162.3z"></path>
		<path fill="#fff" d="M190.9,176.4c1-0.2,1.6,0.2,2.2,0.4c0.2,0.1,0.4,0.2,0.3,0.4c-0.1,0.2-0.4,0.2-0.5,0.1
			C192.3,177.2,191.6,177.1,190.9,176.4z"></path>
		<path fill="#fff" d="M189.2,136.7c0.1,0.6,0.2,1-0.3,1.3c-0.2,0.1-0.5,0-0.5-0.2C188.3,137.3,188.7,136.9,189.2,136.7z"></path>
	</g>
	<g>
		<g>
			<path fill="#fff" d="M240.2,132.5c-1.2,1.4-3,0.6-4.3,1.5c-0.3,0-0.3-0.3-0.2-0.5c0.1-0.7-1-1.4-0.4-2c0.8-0.8,1.8-1.4,2.9-1.8
				c2.2-0.8,4.2,0.3,6.3,0.7c2.1,0.4,2.7,2,3.9,3.2c0.6,0.7,0.3,1.7,0.5,2.6c0.3,1.4,1,2,2.3,1.2c3.8-2.3,7.9-3.8,12.1-5.2
				c1.9-0.6,3.8-0.4,5.3,1.2c1.1,1.1,1.2,2.4,0.4,3.7c-0.2,0.4-0.7,0.7-0.6,1.3c0.4,1.5-0.4,2-1.6,2.7c-5.4,2.8-10.3,6.1-14.6,10.4
				c-0.9,0.9-1.7,1.7-3,2c-0.1,0-0.3,0.1-0.3,0.1c-0.7,2.4-3.7,3.7-3.3,6.6c0.1,0.4,0.1,1.1,0.4,1.2c1.5,0.7,0.9,2.1,1.3,3.1
				c0.8,1.7,0.4,3.4,0.5,5.1c0,2.1-0.6,3.8-2.5,4.8c-0.3,0.2-0.3,0.2,0.1,0.7c0.3,0.3,0,0.5-0.2,0.6c-1.2,0.6-1.9,1.7-2.9,2.4
				c-0.4,0.3-0.9,0.8-1.4,0.5c-0.6-0.4-1.3-0.9-1.2-1.7c0.1-0.7-0.1-1.2-0.3-1.8c-0.6-1.8,0.1-3.4,1.1-4.8c0.6-0.8,0.4-1-0.2-1.4
				c-0.8-0.6-1.8-1.1-0.1-1.9c0.2-0.1,0.3-0.6,0.3-0.9c0.2-2.2,0.7-4.3,0.3-6.5c-0.7-3.6-0.2-7.3-0.3-11c0-3.6,0.5-7.2,0.2-10.8
				c-0.1-1-0.1-2.1-0.7-3C239.2,134,239.6,133.2,240.2,132.5z M244.7,160.9c-0.7,2.7-0.8,4.3-0.1,7.2
				C244.7,165.7,246.1,163.4,244.7,160.9z"></path>
		</g>
		<g>
			<path fill="#fff" d="M247.6,151.3c-0.4-1.1-1.4-1.8-2.1-2.6c-2.1-2.5-3.3-5.1-1-8.7c0.6-0.9,0-5.3-0.9-6.2c-0.5-0.5-0.9-1.1-1.2-1.8
				c-0.7,0.6-0.9,1.3-1.2,2.1c-0.2-0.3-0.3-0.6-0.5-0.9c-0.6,0.5-0.1,1.4-0.8,1.7c-0.5-0.4-0.4-1.1-0.5-1.6
				c-0.2-0.7,0.6-2.2-1.2-1.6c-0.1,0-0.2-0.1-0.2-0.2c-0.3-1.1-0.8-2.2-0.8-3.4c0-1.2,1.1-1.8,2.2-2.3c0.2-0.1,0.6-0.1,0.7-0.2
				c1.2-1.9,2.6-0.8,3.9-0.4c3.7,1.1,6.1,4,8.7,6.6c0.6,0.6,1,1.3,0.1,2.3c1.5-0.3,2.5-1,3.5-1.5c5-2.7,10.2-4.7,15.7-6.1
				c2.2-0.6,3.7,0.2,5,1.9c0.6,0.8,1.2,1.6,1.8,2.3c0.3,0.4,0.4,0.8,0.2,1.2c-0.6,1.1-0.4,2.3-0.4,3.4c-0.1,2.1-0.8,3-2.9,3.3
				c-1,0.1-1.7,0.8-2.5,1.1c-5.9,2.8-11.2,6.6-16,11.1c-0.9,0.8-1.9,1.5-2.9,2.1c-1.3,0.7-2.7,0.5-4-0.3c-0.9-0.6-1.2-0.3-1.3,0.7
				c-0.1,1.9-0.2,3.8-0.5,5.6c-0.5-1.4-0.3-2.9-0.1-4.3C248.4,153.4,248.3,152.3,247.6,151.3L247.6,151.3z"></path>
			<path fill="#fff" d="M247.6,151.2c-0.2,4.2-0.4,8.5,0.8,12.8c1.5-1.4,0.5-3.3,1.3-4.7c0,0.6,0,1.2,0,1.8c-0.2,1.7,0.6,3.3,0.8,5
				c0.2,1.6,0.4,3.2-0.9,4.6c-0.1,0.1-0.3,0.4-0.3,0.6c0.3,2.2-1.9,3-2.4,4.8c-0.5,1.8-1,3.6-1.9,5.3c-0.4,0.7-0.7,1.6-1.7,1.5
				c-1-0.1-1-1-1.2-1.7c-0.6-2.1-0.2-4.4-1.3-6.3c-0.1-0.2-0.1-0.7,0.1-0.9c1.4-1.4,0.6-3,0.3-4.5c-0.2-1.3-0.5-2.3,0.1-3.7
				c0.5-1.2,0.6-2.6,1.1-3.9c0.2-0.5,0.3-1.6-0.9-0.9c-0.2,0.1-0.4,0.3-0.5,0c-0.1-0.2,0-0.6,0.1-0.8c0.3-0.4,0.8-0.4,1.2-0.3
				c0.6,0.1,1,0.9,0.8,1.2c-0.6,1.1,0.3,1.9,0.4,3.2c1.5-1.7,1.3-3.6,1.8-5.4c0.8,1.4,1.2,2.8,1.3,4.3c0.5-2.7,0.5-5.4,0.3-8
				c-0.1-1-0.2-2.1-0.2-3.1C246.9,151.4,247.1,151.1,247.6,151.2C247.6,151.3,247.6,151.2,247.6,151.2z"></path>
		</g>
	</g>
</g>
</svg>