<?xml version="1.0" encoding="utf-8"?>
<!-- Generator: Adobe Illustrator 25.4.1, SVG Export Plug-In . SVG Version: 6.00 Build 0)  -->
<svg version="1.1" id="Layer_1" xmlns="http://www.w3.org/2000/svg" xmlns:xlink="http://www.w3.org/1999/xlink" x="0px" y="0px"
	 viewBox="0 0 100 100" style="enable-background:new 0 0 100 100;" xml:space="preserve">
<style type="text/css">
	.st0{fill:#FFFFFF;}
</style>
<g>
	<path class="st0" d="M42.93,67.77c-0.16,0.45,0.4,1.1,1.12,1.31c0.43,0.13,1.3-0.47,1.52-1c0.17-0.43-0.44-1.31-1.15-1.4
		C43.64,66.45,43.31,66.69,42.93,67.77z"/>
	<path class="st0" d="M38.1,70.26c-0.32-0.24-0.77-0.34-1.18-0.42c-0.16-0.03-0.42,0.11-0.55,0.24c-0.65,0.67-0.54,1.4,0.25,1.91
		c0.2,0.13,0.39,0.27,0.65,0.44c0.27-0.16,0.51-0.28,0.73-0.43C38.63,71.58,38.71,70.72,38.1,70.26z"/>
	<path class="st0" d="M43.06,88.7c-0.83-0.23-1.28,0.11-1.52,1.14c-0.1,0.41,0.51,1.05,1.18,1.24c0.44,0.12,1.31-0.51,1.49-1.07
		C44.36,89.49,43.86,88.92,43.06,88.7z"/>
	<path class="st0" d="M32.54,81.64c0,0.7,0.16,1,0.67,1.11c0.39,0.08,0.79,0.1,1.25,0.16c0.17-0.27,0.33-0.49,0.46-0.72
		c0.39-0.68,0.03-1.64-1.03-1.64c-0.24,0-0.48,0.05-0.71,0.12C32.71,80.8,32.54,81.08,32.54,81.64z"/>
	<path class="st0" d="M35.22,92.18c-0.12,0.09-0.21,0.24-0.28,0.38c-0.09,0.19-0.15,0.4-0.21,0.6c-0.12,0.35-0.01,0.63,0.3,0.83
		c0.33,0.22,0.67,0.42,1.05,0.65c0.25-0.16,0.5-0.3,0.73-0.48c0.48-0.37,0.59-1.04,0.26-1.47C36.65,92.15,35.63,91.86,35.22,92.18z"
		/>
	<path class="st0" d="M41.73,84.93c0.58-0.14,1.07-0.75,1.1-1.33c0.02-0.42-0.42-0.89-1.02-1.07c-0.82-0.25-1.11-0.12-1.42,0.67
		c-0.27,0.71-0.21,0.9,0.43,1.33c0.18,0.12,0.34,0.25,0.53,0.35C41.46,84.93,41.61,84.96,41.73,84.93z"/>
	<path class="st0" d="M37.38,75.03c-0.28,0.9-0.01,1.55,0.76,1.75c0.92,0.23,1.41,0.07,1.51-0.82c0.28-0.89,0.16-1.17-0.59-1.41
		C38.39,74.33,37.52,74.58,37.38,75.03z"/>
	<path class="st0" d="M49.46,81.18c0.58-0.45,0.65-0.98-0.09-1.58c-0.39-0.32-0.97-0.61-1.38-0.33c-0.39,0.27-0.55,0.86-0.81,1.31
		c0.29,0.33,0.54,0.7,0.87,0.98c0.18,0.16,0.5,0.16,0.76,0.23C49.04,81.58,49.24,81.35,49.46,81.18z M48.98,80.51
		c0.02,0.09,0.04,0.18,0.07,0.28C49.03,80.7,49.01,80.6,48.98,80.51c-0.14,0.17-0.22,0.25-0.2,0.33
		C48.77,80.76,48.84,80.68,48.98,80.51z"/>
	<path class="st0" d="M40.92,77.59c-0.42-0.15-1.11,0.39-1.32,1.03c-0.1,0.31,0.47,1.25,0.87,1.3c0.74,0.09,1.25,0.08,1.48-0.91
		C42.12,78.47,41.68,77.86,40.92,77.59z"/>
	<path class="st0" d="M32.09,78.11c0.16-0.68-0.12-1.26-0.67-1.38c-1.1-0.25-1.39-0.14-1.56,0.62c-0.21,0.93,0.05,1.35,0.97,1.54
		C31.29,78.97,31.99,78.55,32.09,78.11z"/>
	<path class="st0" d="M36.64,65c-0.42-0.17-1.08,0.32-1.34,1c-0.12,0.32,0.42,1.17,0.83,1.32c0.66,0.23,1.21-0.07,1.47-0.8
		C37.84,65.87,37.51,65.35,36.64,65z"/>
	<path class="st0" d="M34.71,89.55c0.63,0.25,1.24-0.07,1.48-0.8c0.23-0.69-0.06-1.15-0.99-1.51c-0.45-0.18-1.07,0.33-1.3,1.04
		C33.8,88.61,34.29,89.38,34.71,89.55z M35.51,89.25c0.35-0.11,0.36-0.23,0.41-0.71l0,0C35.87,89.01,35.86,89.13,35.51,89.25z"/>
	<path class="st0" d="M26.1,81.63c-0.38,0.1-0.7,0.16-1,0.27c-0.41,0.15-0.42,0.53-0.42,0.87c-0.01,0.27,0.04,0.63,0.35,0.64
		c0.41,0.01,0.84-0.08,1.22-0.23c0.27-0.11,0.3-0.72,0.12-1.1C26.31,81.94,26.22,81.81,26.1,81.63z"/>
	<path class="st0" d="M28.1,89.71c-0.38-0.07-0.63,0.15-0.73,0.47c-0.08,0.26-0.17,0.72-0.06,0.79c0.34,0.22,0.77,0.4,1.15,0.39
		c0.37-0.01,0.61-0.38,0.64-0.8c0.01-0.18-0.01-0.37-0.02-0.63C28.72,89.85,28.41,89.76,28.1,89.71z"/>
	<path class="st0" d="M51.52,65.66c-0.17-0.24-0.32-0.52-0.54-0.75c-0.26-0.28-0.78-0.23-1,0.05c-0.25,0.32-0.23,0.86,0.04,1.09
		C50.6,66.54,51,66.45,51.52,65.66z"/>
	<path class="st0" d="M49.28,86.51c-0.28-0.1-0.71,0.07-0.81,0.34c-0.13,0.33-0.22,0.67,0.1,0.96c0.54,0.48,0.98,0.38,1.53-0.39
		c-0.19-0.25-0.33-0.47-0.5-0.68C49.5,86.65,49.39,86.55,49.28,86.51z"/>
	<path class="st0" d="M54.58,77.36c-0.35,0.09-0.39,0.4-0.45,0.68c-0.09,0.38,0.12,0.58,0.44,0.74c0.58,0.27,0.73,0.23,1.26-0.5
		c-0.14-0.22-0.26-0.39-0.37-0.57C55.25,77.37,54.96,77.26,54.58,77.36z"/>
	<path class="st0" d="M34.16,86.1c0.1-0.38-0.32-1.13-0.7-1.24c-0.32-0.1-0.86,0.34-1.04,0.84c-0.13,0.38,0.25,0.92,0.75,1.07
		C33.64,86.9,34.01,86.65,34.16,86.1z"/>
	<path class="st0" d="M34.08,95.85c-0.34-0.07-1.12,0.35-1.22,0.64c-0.14,0.45,0.29,1.19,0.74,1.27c0.34,0.06,0.88-0.33,0.97-0.69
		C34.69,96.56,34.44,95.92,34.08,95.85z"/>
	<path class="st0" d="M42.41,70.98c0.13,0.37,0.41,0.45,0.76,0.43c0.62-0.03,0.76-0.19,0.81-1.05c-0.17-0.09-0.36-0.19-0.54-0.3
		c-0.34-0.21-0.67-0.2-0.95,0.09C42.24,70.4,42.31,70.69,42.41,70.98z"/>
	<path class="st0" d="M28.62,81.7c-0.15,0.55,0.2,0.82,0.57,1.09c0.78-0.51,0.96-1,0.74-2.04C29.29,80.86,28.79,81.06,28.62,81.7z"
		/>
	<path class="st0" d="M40.78,85.79c-0.34-0.23-0.73-0.37-1.14-0.57c-0.12,0.24-0.2,0.38-0.26,0.52c-0.35,0.83-0.23,1.05,0.69,1.18
		c0.18,0.02,0.41,0.07,0.54-0.02c0.21-0.13,0.45-0.34,0.5-0.55C41.15,86.2,40.95,85.9,40.78,85.79z"/>
	<path class="st0" d="M31.29,91.06c-0.35,0.45-0.15,0.83,0.1,1.21c0.99-0.2,1.3-0.52,1.46-1.5C32.07,90.51,31.66,90.59,31.29,91.06z
		"/>
	<path class="st0" d="M33.63,72.9c0.01,0.47,0.01,0.83,0.02,1.25c0.52,0.32,0.98,0.17,1.41-0.02c0.33-0.15,0.45-0.46,0.41-0.8
		c-0.04-0.37-0.35-0.44-0.65-0.45C34.44,72.87,34.06,72.89,33.63,72.9z"/>
	<path class="st0" d="M38.11,89.03c-0.31-0.09-0.75,0.23-0.82,0.59c-0.06,0.28,0.21,0.67,0.54,0.79c0.29,0.1,0.76-0.19,0.86-0.53
		C38.77,89.61,38.43,89.11,38.11,89.03z"/>
	<path class="st0" d="M34.25,78.3c0.53-0.07,0.48-0.55,0.56-0.93c-0.32-0.3-0.67-0.55-1.08-0.32c-0.3,0.17-0.38,0.53-0.28,0.85
		C33.57,78.28,33.95,78.34,34.25,78.3z"/>
	<path class="st0" d="M39.35,92.75C39,93.46,39,93.81,39.32,94.12c0.24,0.24,0.49,0.14,0.74,0.04c0.36-0.14,0.51-0.45,0.42-0.77
		C40.34,92.85,39.84,92.82,39.35,92.75z"/>
	<path class="st0" d="M45.68,84.63c0.32-0.14,0.43-0.45,0.34-0.74c-0.15-0.53-0.64-0.57-1.13-0.63c-0.35,0.69-0.35,1.07-0.03,1.38
		C45.14,84.89,45.42,84.75,45.68,84.63z"/>
	<path class="st0" d="M40.59,70.67c-0.35,0.68-0.34,1.1-0.02,1.38c0.27,0.23,0.56,0.12,0.82-0.01c0.31-0.16,0.41-0.47,0.32-0.75
		C41.55,70.78,41.09,70.7,40.59,70.67z"/>
	<path class="st0" d="M43.52,79.49c-0.31,0.06-0.5,0.31-0.55,0.63c-0.04,0.27,0.23,0.63,0.54,0.72c0.52,0.14,0.69-0.26,0.96-0.63
		C44.21,79.87,44.08,79.39,43.52,79.49z"/>
	<path class="st0" d="M36.88,80.85c0.24,0.24,0.53,0.34,0.85,0.07c0.33-0.28,0.43-0.67,0.23-0.99c-0.17-0.28-0.67-0.39-1.09-0.23
		c-0.36,0.14-0.35,0.39-0.2,0.67l0,0C36.73,80.53,36.76,80.73,36.88,80.85z"/>
	<path class="st0" d="M40,71.68c-0.13-0.28-0.26-0.59-0.43-0.95c-0.37,0.18-0.67,0.32-1.01,0.49C38.94,72.35,39.23,72.44,40,71.68z"
		/>
	<path class="st0" d="M28.29,79.63c0.39-0.13,0.59-0.58,0.43-0.97c-0.15-0.39-0.48-0.24-0.75-0.2c-0.15,0.02-0.29,0.11-0.53,0.22
		c0.08,0.37,0.15,0.69,0.22,1.04C27.93,79.68,28.12,79.69,28.29,79.63z M28,78.94L28,78.94c-0.09,0.03-0.18,0.06-0.27,0.09
		C27.82,79,27.91,78.97,28,78.94z"/>
	<path class="st0" d="M32.09,87.82c-0.15-0.04-0.31-0.01-0.5-0.01c-0.09,0.32-0.18,0.62-0.27,0.97c0.17,0.09,0.33,0.2,0.5,0.24
		c0.42,0.08,0.81-0.2,0.88-0.62C32.78,87.93,32.39,87.9,32.09,87.82z"/>
	<path class="st0" d="M51.43,77.68c0.4-0.23,0.28-0.68,0.22-1.13c-0.45,0.01-0.88-0.24-1.07,0.25c-0.08,0.22-0.07,0.62,0.06,0.74
		C50.82,77.69,51.24,77.78,51.43,77.68z"/>
	<path class="st0" d="M40.2,61.08c-0.43,0.21-0.43,0.62,0,1.34c0.88-0.32,1.09-0.53,0.91-0.9C40.94,61.15,40.49,60.94,40.2,61.08z"
		/>
	<path class="st0" d="M45.9,85.86c-0.41,0.02-0.84-0.25-1.1,0.21c-0.14,0.25-0.2,0.6,0.07,0.81c0.31,0.23,0.68,0.28,1.02-0.03
		C45.9,86.53,45.9,86.22,45.9,85.86z"/>
	<path class="st0" d="M43.75,81.76c-0.39,0.35-0.34,0.76-0.29,1.33c0.47-0.18,0.98-0.15,1.03-0.65
		C44.55,81.98,44.14,81.85,43.75,81.76z"/>
	<path class="st0" d="M36.84,68.24c-0.15-0.42-0.59-0.34-1.01-0.24c-0.1,0.52,0.03,0.88,0.38,1.26
		C36.54,68.94,37.02,68.74,36.84,68.24z"/>
	<path class="st0" d="M47.35,64.01c-0.97-0.13-1.12-0.06-1.15,0.51c-0.02,0.44,0.2,0.65,0.69,0.64
		C47.34,65.15,47.41,64.98,47.35,64.01z"/>
	<path class="st0" d="M39.29,66.91c-0.24,0.09-0.49,0.33-0.59,0.57c-0.15,0.37,0.15,0.6,0.45,0.74c0.5,0.23,0.71-0.18,0.95-0.49
		C39.86,67.09,39.6,66.79,39.29,66.91z"/>
	<path class="st0" d="M32.5,72.66c0.63-0.72,0.7-0.98,0.35-1.21c-0.36-0.24-0.83-0.21-1,0.06C31.59,71.94,31.77,72.28,32.5,72.66z"
		/>
	<path class="st0" d="M45.23,74.7c0.1-0.14,0.26-0.37,0.21-0.46c-0.11-0.22-0.31-0.43-0.53-0.56c-0.23-0.14-0.46-0.04-0.6,0.21
		c0.01,0,0.02,0,0.02,0c-0.41,0.44-0.06,0.76,0.16,1.14c0.17-0.06,0.31-0.11,0.46-0.17C45.06,74.82,45.18,74.78,45.23,74.7z"/>
	<path class="st0" d="M38.97,83.17c-0.11-0.06-0.41,0.07-0.54,0.2c-0.27,0.27-0.18,0.56,0.28,1.17c0.39-0.2,0.89-0.26,0.86-0.74
		C39.56,83.58,39.22,83.32,38.97,83.17z"/>
	<path class="st0" d="M46.12,60.5c0.07-0.44-0.38-0.55-0.8-0.72c-0.26,0.45-0.41,0.82-0.22,1.28C45.55,61.03,46.04,61.01,46.12,60.5
		z"/>
	<path class="st0" d="M49.68,72.37c-0.33,0.41-0.44,0.79-0.3,1.22c0.65-0.01,1.06-0.17,1.07-0.47
		C50.46,72.66,50.07,72.55,49.68,72.37z"/>
	<path class="st0" d="M42.05,77.04c0.08,0.01,0.16,0.03,0.24,0.04c0.13-0.25,0.27-0.5,0.48-0.89c-0.4-0.02-0.63-0.03-0.99-0.05
		C41.89,76.52,41.97,76.78,42.05,77.04z"/>
	<path class="st0" d="M45.52,91.82c-0.03,0.24-0.07,0.49-0.11,0.81c0.51,0.04,0.81-0.12,0.82-0.47
		C46.23,91.79,45.9,91.76,45.52,91.82z"/>
	<path class="st0" d="M46.85,69.77c-0.05,0.44-0.08,0.7-0.11,0.96c0.06,0.03,0.12,0.07,0.18,0.1c0.23-0.16,0.46-0.33,0.81-0.57
		C47.39,70.07,47.2,69.96,46.85,69.77z"/>
	<path class="st0" d="M51.02,83.32c0.52,0.06,0.75-0.12,0.87-0.58c-0.22-0.1-0.42-0.19-0.71-0.32
		C51.12,82.77,51.07,83.03,51.02,83.32z"/>
	<path class="st0" d="M75.22,14.75l-0.07-0.02c-0.03-0.01-0.05-0.01-0.08-0.02c-0.06-0.02-0.13-0.04-0.2-0.03
		c-0.42,0.07-0.85,0.14-1.27,0.2c-1.19,0.19-2.42,0.38-3.61,0.62c-0.64,0.13-1.33,0.36-2.15,0.74c-1.94,0.89-2.92,2.43-2.9,4.58
		c0.01,0.92,0.07,1.85,0.14,2.71c0.12,1.55,0.03,3.04-0.27,4.45c-0.23,1.1-0.47,2.25-1.1,3.25l-0.07,0.11
		c-0.68,1.09-1.38,2.21-2.12,3.29l-0.47,0.68c-1.71,2.49-3.48,5.06-4.82,7.85c-0.85,1.78-1.4,3.3-1.71,4.78
		c-0.16,0.74-0.39,1.49-0.59,2.16c-0.11,0.35-0.34,0.66-0.7,0.91c-0.36,0.26-0.7,0.35-0.98,0.24c-0.28-0.11-0.49-0.4-0.59-0.84
		c-0.06-0.26-0.09-0.46-0.09-0.64v-0.06c0.01-0.57,0.02-1.15,0.07-1.73c0.13-1.33,0.43-2.72,0.95-4.49l0.03-0.12
		c0.22-0.75,0.45-1.53,0.89-2.18c0.15-0.05,0.29-0.1,0.44-0.15c0.36-0.12,0.71-0.23,1.05-0.37c0.37-0.15,0.86-0.43,0.87-1.13v-0.03
		l-0.26-0.59c0.07-0.02,0.15-0.05,0.22-0.07c0.26-0.08,0.51-0.16,0.76-0.26c0.27-0.11,0.58-0.25,0.81-0.46
		c0.36-0.32,0.53-0.74,0.46-1.14c-0.07-0.39-0.34-0.72-0.73-0.88c-0.56-0.24-1.19-0.36-1.91-0.39c-0.48-0.02-0.97-0.02-1.45-0.03
		c-0.52-0.01-1.06-0.01-1.59-0.04c-0.68-0.03-1.39-0.08-2.12-0.17c-0.82-0.1-1.37-0.59-1.63-1.47c-0.12-0.39-0.18-0.84-0.19-1.3
		c-0.01-0.57,0.02-1.19,0.1-1.89c0.11-1.01,0.23-2.04,0.36-3.03l0.08-0.66c0.09-0.73,0.36-1.31,0.8-1.74
		c0.51-0.49,0.98-0.89,1.45-1.21c0.34-0.23,0.7-0.44,1.05-0.65c0.26-0.15,0.52-0.3,0.77-0.46l0.29-0.19
		c0.62-0.39,1.27-0.8,1.87-1.26c1.04-0.79,1.68-1.91,1.92-3.31c0.04-0.26,0.08-0.53,0.1-0.79c0.01-0.08-0.03-0.14-0.07-0.2
		c-0.01-0.02-0.03-0.05-0.04-0.07l-0.03-0.06l-0.52-0.04l-0.02,0.1c-0.02,0.12-0.05,0.24-0.07,0.36c-0.05,0.26-0.1,0.5-0.14,0.75
		c-0.16,0.98-0.59,1.77-1.28,2.35c-0.53,0.45-1.1,0.88-1.7,1.27c-0.35,0.23-0.72,0.44-1.08,0.65c-0.32,0.18-0.64,0.37-0.95,0.57
		c-0.45,0.29-1.04,0.67-1.57,1.12c-0.95,0.8-1.48,1.84-1.58,3.11c-0.04,0.5-0.11,1-0.17,1.49c-0.05,0.39-0.11,0.79-0.15,1.19
		c-0.1,0.98-0.16,1.87-0.19,2.7c-0.02,0.6,0.1,1.2,0.35,1.81c0.31,0.72,0.8,1.2,1.48,1.43c0.33,0.11,0.73,0.23,1.12,0.26
		c0.65,0.05,1.32,0.07,1.96,0.09c0.36,0.01,0.72,0.03,1.08,0.04l0.36,0.02c0.73,0.03,1.48,0.07,2.22,0.13
		c0.24,0.02,0.5,0.1,0.81,0.25c0.21,0.1,0.29,0.27,0.23,0.49l-0.07,0.07c-0.45,0.43-0.45,0.43-0.86,0.55
		c-0.35,0.1-0.76,0.22-1.19,0.28c-2.64,0.39-5,0.29-7.21-0.3c-1.77-0.47-2.92-1.46-3.52-3.03c-0.57-1.5-1.32-3.48-2.01-5.5
		c-0.24-0.71-0.35-1.48-0.42-2.07c-0.08-0.72,0.05-1.4,0.38-2c0.68-1.23,1.38-2.3,2.15-3.27c1.68-2.11,3.69-4.1,5.97-5.92
		c1.46-1.16,2.97-2.31,4.44-3.42c1.02-0.78,2.05-1.56,3.06-2.34c1.49-1.15,3.09-2.22,4.77-3.16c1.64-0.92,3.31-1.83,4.93-2.72
		c0.79-0.43,1.58-0.87,2.37-1.3c0.09-0.05,0.18-0.1,0.28-0.14c0.27-0.14,0.55-0.28,0.79-0.49l0.07-0.06l-0.33-0.54l-0.1,0.05
		c-0.09,0.04-0.18,0.08-0.26,0.12c-0.19,0.09-0.38,0.17-0.56,0.27l-0.2,0.1c-0.75,0.39-1.53,0.8-2.29,1.22l-0.29,0.16
		c-3.53,1.94-7.19,3.94-10.44,6.48c-0.86,0.68-1.75,1.35-2.61,2c-1.79,1.35-3.64,2.75-5.37,4.27c-2.65,2.33-4.48,4.33-5.92,6.5
		c-0.7,1.04-1.3,2-1.6,3.13c-0.46,1.68-0.9,3.21-1.33,4.65l-0.21,0.71c-0.75,2.49-1.54,5.06-2.35,7.57
		c-0.24,0.73-0.47,1.47-0.69,2.21c-0.5,1.6-1.01,3.26-1.63,4.85c-0.93,2.38-1.03,4.86-0.3,7.37l0.1,0.32
		c0.06,0.21,0.13,0.43,0.19,0.65l0.02,0.09c0.16,0.61,0.33,1.25,0.48,1.87c0.08,0.32,0.14,0.64,0.21,0.96
		c0.11,0.52,0.23,1.05,0.37,1.57c0.11,0.41,0.29,0.81,0.53,1.15c0.24,0.35,0.55,0.54,0.88,0.54c0.03,0,0.06,0,0.09-0.01
		c0.35-0.04,0.64-0.29,0.8-0.7c0.18-0.46,0.29-0.98,0.3-1.46c0.03-0.98,0.05-2.03-0.06-3.05c-0.17-1.64-0.42-3.3-0.67-4.91
		l-0.02-0.12c-0.11-0.73-0.03-1.22,0.27-1.64c0.44-0.62,0.88-1.22,1.36-1.86c0.17-0.22,0.33-0.45,0.5-0.68
		c0.52,0.91,1.22,1.56,1.89,2.15c0.28,0.25,0.58,0.5,0.87,0.74c0.14,0.12,0.28,0.24,0.42,0.35l0.24,0.2
		c1.01,0.86,2.06,1.75,2.93,2.8c0.21,0.26,0.46,0.48,0.74,0.72c0.5,0.44,1.05,0.72,1.64,0.84c0.32,0.06,0.64,0.08,0.93,0.04
		c0.28-0.04,0.52-0.17,0.68-0.38c0.15-0.2,0.21-0.45,0.18-0.7c-0.04-0.32-0.14-0.79-0.38-1.21c-0.41-0.74-0.81-1.36-1.23-1.9
		c-0.42-0.55-0.87-1.08-1.31-1.6c-0.37-0.44-0.76-0.9-1.12-1.36c-0.44-0.56-0.94-1.22-1.35-1.91c-0.46-0.77-0.87-1.59-1.28-2.37
		l-0.34-0.66c-0.07-0.13-0.11-0.21-0.03-0.31c0.1,0.03,0.2,0.05,0.3,0.08c0.29,0.08,0.6,0.16,0.91,0.2
		c0.48,0.07,0.97,0.11,1.47,0.12c2.18,0.03,4.13-0.17,5.95-0.6c0.1-0.02,0.21-0.03,0.34-0.04c0.02,0,0.04,0,0.07,0l-0.02,0.07
		c-0.04,0.14-0.07,0.26-0.11,0.38c-0.43,1.38-0.88,2.85-1.16,4.37c-0.2,1.09-0.37,2.16-0.31,3.27c0.03,0.58,0.14,1.11,0.31,1.57
		c0.27,0.72,0.88,1.04,1.68,0.87c0.69-0.14,1.22-0.53,1.57-1.16s0.61-1.35,0.8-2.25c0.03-0.14,0.06-0.28,0.09-0.43
		c0.1-0.51,0.21-1.04,0.38-1.53c0.82-2.38,1.85-4.56,3.08-6.47c0.76-1.18,1.56-2.36,2.33-3.5c0.54-0.8,1.08-1.59,1.61-2.39
		l0.25-0.38c0.53-0.8,1.08-1.63,1.53-2.5c1.04-2.02,1.51-4.36,1.43-7.16c-0.01-0.42-0.04-0.84-0.08-1.25
		c-0.03-0.4-0.06-0.82-0.07-1.22c-0.02-0.68,0-1.3,0.05-1.89c0.06-0.66,0.34-1.26,0.87-1.83c0.46-0.51,1.05-0.91,1.8-1.24
		c0.89-0.39,1.88-0.66,3.11-0.87c0.62-0.11,1.25-0.2,1.87-0.29c0.41-0.06,0.83-0.13,1.24-0.19c0.13-0.02,0.25-0.06,0.37-0.1
		c0.06-0.02,0.11-0.03,0.17-0.05l0.1-0.03L75.22,14.75z M41.54,37.71c-0.62-1.39-1.07-2.82-1.32-4.26
		c-0.15-0.85-0.09-1.62,0.19-2.37c0.11-0.3,0.2-0.62,0.28-0.93c0.05-0.2,0.11-0.39,0.17-0.59c0.08-0.24,0.16-0.48,0.25-0.73
		l0.06-0.17c0.02,0.02,0.03,0.04,0.04,0.04c0.26,0.75,0.53,1.5,0.79,2.26c0.45,1.28,0.91,2.6,1.37,3.9
		c0.73,2.04,2.24,3.35,4.47,3.87c1.78,0.42,3.59,0.57,5.39,0.44c0.21-0.02,0.41-0.03,0.62-0.04l0.28-0.02
		c0.37-0.03,0.68,0.13,0.95,0.5c-0.14,0.31-0.4,0.39-0.67,0.47l-0.04,0.01c-2.01,0.6-3.84,1.1-5.79,1.21
		c-1.2,0.07-2.44,0.14-3.68-0.02c-0.26-0.03-0.54-0.08-0.88-0.15c-0.53-0.11-0.92-0.39-1.15-0.83l-0.26-0.48
		C42.24,39.14,41.86,38.43,41.54,37.71z M42.23,41.01c0.71,2.18,2.31,5.03,3.79,6.77c0.91,1.07,1.59,1.9,2.2,2.7
		c0.37,0.47,0.69,1,1,1.51l0.11,0.18c0.13,0.21,0.21,0.46,0.29,0.7c0.03,0.08,0.03,0.17,0.03,0.26c0,0.03,0,0.05,0,0.07
		c-0.17,0.23-0.39,0.25-0.7,0.21c-0.49-0.06-0.95-0.27-1.36-0.61c-0.25-0.21-0.46-0.41-0.63-0.61c-0.99-1.16-2.15-2.15-3.28-3.12
		c-0.2-0.17-0.39-0.34-0.59-0.5l-0.46-0.39c-1.91-1.64-1.91-1.64-2.86-4.54l-0.01-0.03c-0.4-1.23-0.74-2.49-1.07-3.7
		c-0.14-0.53-0.28-1.05-0.43-1.56c0.62-2.36,0.94-3.33,1.34-4.02c0.06,0.1,0.08,0.22,0.11,0.35c0.01,0.07,0.02,0.13,0.04,0.2
		c0.47,1.78,1.14,3.48,1.99,5.04C41.9,40.23,42.1,40.62,42.23,41.01z M37.01,50.7c0.11,0.53,0.2,1.08,0.27,1.62l0.04,0.26
		c0.22,1.48,0.46,3.19,0.44,4.91c0,0.66-0.09,1.32-0.18,1.88c-0.02,0.13-0.1,0.27-0.2,0.43c-0.03,0.05-0.06,0.1-0.09,0.15
		c-0.04-0.03-0.07-0.06-0.11-0.09c-0.12-0.1-0.22-0.19-0.26-0.28c-0.18-0.4-0.34-0.82-0.45-1.25c-0.08-0.31-0.15-0.63-0.21-0.94
		c-0.05-0.24-0.09-0.47-0.15-0.7l-0.04-0.18c-0.16-0.69-0.33-1.41-0.53-2.11c-0.34-1.19-0.65-2.37-0.72-3.61
		c-0.06-1.23,0.09-2.41,0.45-3.5l0.49-1.45c0.43-1.29,0.87-2.59,1.29-3.88c0.17-0.53,0.33-1.05,0.51-1.62
		c0.06-0.21,0.13-0.42,0.2-0.65l0.01,0.01c0.04,0.05,0.07,0.08,0.07,0.1c0.45,1.55,0.9,3.11,1.36,4.72l0.27,0.94l-0.25,0.37
		c-0.24,0.35-0.49,0.72-0.75,1.09c-0.28,0.4-0.57,0.8-0.87,1.16C36.98,48.8,36.79,49.66,37.01,50.7z"/>
</g>
</svg>
